SplineFontDB: 3.0
FontName: Midway-Bold
FullName: Midway Bold
FamilyName: Midway
Weight: Bold
Copyright: Copyright 2011 Canonical Ltd.\nCopyright 2015 Yuta Taniguchi\nLicensed under the Ubuntu Font Licence 1.0
Version: 0.1
ItalicAngle: 0
UnderlinePosition: -156
UnderlineWidth: 23
Ascent: 800
Descent: 200
InvalidEm: 0
sfntRevision: 0x0000199a
LayerCount: 2
Layer: 0 1 "Back" 1
Layer: 1 1 "Fore" 0
XUID: [1021 935 -1301570125 14422120]
StyleMap: 0x0000
FSType: 0
OS2Version: 3
OS2_WeightWidthSlopeOnly: 0
OS2_UseTypoMetrics: 0
CreationTime: 1304432203
ModificationTime: 1558229931
PfmFamily: 49
TTFWeight: 700
TTFWidth: 5
LineGap: 0
VLineGap: 0
Panose: 2 11 8 9 3 6 2 3 2 4
OS2TypoAscent: 993
OS2TypoAOffset: 0
OS2TypoDescent: -213
OS2TypoDOffset: 0
OS2TypoLinegap: 0
OS2WinAscent: 993
OS2WinAOffset: 0
OS2WinDescent: 213
OS2WinDOffset: 0
HheadAscent: 993
HheadAOffset: 0
HheadDescent: -213
HheadDOffset: 0
OS2SubXSize: 824
OS2SubYSize: 766
OS2SubXOff: 0
OS2SubYOff: 165
OS2SupXSize: 824
OS2SupYSize: 766
OS2SupXOff: 0
OS2SupYOff: 562
OS2StrikeYSize: 59
OS2StrikeYPos: 294
OS2CapHeight: 729
OS2XHeight: 554
OS2Vendor: 'DAMA'
OS2CodePages: 2000009f.56010000
OS2UnicodeRanges: e00002ff.5000205b.00000000.00000000
Lookup: 1 0 0 "'locl' Localized Forms in Latin lookup 0" { "'locl' Localized Forms in Latin lookup 0 subtable"  } ['locl' ('latn' <'AZE ' > ) ]
Lookup: 1 0 0 "'locl' Localized Forms in Latin lookup 1" { "'locl' Localized Forms in Latin lookup 1 subtable"  } ['locl' ('latn' <'TRK ' > ) ]
Lookup: 1 0 0 "'locl' Localized Forms in Latin lookup 2" { "'locl' Localized Forms in Latin lookup 2 subtable"  } ['locl' ('latn' <'CRT ' > ) ]
Lookup: 1 0 0 "'locl' Localized Forms in Cyrillic lookup 3" { "'locl' Localized Forms in Cyrillic lookup 3 subtable"  } ['locl' ('cyrl' <'BGR ' > ) ]
Lookup: 1 0 0 "'locl' Localized Forms in Cyrillic lookup 4" { "'locl' Localized Forms in Cyrillic lookup 4 subtable"  } ['locl' ('cyrl' <'MKD ' > ) ]

StartChar: SF030000.001
Encoding: 65536 -1 0
Width: 550
VWidth: 1177
Flags: W
LayerCount: 2
Fore
SplineSet
29 0 m 1,0,-1
 29 883 l 1,1,-1
 29 893 l 1,2,-1
 39 893 l 1,3,-1
 510 893 l 1,4,-1
 520 893 l 1,5,-1
 520 883 l 1,6,-1
 520 0 l 1,7,-1
 520 -10 l 1,8,-1
 510 -10 l 1,9,-1
 39 -10 l 1,10,-1
 29 -10 l 1,11,-1
 29 0 l 1,0,-1
441 69 m 1,12,-1
 441 814 l 1,13,-1
 108 814 l 1,14,-1
 108 69 l 1,15,-1
 441 69 l 1,12,-1
EndSplineSet
EndChar

StartChar: exclam
Encoding: 33 33 4
Width: 550
VWidth: 1177
Flags: W
LayerCount: 2
Fore
SplineSet
368 536 m 2,0,1
 368 525.452148438 368 525.452148438 367.90625 515.405273438 c 256,2,3
 367.811523438 505.358398438 367.811523438 505.358398438 367.623046875 495.803710938 c 256,4,5
 367.434570312 486.249023438 367.434570312 486.249023438 367.151367188 477.186523438 c 256,6,7
 366.868164062 468.125 366.868164062 468.125 366.490234375 459.559570312 c 0,8,9
 365.734375 442.43359375 365.734375 442.43359375 364.600585938 426.053710938 c 256,10,11
 363.466796875 409.673828125 363.466796875 409.673828125 361.953125 394.037109375 c 0,12,13
 358.9296875 362.790039062 358.9296875 362.790039062 354.392578125 332.040039062 c 0,14,15
 349.922851562 301.74609375 349.922851562 301.74609375 345.9453125 263.953125 c 2,16,-1
 345.002929688 255 l 1,17,-1
 336 255 l 1,18,-1
 216 255 l 1,19,-1
 207.455078125 255 l 1,20,-1
 206.122070312 263.440429688 l 2,21,22
 200.114257812 301.490234375 200.114257812 301.490234375 195.603515625 332.563476562 c 256,23,24
 191.083007812 363.708007812 191.083007812 363.708007812 187.565429688 394.360351562 c 256,25,26
 184.025390625 425.208984375 184.025390625 425.208984375 182.509765625 459.559570312 c 0,27,28
 181.75390625 476.684570312 181.75390625 476.684570312 181.376953125 495.791015625 c 256,29,30
 181 514.897460938 181 514.897460938 181 536 c 2,31,-1
 181 729 l 1,32,-1
 181 739 l 1,33,-1
 191 739 l 1,34,-1
 358 739 l 1,35,-1
 368 739 l 1,36,-1
 368 729 l 1,37,-1
 368 536 l 2,0,1
382 84 m 0,38,39
 382 33.43359375 382 33.43359375 348.548828125 4.443359375 c 0,40,41
 315.73046875 -24 315.73046875 -24 274 -24 c 0,42,43
 260.1640625 -24 260.1640625 -24 247.215820312 -20.7919921875 c 256,44,45
 234.268554688 -17.583984375 234.268554688 -17.583984375 222.412109375 -11.244140625 c 256,46,47
 210.5546875 -4.9033203125 210.5546875 -4.9033203125 199.887695312 4.498046875 c 0,48,49
 183.475585938 18.962890625 183.475585938 18.962890625 175.23828125 39.068359375 c 256,50,51
 167 59.173828125 167 59.173828125 167 84 c 0,52,53
 167 96.1337890625 167 96.1337890625 169.09375 107.16015625 c 256,54,55
 171.186523438 118.186523438 171.186523438 118.186523438 175.352539062 128.017578125 c 256,56,57
 179.518554688 137.848632812 179.518554688 137.848632812 185.838867188 146.428710938 c 256,58,59
 192.159179688 155.009765625 192.159179688 155.009765625 200.5234375 162.119140625 c 0,60,61
 233.32421875 190 233.32421875 190 274 190 c 0,62,63
 315.67578125 190 315.67578125 190 348.4765625 162.119140625 c 0,64,65
 382 133.624023438 382 133.624023438 382 84 c 0,38,39
EndSplineSet
EndChar

StartChar: quotedbl
Encoding: 34 34 5
Width: 550
VWidth: 1177
Flags: W
LayerCount: 2
Fore
SplineSet
479 800 m 1,0,-1
 479 742 l 2,1,2
 479 737.08203125 479 737.08203125 478.915039062 732.000976562 c 256,3,4
 478.831054688 726.918945312 478.831054688 726.918945312 478.662109375 721.676757812 c 256,5,6
 478.4921875 716.435546875 478.4921875 716.435546875 478.239257812 711.032226562 c 256,7,8
 477.986328125 705.62890625 477.986328125 705.62890625 477.6484375 700.061523438 c 256,9,10
 477.310546875 694.493164062 477.310546875 694.493164062 476.889648438 688.767578125 c 256,11,12
 476.46875 683.041015625 476.46875 683.041015625 475.963867188 677.145507812 c 0,13,14
 472.934570312 641.810546875 472.934570312 641.810546875 467.388671875 605.009765625 c 0,15,16
 461.885742188 568.490234375 461.885742188 568.490234375 456.381835938 532.96875 c 256,17,18
 450.848632812 497.252929688 450.848632812 497.252929688 444.805664062 467.0390625 c 2,19,-1
 443.198242188 459 l 1,20,-1
 435 459 l 1,21,-1
 350 459 l 1,22,-1
 341.75 459 l 1,23,-1
 340.182617188 467.099609375 l 2,24,25
 334.162109375 498.205078125 334.162109375 498.205078125 328.143554688 533.310546875 c 256,26,27
 322.114257812 568.482421875 322.114257812 568.482421875 317.092773438 605.142578125 c 256,28,29
 312.067382812 641.82421875 312.067382812 641.82421875 308.547851562 677.518554688 c 0,30,31
 305 713.5078125 305 713.5078125 305 743 c 2,32,-1
 305 800 l 1,33,-1
 305 810 l 1,34,-1
 315 810 l 1,35,-1
 469 810 l 1,36,-1
 479 810 l 1,37,-1
 479 800 l 1,0,-1
247 800 m 1,38,-1
 247 742 l 2,39,40
 247 737.08203125 247 737.08203125 246.915039062 732.000976562 c 256,41,42
 246.831054688 726.918945312 246.831054688 726.918945312 246.662109375 721.676757812 c 256,43,44
 246.4921875 716.435546875 246.4921875 716.435546875 246.239257812 711.032226562 c 256,45,46
 245.986328125 705.62890625 245.986328125 705.62890625 245.6484375 700.061523438 c 256,47,48
 245.310546875 694.493164062 245.310546875 694.493164062 244.889648438 688.767578125 c 256,49,50
 244.46875 683.041015625 244.46875 683.041015625 243.963867188 677.145507812 c 0,51,52
 240.934570312 641.810546875 240.934570312 641.810546875 235.388671875 605.009765625 c 256,53,54
 229.865234375 568.357421875 229.865234375 568.357421875 223.336914062 532.69921875 c 256,55,56
 216.822265625 497.119140625 216.822265625 497.119140625 210.805664062 467.0390625 c 2,57,-1
 209.198242188 459 l 1,58,-1
 201 459 l 1,59,-1
 118 459 l 1,60,-1
 109.75 459 l 1,61,-1
 108.182617188 467.099609375 l 2,62,63
 102.162109375 498.205078125 102.162109375 498.205078125 96.1435546875 533.310546875 c 256,64,65
 90.1142578125 568.482421875 90.1142578125 568.482421875 85.0927734375 605.142578125 c 256,66,67
 80.0771484375 641.7578125 80.0771484375 641.7578125 76.0625 677.379882812 c 0,68,69
 74.0341796875 695.388671875 74.0341796875 695.388671875 73.0166015625 711.786132812 c 256,70,71
 72 728.182617188 72 728.182617188 72 743 c 2,72,-1
 72 800 l 1,73,-1
 72 810 l 1,74,-1
 82 810 l 1,75,-1
 237 810 l 1,76,-1
 247 810 l 1,77,-1
 247 800 l 1,38,-1
EndSplineSet
EndChar

StartChar: numbersign
Encoding: 35 35 6
Width: 550
VWidth: 1177
Flags: W
LayerCount: 2
Fore
SplineSet
134.720703125 560 m 1,0,-1
 167.17578125 730.866210938 l 1,1,-1
 168.720703125 739 l 1,2,-1
 177 739 l 1,3,-1
 297 739 l 1,4,-1
 309.14453125 739 l 1,5,-1
 306.814453125 727.081054688 l 1,6,-1
 274.14453125 560 l 1,7,-1
 347.720703125 560 l 1,8,-1
 380.17578125 730.866210938 l 1,9,-1
 381.720703125 739 l 1,10,-1
 390 739 l 1,11,-1
 510 739 l 1,12,-1
 522.078125 739 l 1,13,-1
 519.82421875 727.133789062 l 1,14,-1
 488.078125 560 l 1,15,-1
 549 560 l 1,16,-1
 559 560 l 1,17,-1
 559 550 l 1,18,-1
 559 430 l 1,19,-1
 559 420 l 1,20,-1
 549 420 l 1,21,-1
 460.323242188 420 l 1,22,-1
 440.015625 310 l 1,23,-1
 549 310 l 1,24,-1
 559 310 l 1,25,-1
 559 300 l 1,26,-1
 559 180 l 1,27,-1
 559 170 l 1,28,-1
 549 170 l 1,29,-1
 413.288085938 170 l 1,30,-1
 380.826171875 -1.8564453125 l 1,31,-1
 379.288085938 -10 l 1,32,-1
 371 -10 l 1,33,-1
 251 -10 l 1,34,-1
 238.934570312 -10 l 1,35,-1
 241.173828125 1.8564453125 l 1,36,-1
 272.934570312 170 l 1,37,-1
 199.333007812 170 l 1,38,-1
 167.8359375 -1.8037109375 l 1,39,-1
 166.333007812 -10 l 1,40,-1
 158 -10 l 1,41,-1
 38 -10 l 1,42,-1
 25.9345703125 -10 l 1,43,-1
 28.173828125 1.8564453125 l 1,44,-1
 59.9345703125 170 l 1,45,-1
 1 170 l 1,46,-1
 -9 170 l 1,47,-1
 -9 180 l 1,48,-1
 -9 300 l 1,49,-1
 -9 310 l 1,50,-1
 1 310 l 1,51,-1
 85.740234375 310 l 1,52,-1
 106.893554688 420 l 1,53,-1
 1 420 l 1,54,-1
 -9 420 l 1,55,-1
 -9 430 l 1,56,-1
 -9 550 l 1,57,-1
 -9 560 l 1,58,-1
 1 560 l 1,59,-1
 134.720703125 560 l 1,0,-1
226.106445312 310 m 1,60,-1
 300.614257812 310 l 1,61,-1
 320.075195312 420 l 1,62,-1
 247.259765625 420 l 1,63,-1
 226.106445312 310 l 1,60,-1
EndSplineSet
EndChar

StartChar: dollar
Encoding: 36 36 7
Width: 550
VWidth: 1177
Flags: W
LayerCount: 2
Fore
SplineSet
193.161132812 -104 m 1,0,-1
 193.161132812 11.947265625 l 1,1,2
 119.177734375 19.265625 119.177734375 19.265625 75.50390625 35.0986328125 c 0,3,4
 52.302734375 43.5126953125 52.302734375 43.5126953125 35.1220703125 51.01953125 c 128,-1,5
 17.94140625 58.52734375 17.94140625 58.52734375 6.326171875 65.390625 c 2,6,-1
 -1 69.7197265625 l 1,7,-1
 2.1005859375 77.6435546875 l 1,8,-1
 47.1005859375 192.643554688 l 1,9,-1
 51.0068359375 202.625976562 l 1,10,-1
 60.6943359375 198.037109375 l 2,11,12
 79.2744140625 189.236328125 79.2744140625 189.236328125 101.029296875 181.247070312 c 0,13,14
 123.04296875 173.2578125 123.04296875 173.2578125 149.633789062 166.111328125 c 0,15,16
 175.875976562 159.059570312 175.875976562 159.059570312 203.573242188 155.529296875 c 128,-1,17
 231.270507812 152 231.270507812 152 260.469726562 152 c 0,18,19
 327.801757812 152 327.801757812 152 352.915039062 166.9140625 c 0,20,21
 375.856445312 180.537109375 375.856445312 180.537109375 375.856445312 211.189453125 c 0,22,23
 375.856445312 228.62890625 375.856445312 228.62890625 366.966796875 240.739257812 c 0,24,25
 357.5234375 253.603515625 357.5234375 253.603515625 338.573242188 264.63671875 c 0,26,27
 328.748046875 270.356445312 328.748046875 270.356445312 316.58984375 275.586914062 c 128,-1,28
 304.432617188 280.817382812 304.432617188 280.817382812 289.997070312 285.5 c 0,29,30
 260.063476562 295.208984375 260.063476562 295.208984375 221.620117188 307.817382812 c 0,31,32
 184.828125 319.610351562 184.828125 319.610351562 149.087890625 334.856445312 c 0,33,34
 130.877929688 342.625 130.877929688 342.625 114.830078125 351.927734375 c 0,35,36
 99.5419921875 361.23046875 99.5419921875 361.23046875 86.041015625 372.063476562 c 0,37,38
 72.2275390625 383.147460938 72.2275390625 383.147460938 61.1826171875 396.834960938 c 128,-1,39
 50.13671875 410.521484375 50.13671875 410.521484375 41.9404296875 426.684570312 c 0,40,41
 25.4130859375 459.276367188 25.4130859375 459.276367188 25.4130859375 505.19921875 c 0,42,43
 25.4130859375 538.525390625 25.4130859375 538.525390625 34.26953125 569.865234375 c 0,44,45
 37.265625 580.469726562 37.265625 580.469726562 41.5673828125 590.529296875 c 128,-1,46
 45.869140625 600.58984375 45.869140625 600.58984375 51.458984375 610.069335938 c 128,-1,47
 57.048828125 619.548828125 57.048828125 619.548828125 63.9130859375 628.430664062 c 0,48,49
 68.0712890625 633.809570312 68.0712890625 633.809570312 72.76171875 638.896484375 c 128,-1,50
 77.4521484375 643.984375 77.4521484375 643.984375 82.638671875 648.749023438 c 128,-1,51
 87.8251953125 653.513671875 87.8251953125 653.513671875 93.5322265625 657.984375 c 128,-1,52
 99.23828125 662.455078125 99.23828125 662.455078125 105.42578125 666.607421875 c 128,-1,53
 111.61328125 670.759765625 111.61328125 670.759765625 118.307617188 674.616210938 c 0,54,55
 150.900390625 692.217773438 150.900390625 692.217773438 196.366210938 702.962890625 c 1,56,-1
 196.366210938 806 l 1,57,-1
 196.366210938 816 l 1,58,-1
 207.049804688 816 l 1,59,-1
 350.21484375 816 l 1,60,-1
 360.8984375 816 l 1,61,-1
 360.8984375 806 l 1,62,-1
 360.8984375 707.063476562 l 1,63,64
 374.825195312 705.682617188 374.825195312 705.682617188 387.314453125 704.0546875 c 128,-1,65
 399.803710938 702.427734375 399.803710938 702.427734375 411.474609375 700.459960938 c 128,-1,66
 423.145507812 698.491210938 423.145507812 698.491210938 433.833984375 696.196289062 c 0,67,68
 443.9921875 693.900390625 443.9921875 693.900390625 454.053710938 691.14453125 c 0,69,70
 496.744140625 679.456054688 496.744140625 679.456054688 520.400390625 669.170898438 c 2,71,-1
 528.337890625 665.719726562 l 1,72,-1
 526.060546875 657.369140625 l 1,73,-1
 493.060546875 536.369140625 l 1,74,-1
 490.080078125 525.440429688 l 1,75,-1
 479.60546875 529.752929688 l 2,76,77
 463.03515625 536.576171875 463.03515625 536.576171875 443.271484375 542.71484375 c 0,78,79
 422.965820312 548.852539062 422.965820312 548.852539062 398.504882812 554.268554688 c 0,80,81
 386.388671875 556.951171875 386.388671875 556.951171875 374.114257812 558.962890625 c 128,-1,82
 361.838867188 560.974609375 361.838867188 560.974609375 349.393554688 562.31640625 c 128,-1,83
 336.948242188 563.658203125 336.948242188 563.658203125 324.333007812 564.329101562 c 128,-1,84
 311.717773438 565 311.717773438 565 298.931640625 565 c 0,85,86
 284.329101562 565 284.329101562 565 271.9453125 563.798828125 c 128,-1,87
 259.5625 562.596679688 259.5625 562.596679688 250.145507812 560.352539062 c 128,-1,88
 240.727539062 558.108398438 240.727539062 558.108398438 233.805664062 555.065429688 c 128,-1,89
 226.884765625 552.0234375 226.884765625 552.0234375 222.33984375 548.180664062 c 0,90,91
 212.297851562 539.69140625 212.297851562 539.69140625 207.537109375 530.233398438 c 128,-1,92
 202.776367188 520.776367188 202.776367188 520.776367188 202.776367188 509.654296875 c 0,93,94
 202.776367188 505.56640625 202.776367188 505.56640625 203.2109375 501.916015625 c 128,-1,95
 203.647460938 498.266601562 203.647460938 498.266601562 204.485351562 495.178710938 c 128,-1,96
 205.32421875 492.08984375 205.32421875 492.08984375 206.486328125 489.497070312 c 128,-1,97
 207.649414062 486.904296875 207.649414062 486.904296875 209.166015625 484.700195312 c 0,98,99
 212.391601562 480.008789062 212.391601562 480.008789062 217.736328125 475.565429688 c 128,-1,100
 223.079101562 471.122070312 223.079101562 471.122070312 230.666992188 467.02734375 c 0,101,102
 247.083007812 458.169921875 247.083007812 458.169921875 269.856445312 449.702148438 c 0,103,104
 281.37890625 445.418945312 281.37890625 445.418945312 295.357421875 440.864257812 c 128,-1,105
 309.3359375 436.310546875 309.3359375 436.310546875 325.716796875 431.5078125 c 2,106,-1
 326.026367188 431.416992188 l 1,107,-1
 326.330078125 431.309570312 l 2,108,109
 342.8515625 425.43359375 342.8515625 425.43359375 358.538085938 419.393554688 c 128,-1,110
 374.224609375 413.354492188 374.224609375 413.354492188 389.102539062 407.138671875 c 128,-1,111
 403.981445312 400.922851562 403.981445312 400.922851562 418.029296875 394.540039062 c 128,-1,112
 432.256835938 388.048828125 432.256835938 388.048828125 444.390625 380.880859375 c 128,-1,113
 456.5234375 373.712890625 456.5234375 373.712890625 467.482421875 365.817382812 c 128,-1,114
 478.44140625 357.921875 478.44140625 357.921875 488.146484375 349.340820312 c 0,115,116
 517.615234375 323.282226562 517.615234375 323.282226562 534.4609375 288.5234375 c 0,117,118
 542.978515625 270.950195312 542.978515625 270.950195312 547.196289062 250.474609375 c 128,-1,119
 551.413085938 230 551.413085938 230 551.413085938 206.7109375 c 0,120,121
 551.413085938 174.185546875 551.413085938 174.185546875 541.474609375 142.6953125 c 0,122,123
 531.404296875 110.7890625 531.404296875 110.7890625 508.678710938 83.591796875 c 128,-1,124
 485.92578125 56.3603515625 485.92578125 56.3603515625 448.17578125 36.5068359375 c 0,125,126
 412.547851562 18.4033203125 412.547851562 18.4033203125 358.76171875 10.05078125 c 1,127,-1
 358.76171875 -104 l 1,128,-1
 358.76171875 -114 l 1,129,-1
 348.078125 -114 l 1,130,-1
 203.844726562 -114 l 1,131,-1
 193.161132812 -114 l 1,132,-1
 193.161132812 -104 l 1,0,-1
EndSplineSet
EndChar

StartChar: percent
Encoding: 37 37 8
Width: 550
VWidth: 1177
Flags: W
LayerCount: 2
Fore
SplineSet
142.4140625 -10 m 1,0,-1
 136.744140625 -10 l 1,1,-1
 31.5576171875 -10 l 1,2,-1
 13 -10 l 1,3,-1
 23.205078125 5.4990234375 l 1,4,-1
 522.58203125 734.499023438 l 1,5,-1
 525.701171875 739 l 1,6,-1
 531.37109375 739 l 1,7,-1
 636.557617188 739 l 1,8,-1
 655.115234375 739 l 1,9,-1
 644.909179688 723.500976562 l 1,10,-1
 145.532226562 -5.4990234375 l 1,11,-1
 142.4140625 -10 l 1,0,-1
351.709960938 92.33984375 m 128,-1,13
 341.950195312 126.943359375 341.950195312 126.943359375 341.950195312 172.086914062 c 0,14,15
 341.950195312 263.006835938 341.950195312 263.006835938 381.467773438 310.897460938 c 0,16,17
 421.983398438 360 421.983398438 360 491.3828125 360 c 0,18,19
 560.50390625 360 560.50390625 360 599.005859375 310.877929688 c 0,20,21
 636.557617188 262.96875 636.557617188 262.96875 636.557617188 172.012695312 c 128,-1,22
 636.557617188 81.029296875 636.557617188 81.029296875 598.973632812 33.5947265625 c 0,23,24
 560.471679688 -15 560.471679688 -15 491.3828125 -15 c 0,25,26
 468.560546875 -15 468.560546875 -15 448.600585938 -9.427734375 c 128,-1,27
 428.639648438 -4.0029296875 428.639648438 -4.0029296875 411.770507812 6.826171875 c 128,-1,28
 394.901367188 17.65625 394.901367188 17.65625 381.5 33.72265625 c 0,29,12
 361.469726562 57.736328125 361.469726562 57.736328125 351.709960938 92.33984375 c 128,-1,13
518.913085938 135.104492188 m 128,-1,31
 521.900390625 150.34765625 521.900390625 150.34765625 521.900390625 172.092773438 c 0,32,33
 521.900390625 215.609375 521.900390625 215.609375 510.606445312 233.643554688 c 0,34,35
 500.989257812 249 500.989257812 249 490.330078125 249 c 0,36,37
 485.463867188 249 485.463867188 249 480.939453125 245.807617188 c 128,-1,38
 476.4140625 242.615234375 476.4140625 242.615234375 471.85546875 234.489257812 c 128,-1,39
 467.212890625 226.212890625 467.212890625 226.212890625 464.564453125 210.321289062 c 128,-1,40
 461.916992188 194.428710938 461.916992188 194.428710938 461.916992188 172.092773438 c 0,41,42
 461.916992188 150.248046875 461.916992188 150.248046875 464.438476562 134.802734375 c 128,-1,43
 466.961914062 119.357421875 466.961914062 119.357421875 471.329101562 111.573242188 c 0,44,45
 478.943359375 98 478.943359375 98 490.330078125 98 c 0,46,47
 491.70703125 98 491.70703125 98 493.026367188 98.201171875 c 128,-1,48
 494.346679688 98.40234375 494.346679688 98.40234375 495.788085938 98.875 c 128,-1,49
 497.229492188 99.34765625 497.229492188 99.34765625 498.62890625 100.088867188 c 128,-1,50
 500.028320312 100.830078125 500.028320312 100.830078125 501.5390625 101.951171875 c 128,-1,51
 503.049804688 103.072265625 503.049804688 103.072265625 504.536132812 104.526367188 c 128,-1,52
 506.020507812 105.98046875 506.020507812 105.98046875 507.608398438 107.920898438 c 128,-1,53
 509.1953125 109.862304688 509.1953125 109.862304688 510.771484375 112.204101562 c 0,54,30
 515.926757812 119.861328125 515.926757812 119.861328125 518.913085938 135.104492188 c 128,-1,31
33.00390625 523.763671875 m 128,-1,56
 31.5576171875 540.026367188 31.5576171875 540.026367188 31.5576171875 557.987304688 c 0,57,58
 31.5576171875 648.91796875 31.5576171875 648.91796875 68.5673828125 696.818359375 c 0,59,60
 106.568359375 746 106.568359375 746 174.627929688 746 c 0,61,62
 210.466796875 746 210.466796875 746 238.896484375 733.640625 c 128,-1,63
 267.326171875 721.28125 267.326171875 721.28125 287.216796875 696.818359375 c 0,64,65
 306.939453125 672.563476562 306.939453125 672.563476562 316.551757812 637.848632812 c 128,-1,66
 326.165039062 603.134765625 326.165039062 603.134765625 326.165039062 557.987304688 c 0,67,68
 326.165039062 467.046875 326.165039062 467.046875 286.680664062 418.655273438 c 0,69,70
 246.165039062 369 246.165039062 369 174.627929688 369 c 0,71,72
 140.798828125 369 140.798828125 369 114.283203125 381.525390625 c 0,73,74
 88.15625 394.049804688 88.15625 394.049804688 69.078125 418.655273438 c 0,75,76
 61.4384765625 428.508789062 61.4384765625 428.508789062 55.3662109375 440.083007812 c 128,-1,77
 49.2939453125 451.657226562 49.2939453125 451.657226562 44.830078125 464.763671875 c 128,-1,78
 40.365234375 477.870117188 40.365234375 477.870117188 37.408203125 492.685546875 c 128,-1,55
 34.451171875 507.500976562 34.451171875 507.500976562 33.00390625 523.763671875 c 128,-1,56
193.336914062 497.436523438 m 0,79,80
 204.09375 514.525390625 204.09375 514.525390625 204.09375 558.03125 c 128,-1,81
 204.09375 601.587890625 204.09375 601.587890625 193.284179688 619.178710938 c 0,82,83
 184.178710938 634 184.178710938 634 174.627929688 634 c 0,84,85
 164.158203125 634 164.158203125 634 155.537109375 619.331054688 c 0,86,87
 145.162109375 601.6796875 145.162109375 601.6796875 145.162109375 558.03125 c 0,88,89
 145.162109375 543.349609375 145.162109375 543.349609375 146.416015625 531.234375 c 128,-1,90
 147.669921875 519.120117188 147.669921875 519.120117188 149.849609375 510.752929688 c 128,-1,91
 152.030273438 502.38671875 152.030273438 502.38671875 155.0546875 497.123046875 c 0,92,93
 163.171875 483 163.171875 483 174.627929688 483 c 0,94,95
 184.25 483 184.25 483 193.336914062 497.436523438 c 0,79,80
EndSplineSet
EndChar

StartChar: ampersand
Encoding: 38 38 9
Width: 550
VWidth: 1177
Flags: W
LayerCount: 2
Fore
SplineSet
394.659179688 -3.5712890625 m 2,0,1
 384.510742188 22.97265625 384.510742188 22.97265625 372.888671875 46.2626953125 c 1,2,3
 336.067382812 16.1689453125 336.067382812 16.1689453125 297.400390625 -0.2080078125 c 0,4,5
 286.364257812 -4.8818359375 286.364257812 -4.8818359375 275.389648438 -8.3974609375 c 256,6,7
 264.415039062 -11.912109375 264.415039062 -11.912109375 253.485351562 -14.271484375 c 256,8,9
 242.555664062 -16.630859375 242.555664062 -16.630859375 231.671875 -17.8154296875 c 256,10,11
 220.788085938 -19 220.788085938 -19 210 -19 c 0,12,13
 154.995117188 -19 154.995117188 -19 113.645507812 -1.7275390625 c 256,14,15
 72.2353515625 15.5703125 72.2353515625 15.5703125 44.298828125 44.5615234375 c 256,16,17
 16.302734375 73.61328125 16.302734375 73.61328125 2.580078125 112.14453125 c 0,18,19
 -11 150.272460938 -11 150.272460938 -11 192 c 0,20,21
 -11 251.604492188 -11 251.604492188 18.7705078125 304.877929688 c 0,22,23
 27.92578125 321.26171875 27.92578125 321.26171875 40.2841796875 336.3046875 c 256,24,25
 52.642578125 351.348632812 52.642578125 351.348632812 67.5107421875 364.447265625 c 256,26,27
 82.37890625 377.544921875 82.37890625 377.544921875 99.765625 388.881835938 c 1,28,29
 75.04296875 425.1171875 75.04296875 425.1171875 58.3310546875 463.508789062 c 0,30,31
 39 507.91796875 39 507.91796875 39 556 c 0,32,33
 39 580.47265625 39 580.47265625 43.3369140625 602.291015625 c 256,34,35
 47.6748046875 624.109375 47.6748046875 624.109375 56.4091796875 643.166992188 c 256,36,37
 65.08203125 662.088867188 65.08203125 662.088867188 76.7431640625 677.857421875 c 256,38,39
 88.404296875 693.625976562 88.404296875 693.625976562 103.00390625 706.102539062 c 0,40,41
 131.899414062 730.794921875 131.899414062 730.794921875 167.127929688 743.4140625 c 256,42,43
 202.262695312 756 202.262695312 756 239 756 c 0,44,45
 273.670898438 756 273.670898438 756 307.250976562 744.45703125 c 0,46,47
 324.075195312 738.673828125 324.075195312 738.673828125 339.015625 730.34375 c 256,48,49
 353.95703125 722.013671875 353.95703125 722.013671875 366.916992188 711.168945312 c 0,50,51
 393.013671875 689.333984375 393.013671875 689.333984375 409.444335938 656.471679688 c 0,52,53
 417.752929688 639.85546875 417.752929688 639.85546875 421.875976562 620.700195312 c 256,54,55
 426 601.544921875 426 601.544921875 426 580 c 0,56,57
 426 550.024414062 426 550.024414062 416.930664062 520.975585938 c 256,58,59
 407.861328125 491.927734375 407.861328125 491.927734375 389.904296875 464.080078125 c 0,60,61
 384.364257812 455.489257812 384.364257812 455.489257812 377.711914062 447.151367188 c 256,62,63
 371.060546875 438.813476562 371.060546875 438.813476562 363.5 430.948242188 c 256,64,65
 355.940429688 423.08203125 355.940429688 423.08203125 347.458007812 415.586914062 c 256,66,67
 338.974609375 408.091796875 338.974609375 408.091796875 329.690429688 401.091796875 c 256,68,69
 320.405273438 394.090820312 320.405273438 394.090820312 310.393554688 387.584960938 c 256,70,71
 300.381835938 381.079101562 300.381835938 381.079101562 289.6796875 375.095703125 c 1,72,73
 300.008789062 363.106445312 300.008789062 363.106445312 310.31640625 351.280273438 c 256,74,75
 320.625 339.453125 320.625 339.453125 331.501953125 327.112304688 c 0,76,77
 351.341796875 304.6015625 351.341796875 304.6015625 371.805664062 281.169921875 c 1,78,79
 383.172851562 334.373046875 383.172851562 334.373046875 384.000976562 403.120117188 c 2,80,-1
 384.135742188 414.299804688 l 1,81,-1
 395.23046875 412.923828125 l 1,82,-1
 516.23046875 397.923828125 l 1,83,-1
 525.134765625 396.8203125 l 1,84,-1
 524.999023438 387.848632812 l 2,85,86
 524.489257812 354.239257812 524.489257812 354.239257812 520.150390625 322.845703125 c 256,87,88
 515.811523438 291.453125 515.811523438 291.453125 507.627929688 262.297851562 c 0,89,90
 500.056640625 235.325195312 500.056640625 235.325195312 490.161132812 210.280273438 c 256,91,92
 480.266601562 185.235351562 480.266601562 185.235351562 468.774414062 163.705078125 c 1,93,94
 495.170898438 126.221679688 495.170898438 126.221679688 516.291015625 87.2666015625 c 0,95,96
 539.298828125 44.830078125 539.298828125 44.830078125 551.59765625 2.80859375 c 2,97,-1
 555.346679688 -10 l 1,98,-1
 542 -10 l 1,99,-1
 404 -10 l 1,100,-1
 397.1171875 -10 l 1,101,-1
 394.659179688 -3.5712890625 l 2,0,1
304.658203125 147.591796875 m 1,102,103
 274.375 184.81640625 274.375 184.81640625 242.104492188 220.268554688 c 0,104,105
 210.025390625 255.510742188 210.025390625 255.510742188 178.596679688 290.577148438 c 1,106,107
 171.486328125 284.98828125 171.486328125 284.98828125 165.7890625 279.459960938 c 256,108,109
 160.090820312 273.932617188 160.090820312 273.932617188 155.431640625 268.169921875 c 256,110,111
 150.772460938 262.40625 150.772460938 262.40625 146.422851562 255.609375 c 0,112,113
 132 233.07421875 132 233.07421875 132 199 c 0,114,115
 132 193.669921875 132 193.669921875 132.393554688 188.5703125 c 256,116,117
 132.787109375 183.470703125 132.787109375 183.470703125 133.571289062 178.609375 c 256,118,119
 134.354492188 173.749023438 134.354492188 173.749023438 135.532226562 169.1015625 c 256,120,121
 136.709960938 164.453125 136.709960938 164.453125 138.272460938 160.032226562 c 256,122,123
 139.833984375 155.611328125 139.833984375 155.611328125 141.790039062 151.384765625 c 256,124,125
 143.747070312 147.158203125 143.747070312 147.158203125 146.08203125 143.146484375 c 256,126,127
 148.416992188 139.134765625 148.416992188 139.134765625 151.146484375 135.298828125 c 0,128,129
 169.15625 110 169.15625 110 213 110 c 0,130,131
 238.124023438 110 238.124023438 110 263.375976562 119.8203125 c 0,132,133
 284.6796875 128.104492188 284.6796875 128.104492188 304.658203125 147.591796875 c 1,102,103
184 563 m 0,134,135
 184 538.909179688 184 538.909179688 193.796875 514.18359375 c 0,136,137
 196.549804688 507.235351562 196.549804688 507.235351562 200.346679688 499.41796875 c 256,138,139
 204.143554688 491.600585938 204.143554688 491.600585938 208.405273438 483.999023438 c 256,140,141
 212.666992188 476.397460938 212.666992188 476.397460938 217.116210938 469.440429688 c 1,142,143
 246.959960938 488.3359375 246.959960938 488.3359375 263.317382812 516.9609375 c 0,144,145
 282 549.655273438 282 549.655273438 282 578 c 0,146,147
 282 605.142578125 282 605.142578125 270.08984375 618.28515625 c 0,148,149
 258.567382812 631 258.567382812 631 239 631 c 0,150,151
 232.65625 631 232.65625 631 227.09765625 629.971679688 c 256,152,153
 221.538085938 628.943359375 221.538085938 628.943359375 216.642578125 626.850585938 c 256,154,155
 211.747070312 624.7578125 211.747070312 624.7578125 207.4921875 621.647460938 c 256,156,157
 203.237304688 618.537109375 203.237304688 618.537109375 199.432617188 614.310546875 c 0,158,159
 191.897460938 605.9375 191.897460938 605.9375 187.948242188 593.216796875 c 256,160,161
 184 580.497070312 184 580.497070312 184 563 c 0,134,135
EndSplineSet
EndChar

StartChar: quotesingle
Encoding: 39 39 10
Width: 550
VWidth: 1177
Flags: W
LayerCount: 2
Fore
SplineSet
363 800 m 1,0,-1
 363 722 l 2,1,2
 363 716.099609375 363 716.099609375 362.877929688 709.9609375 c 256,3,4
 362.755859375 703.823242188 362.755859375 703.823242188 362.512695312 697.458007812 c 256,5,6
 362.26953125 691.09375 362.26953125 691.09375 361.905273438 684.48828125 c 256,7,8
 361.540039062 677.883789062 361.540039062 677.883789062 361.0546875 671.051757812 c 256,9,10
 360.5703125 664.220703125 360.5703125 664.220703125 359.963867188 657.145507812 c 0,11,12
 356.940429688 621.881835938 356.940429688 621.881835938 351.907226562 585.142578125 c 256,13,14
 346.887695312 548.5 346.887695312 548.5 340.864257812 512.356445312 c 256,15,16
 334.837890625 476.197265625 334.837890625 476.197265625 328.805664062 446.0390625 c 2,17,-1
 327.198242188 438 l 1,18,-1
 319 438 l 1,19,-1
 234 438 l 1,20,-1
 225.75 438 l 1,21,-1
 224.182617188 446.099609375 l 2,22,23
 218.146484375 477.284179688 218.146484375 477.284179688 212.618164062 512.96875 c 256,24,25
 207.114257812 548.490234375 207.114257812 548.490234375 201.611328125 585.009765625 c 0,26,27
 196.076171875 621.745117188 196.076171875 621.745117188 192.549804688 657.004882812 c 0,28,29
 189 692.500976562 189 692.500976562 189 722 c 2,30,-1
 189 800 l 1,31,-1
 189 810 l 1,32,-1
 199 810 l 1,33,-1
 353 810 l 1,34,-1
 363 810 l 1,35,-1
 363 800 l 1,0,-1
EndSplineSet
EndChar

StartChar: parenleft
Encoding: 40 40 11
Width: 550
VWidth: 1177
Flags: W
LayerCount: 2
Fore
SplineSet
234 313 m 0,0,1
 234 241.713867188 234 241.713867188 249.655273438 180.19140625 c 256,2,3
 265.311523438 118.669921875 265.311523438 118.669921875 296.571289062 66.650390625 c 0,4,5
 317.473632812 31.8681640625 317.473632812 31.8681640625 343.671875 1.5302734375 c 256,6,7
 369.87109375 -28.806640625 369.87109375 -28.806640625 401.458984375 -54.78125 c 256,8,9
 433.046875 -80.755859375 433.046875 -80.755859375 470.043945312 -102.365234375 c 2,10,-1
 479.75 -108.034179688 l 1,11,-1
 472.989257812 -117.014648438 l 1,12,-1
 405.989257812 -206.014648438 l 1,13,-1
 400.776367188 -212.939453125 l 1,14,-1
 393.180664062 -208.76171875 l 2,15,16
 230.67578125 -119.383789062 230.67578125 -119.383789062 155.27734375 15.1103515625 c 0,17,18
 80 149.387695312 80 149.387695312 80 313 c 0,19,20
 80 478.619140625 80 478.619140625 157.784179688 616.90234375 c 0,21,22
 235.682617188 755.387695312 235.682617188 755.387695312 398.180664062 844.76171875 c 2,23,-1
 405.776367188 848.939453125 l 1,24,-1
 410.989257812 842.014648438 l 1,25,-1
 477.989257812 753.014648438 l 1,26,-1
 484.75 744.034179688 l 1,27,-1
 475.043945312 738.365234375 l 2,28,29
 419.588867188 705.975585938 419.588867188 705.975585938 375.643554688 662.642578125 c 256,30,31
 331.698242188 619.309570312 331.698242188 619.309570312 299.078125 564.860351562 c 0,32,33
 234 456.233398438 234 456.233398438 234 313 c 0,0,1
EndSplineSet
Substitution2: "'case' Case-Sensitive Forms lookup 17 subtable" Parenleft
EndChar

StartChar: parenright
Encoding: 41 41 12
Width: 550
VWidth: 1177
Flags: W
LayerCount: 2
Fore
SplineSet
317.75 313 m 0,0,1
 317.75 456.233398438 317.75 456.233398438 252.671875 564.860351562 c 256,2,3
 187.490234375 673.659179688 187.490234375 673.659179688 76.7060546875 738.365234375 c 2,4,-1
 67 744.034179688 l 1,5,-1
 73.7607421875 753.014648438 l 1,6,-1
 140.760742188 842.014648438 l 1,7,-1
 145.973632812 848.939453125 l 1,8,-1
 153.569335938 844.76171875 l 2,9,10
 316.0546875 755.395507812 316.0546875 755.395507812 394.452148438 616.926757812 c 256,11,12
 472.75 478.634765625 472.75 478.634765625 472.75 313 c 0,13,14
 472.75 149.373046875 472.75 149.373046875 396.958984375 15.0849609375 c 256,15,16
 321.060546875 -119.391601562 321.060546875 -119.391601562 158.569335938 -208.76171875 c 2,17,-1
 150.973632812 -212.939453125 l 1,18,-1
 145.760742188 -206.014648438 l 1,19,-1
 78.7607421875 -117.014648438 l 1,20,-1
 72 -108.034179688 l 1,21,-1
 81.7060546875 -102.365234375 l 2,22,23
 192.497070312 -37.6552734375 192.497070312 -37.6552734375 255.178710938 66.650390625 c 256,24,25
 317.75 170.7734375 317.75 170.7734375 317.75 313 c 0,0,1
EndSplineSet
Substitution2: "'case' Case-Sensitive Forms lookup 17 subtable" Parenright
EndChar

StartChar: asterisk
Encoding: 42 42 13
Width: 550
VWidth: 1177
Flags: W
LayerCount: 2
Fore
SplineSet
276.805664062 407.818359375 m 1,0,1
 276.046875 405.565429688 276.046875 405.565429688 275.262695312 403.268554688 c 0,2,3
 268.21484375 382.629882812 268.21484375 382.629882812 260.662109375 362.48828125 c 0,4,5
 252.958007812 341.944335938 252.958007812 341.944335938 243.69140625 323.926757812 c 0,6,7
 240.616210938 317.947265625 240.616210938 317.947265625 237.66015625 312.600585938 c 256,8,9
 234.703125 307.25390625 234.703125 307.25390625 231.810546875 302.453125 c 256,10,11
 228.918945312 297.65234375 228.918945312 297.65234375 226.119140625 293.453125 c 0,12,-1
 225.765625 292.956054688 l 1,13,-1
 203.765625 263.956054688 l 1,14,-1
 197.903320312 256.228515625 l 1,15,-1
 190 261.852539062 l 1,16,-1
 79 340.852539062 l 1,17,-1
 70.6015625 346.831054688 l 1,18,-1
 76.83203125 355.043945312 l 1,19,-1
 98.62890625 383.776367188 l 2,20,21
 107.600585938 396.9609375 107.600585938 396.9609375 122.975585938 411.310546875 c 0,22,23
 138.09765625 425.423828125 138.09765625 425.423828125 154.213867188 439.525390625 c 0,24,25
 162.344726562 446.640625 162.344726562 446.640625 170.606445312 453.376953125 c 256,26,27
 178.868164062 460.11328125 178.868164062 460.11328125 187.259765625 466.470703125 c 0,28,29
 188.720703125 467.577148438 188.720703125 467.577148438 190.603515625 469 c 2,30,-1
 185.298828125 469 l 2,31,32
 180.052734375 469 180.052734375 469 174.775390625 469.127929688 c 256,33,34
 169.498046875 469.255859375 169.498046875 469.255859375 164.192382812 469.51171875 c 256,35,36
 158.885742188 469.767578125 158.885742188 469.767578125 153.55078125 470.150390625 c 256,37,38
 148.215820312 470.534179688 148.215820312 470.534179688 142.850585938 471.044921875 c 256,39,40
 137.509765625 471.553710938 137.509765625 471.553710938 132.19921875 472.158203125 c 256,41,42
 126.889648438 472.76171875 126.889648438 472.76171875 121.610351562 473.461914062 c 256,43,44
 116.331054688 474.161132812 116.331054688 474.161132812 111.08203125 474.95703125 c 256,45,46
 105.833007812 475.751953125 105.833007812 475.751953125 100.616210938 476.642578125 c 0,47,48
 90.4130859375 478.384765625 90.4130859375 478.384765625 81.51171875 480.728515625 c 256,49,50
 72.611328125 483.073242188 72.611328125 483.073242188 66.412109375 485.578125 c 2,51,-1
 30.876953125 496.436523438 l 1,52,-1
 21 499.454101562 l 1,53,-1
 24.333984375 509.228515625 l 1,54,-1
 68.333984375 638.228515625 l 1,55,-1
 71.4853515625 647.466796875 l 1,56,-1
 80.796875 644.540039062 l 1,57,-1
 115.796875 633.540039062 l 1,58,-1
 116.095703125 633.446289062 l 1,59,-1
 116.388671875 633.333007812 l 2,60,61
 129.997070312 628.099609375 129.997070312 628.099609375 148.069335938 618.288085938 c 256,62,63
 165.96875 608.572265625 165.96875 608.572265625 184.345703125 596.3203125 c 0,64,65
 202.452148438 584.249023438 202.452148438 584.249023438 219.565429688 572.169921875 c 2,66,-1
 223.541992188 569.35546875 l 2,67,68
 222.759765625 571.874023438 222.759765625 571.874023438 222.241210938 573.559570312 c 0,69,70
 216.145507812 593.369140625 216.145507812 593.369140625 211.0703125 614.68359375 c 256,71,72
 206.000976562 635.978515625 206.000976562 635.978515625 202.448242188 656.276367188 c 0,73,74
 200.629882812 666.666992188 200.629882812 666.666992188 199.71484375 675.822265625 c 256,75,76
 198.798828125 684.977539062 198.798828125 684.977539062 198.798828125 693 c 2,77,-1
 198.798828125 729 l 1,78,-1
 198.798828125 739 l 1,79,-1
 208.798828125 739 l 1,80,-1
 344.798828125 739 l 1,81,-1
 354.798828125 739 l 1,82,-1
 354.798828125 729 l 1,83,-1
 354.798828125 693 l 2,84,85
 354.798828125 678.15234375 354.798828125 678.15234375 351.15625 656.817382812 c 0,86,87
 350.262695312 651.581054688 350.262695312 651.581054688 349.241210938 646.315429688 c 256,88,89
 348.219726562 641.048828125 348.219726562 641.048828125 347.071289062 635.754882812 c 256,90,91
 345.923828125 630.4609375 345.923828125 630.4609375 344.6484375 625.139648438 c 256,92,93
 343.374023438 619.818359375 343.374023438 619.818359375 341.97265625 614.466796875 c 0,94,95
 336.418945312 593.26171875 336.418945312 593.26171875 330.356445312 573.559570312 c 0,96,97
 329.4921875 570.75 329.4921875 570.75 328.557617188 567.765625 c 2,98,-1
 333.643554688 571.247070312 l 2,99,100
 351.358398438 583.39453125 351.358398438 583.39453125 369.583984375 594.533203125 c 0,101,102
 378.715820312 600.11328125 378.715820312 600.11328125 387.852539062 605.31640625 c 256,103,104
 396.989257812 610.51953125 396.989257812 610.51953125 406.130859375 615.34375 c 256,105,106
 415.434570312 620.25390625 415.434570312 620.25390625 423.725585938 624.010742188 c 256,107,108
 432.017578125 627.768554688 432.017578125 627.768554688 439.453125 630.423828125 c 2,109,-1
 473.470703125 642.4296875 l 1,110,-1
 483.178710938 645.856445312 l 1,111,-1
 486.321289062 636.052734375 l 1,112,-1
 528.321289062 505.052734375 l 1,113,-1
 531.391601562 495.475585938 l 1,114,-1
 521.796875 492.459960938 l 1,115,-1
 486.98046875 481.517578125 l 2,116,117
 471.295898438 476.206054688 471.295898438 476.206054688 450.793945312 474.049804688 c 0,118,119
 430.76953125 472.046875 430.76953125 472.046875 409.747070312 470.044921875 c 0,120,121
 388.274414062 468 388.274414062 468 366.798828125 468 c 2,122,-1
 362.974609375 468 l 2,123,124
 364.9140625 466.548828125 364.9140625 466.548828125 366.057617188 465.68359375 c 2,125,-1
 366.337890625 465.470703125 l 2,126,127
 382.991210938 452.854492188 382.991210938 452.854492188 399.630859375 439.239257812 c 0,128,129
 405.25390625 434.639648438 405.25390625 434.639648438 410.594726562 429.98046875 c 256,130,131
 415.935546875 425.321289062 415.935546875 425.321289062 421.0078125 420.590820312 c 256,132,133
 426.080078125 415.861328125 426.080078125 415.861328125 430.870117188 411.071289062 c 0,134,135
 445.129882812 396.810546875 445.129882812 396.810546875 453.893554688 383.88671875 c 2,136,-1
 476.633789062 355.213867188 l 1,137,-1
 483.140625 347.009765625 l 1,138,-1
 474.645507812 340.887695312 l 1,139,-1
 363.645507812 260.887695312 l 1,140,-1
 355.551757812 255.053710938 l 1,141,-1
 349.69921875 263.134765625 l 1,142,-1
 328.5859375 292.291992188 l 2,143,144
 320.165039062 304.923828125 320.165039062 304.923828125 310.90625 322.926757812 c 256,145,146
 301.71875 340.791015625 301.71875 340.791015625 293.061523438 361.669921875 c 0,147,148
 291.32421875 365.859375 291.32421875 365.859375 289.689453125 370.029296875 c 256,149,150
 288.053710938 374.19921875 288.053710938 374.19921875 286.518554688 378.354492188 c 256,151,152
 284.983398438 382.509765625 284.983398438 382.509765625 283.549804688 386.645507812 c 256,153,154
 282.1171875 390.78125 282.1171875 390.78125 280.784179688 394.903320312 c 256,155,156
 279.451171875 399.024414062 279.451171875 399.024414062 278.220703125 403.126953125 c 0,157,158
 277.939453125 404.063476562 277.939453125 404.063476562 277.438476562 405.72265625 c 256,159,160
 276.938476562 407.381835938 276.938476562 407.381835938 276.805664062 407.818359375 c 1,0,1
EndSplineSet
EndChar

StartChar: plus
Encoding: 43 43 14
Width: 550
VWidth: 1177
Flags: W
LayerCount: 2
Fore
SplineSet
27 379 m 1,0,-1
 202 379 l 1,1,-1
 202 574 l 1,2,-1
 202 584 l 1,3,-1
 212 584 l 1,4,-1
 337 584 l 1,5,-1
 347 584 l 1,6,-1
 347 574 l 1,7,-1
 347 379 l 1,8,-1
 522 379 l 1,9,-1
 532 379 l 1,10,-1
 532 369 l 1,11,-1
 532 250 l 1,12,-1
 532 240 l 1,13,-1
 522 240 l 1,14,-1
 347 240 l 1,15,-1
 347 45 l 1,16,-1
 347 35 l 1,17,-1
 337 35 l 1,18,-1
 212 35 l 1,19,-1
 202 35 l 1,20,-1
 202 45 l 1,21,-1
 202 240 l 1,22,-1
 27 240 l 1,23,-1
 17 240 l 1,24,-1
 17 250 l 1,25,-1
 17 369 l 1,26,-1
 17 379 l 1,27,-1
 27 379 l 1,0,-1
EndSplineSet
EndChar

StartChar: comma
Encoding: 44 44 15
Width: 550
VWidth: 1177
Flags: W
LayerCount: 2
Fore
SplineSet
128.399414062 -76.271484375 m 2,0,1
 149.76953125 -71.18359375 149.76953125 -71.18359375 172.14453125 -67.6240234375 c 0,2,3
 193.21875 -64.271484375 193.21875 -64.271484375 211.836914062 -57.587890625 c 0,4,5
 229.657226562 -51.19140625 229.657226562 -51.19140625 243.790039062 -39.337890625 c 0,6,7
 252.908203125 -31.6904296875 252.908203125 -31.6904296875 259.859375 -19.765625 c 1,8,9
 220.3046875 -11.251953125 220.3046875 -11.251953125 197.419921875 17.2373046875 c 0,10,11
 184.169921875 33.732421875 184.169921875 33.732421875 177.443359375 52.5390625 c 256,12,13
 170.715820312 71.345703125 170.715820312 71.345703125 170.715820312 92 c 0,14,15
 170.715820312 142.19140625 170.715820312 142.19140625 203.704101562 174.629882812 c 256,16,17
 236.623046875 207 236.623046875 207 286.715820312 207 c 0,18,19
 313.110351562 207 313.110351562 207 334.509765625 197.829101562 c 256,20,21
 355.909179688 188.657226562 355.909179688 188.657226562 371.340820312 170.469726562 c 0,22,23
 401.715820312 134.670898438 401.715820312 134.670898438 401.715820312 74 c 0,24,25
 401.715820312 59.8125 401.715820312 59.8125 400.21484375 45.6162109375 c 256,26,27
 398.712890625 31.4208984375 398.712890625 31.4208984375 395.720703125 17.2646484375 c 256,28,29
 392.728515625 3.109375 392.728515625 3.109375 388.248046875 -11.0224609375 c 0,30,31
 374.669921875 -53.845703125 374.669921875 -53.845703125 344.459960938 -90.826171875 c 256,32,33
 314.271484375 -127.78125 314.271484375 -127.78125 266.63671875 -154.706054688 c 256,34,35
 218.899414062 -181.6875 218.899414062 -181.6875 150.918945312 -189.927734375 c 2,36,-1
 141.745117188 -191.0390625 l 1,37,-1
 139.9140625 -181.981445312 l 1,38,-1
 120.9140625 -87.9814453125 l 1,39,-1
 119 -78.509765625 l 1,40,-1
 128.399414062 -76.271484375 l 2,0,1
EndSplineSet
EndChar

StartChar: hyphen
Encoding: 45 45 16
Width: 550
VWidth: 1177
Flags: W
LayerCount: 2
Fore
SplineSet
66 383 m 1,0,-1
 483 383 l 1,1,-1
 493 383 l 1,2,-1
 493 373 l 1,3,-1
 493 231 l 1,4,-1
 493 221 l 1,5,-1
 483 221 l 1,6,-1
 66 221 l 1,7,-1
 56 221 l 1,8,-1
 56 231 l 1,9,-1
 56 373 l 1,10,-1
 56 383 l 1,11,-1
 66 383 l 1,0,-1
EndSplineSet
Substitution2: "'case' Case-Sensitive Forms lookup 17 subtable" Hyphen
EndChar

StartChar: period
Encoding: 46 46 17
Width: 550
VWidth: 1177
Flags: W
LayerCount: 2
Fore
SplineSet
390 93 m 0,0,1
 390 36.400390625 390 36.400390625 355.0078125 6.4072265625 c 0,2,3
 320.69921875 -23 320.69921875 -23 276 -23 c 0,4,5
 253.216796875 -23 253.216796875 -23 232.54296875 -15.3837890625 c 256,6,7
 211.739257812 -7.71875 211.739257812 -7.71875 195.310546875 7.0673828125 c 0,8,9
 189.776367188 12.0478515625 189.776367188 12.0478515625 185.024414062 17.7919921875 c 256,10,11
 180.272460938 23.5361328125 180.272460938 23.5361328125 176.352539062 29.96484375 c 256,12,13
 172.432617188 36.392578125 172.432617188 36.392578125 169.333007812 43.50390625 c 0,14,15
 164.62890625 54.2958984375 164.62890625 54.2958984375 162.314453125 66.685546875 c 256,16,17
 160 79.0751953125 160 79.0751953125 160 93 c 0,18,19
 160 120.084960938 160 120.084960938 169.333007812 141.49609375 c 256,20,21
 178.73828125 163.073242188 178.73828125 163.073242188 195.451171875 177.556640625 c 0,22,23
 211.795898438 191.72265625 211.795898438 191.72265625 231.9609375 199.352539062 c 256,24,25
 252.170898438 207 252.170898438 207 276 207 c 0,26,27
 298.227539062 207 298.227539062 207 318.141601562 199.446289062 c 256,28,29
 338.0546875 191.893554688 338.0546875 191.893554688 355.076171875 177.033203125 c 0,30,31
 372.506835938 161.81640625 372.506835938 161.81640625 381.252929688 140.575195312 c 256,32,33
 390 119.333984375 390 119.333984375 390 93 c 0,0,1
EndSplineSet
EndChar

StartChar: slash
Encoding: 47 47 18
Width: 550
VWidth: 1177
Flags: W
LayerCount: 2
Fore
SplineSet
186.7578125 -204 m 1,0,-1
 35.7578125 -204 l 1,1,-1
 22 -204 l 1,2,-1
 26.24609375 -190.9140625 l 1,3,-1
 356.24609375 826.0859375 l 1,4,-1
 358.489257812 833 l 1,5,-1
 365.7578125 833 l 1,6,-1
 514.7578125 833 l 1,7,-1
 528.490234375 833 l 1,8,-1
 524.275390625 819.930664062 l 1,9,-1
 196.275390625 -197.069335938 l 1,10,-1
 194.040039062 -204 l 1,11,-1
 186.7578125 -204 l 1,0,-1
EndSplineSet
Substitution2: "'case' Case-Sensitive Forms lookup 17 subtable" Slash
Substitution2: "'ss02' Style Set 2 lookup 14 subtable" fraction
Substitution2: "'frac' Diagonal Fractions lookup 12 subtable" fraction
EndChar

StartChar: zero
Encoding: 48 48 19
Width: 550
VWidth: 1177
Flags: W
LayerCount: 2
Fore
SplineSet
531.447265625 531.775390625 m 128,-1,1
 548 460.7890625 548 460.7890625 548 365.987304688 c 0,2,3
 548 174.888671875 548 174.888671875 481.224609375 80.794921875 c 0,4,5
 447.369140625 33.0869140625 447.369140625 33.0869140625 395.6484375 9.0439453125 c 0,6,7
 342.577148438 -15 342.577148438 -15 273.96484375 -15 c 0,8,9
 135.69140625 -15 135.69140625 -15 67.2548828125 80.82421875 c 0,10,11
 33.841796875 128.270507812 33.841796875 128.270507812 17.4208984375 199.486328125 c 128,-1,12
 1 270.702148438 1 270.702148438 1 365.987304688 c 0,13,14
 1 555.162109375 1 555.162109375 68.8017578125 649.754882812 c 0,15,16
 138.95703125 746 138.95703125 746 273.96484375 746 c 0,17,18
 342.577148438 746 342.577148438 746 395.6484375 721.95703125 c 0,19,20
 447.368164062 697.9140625 447.368164062 697.9140625 481.224609375 650.205078125 c 0,21,0
 514.893554688 602.76171875 514.893554688 602.76171875 531.447265625 531.775390625 c 128,-1,1
362.21484375 186.948242188 m 0,22,23
 394.83984375 247.32421875 394.83984375 247.32421875 394.83984375 366 c 0,24,25
 394.83984375 483.762695312 394.83984375 483.762695312 362.70703125 544.65234375 c 0,26,27
 332.443359375 602 332.443359375 602 273.96484375 602 c 0,28,29
 217.579101562 602 217.579101562 602 186.797851562 544.598632812 c 0,30,31
 154.16015625 483.731445312 154.16015625 483.731445312 154.16015625 366 c 0,32,33
 154.16015625 247.35546875 154.16015625 247.35546875 187.290039062 187.001953125 c 0,34,35
 218.580078125 130 218.580078125 130 273.96484375 130 c 0,36,37
 331.443359375 130 331.443359375 130 362.21484375 186.948242188 c 0,22,23
333.801757812 439.581054688 m 0,38,39
 355.26171875 413.389648438 355.26171875 413.389648438 355.26171875 378 c 128,-1,40
 355.26171875 342.551757812 355.26171875 342.551757812 333.733398438 316.836914062 c 0,41,42
 311.267578125 290 311.267578125 290 276.104492188 290 c 0,43,44
 257.315429688 290 257.315429688 290 241.92578125 296.822265625 c 128,-1,45
 226.536132812 303.64453125 226.536132812 303.64453125 215.711914062 316.944335938 c 0,46,47
 205.278320312 329.763671875 205.278320312 329.763671875 200.043945312 345.14453125 c 128,-1,48
 194.80859375 360.525390625 194.80859375 360.525390625 194.80859375 378 c 128,-1,49
 194.80859375 395.462890625 194.80859375 395.462890625 200.029296875 410.943359375 c 128,-1,50
 205.250976562 426.423828125 205.250976562 426.423828125 215.645507812 439.47265625 c 0,51,52
 226.452148438 453.038085938 226.452148438 453.038085938 241.862304688 460.01953125 c 128,-1,53
 257.272460938 467 257.272460938 467 276.104492188 467 c 0,54,55
 311.3359375 467 311.3359375 467 333.801757812 439.581054688 c 0,38,39
EndSplineSet
Substitution2: "'ss02' Style Set 2 lookup 15 subtable" zerosuperior
Substitution2: "'sinf' Scientific Inferiors lookup 11 subtable" zero.sinf
Substitution2: "'subs' Subscript lookup 10 subtable" zero.sinf
Substitution2: "'sups' Superscript lookup 9 subtable" zero.sups
Substitution2: "'dnom' Denominators lookup 8 subtable" zeroinferior
Substitution2: "'numr' Numerators lookup 6 subtable" zerosuperior
EndChar

StartChar: one
Encoding: 49 49 20
Width: 550
VWidth: 1177
Flags: W
LayerCount: 2
Fore
SplineSet
66.9541015625 120 m 1,0,-1
 215.719726562 120 l 1,1,-1
 215.719726562 499.041992188 l 1,2,3
 209.39453125 495.264648438 209.39453125 495.264648438 203.05859375 491.767578125 c 128,-1,4
 196.72265625 488.270507812 196.72265625 488.270507812 190.295898438 485.005859375 c 128,-1,5
 183.869140625 481.741210938 183.869140625 481.741210938 177.205078125 478.640625 c 128,-1,6
 170.540039062 475.540039062 170.540039062 475.540039062 163.682617188 472.608398438 c 128,-1,7
 156.82421875 469.67578125 156.82421875 469.67578125 149.504882812 466.791992188 c 0,8,9
 105.678710938 448.717773438 105.678710938 448.717773438 76.5009765625 437.650390625 c 2,10,-1
 67.2509765625 434.141601562 l 1,11,-1
 63.6435546875 443.353515625 l 1,12,-1
 16.6435546875 563.353515625 l 1,13,-1
 13 572.654296875 l 1,14,-1
 22.2978515625 576.307617188 l 2,15,16
 49.8818359375 587.14453125 49.8818359375 587.14453125 82.482421875 603.444335938 c 0,17,18
 98.796875 611.6015625 98.796875 611.6015625 115.119140625 620.627929688 c 128,-1,19
 131.44140625 629.655273438 131.44140625 629.655273438 148.877929688 639.551757812 c 0,20,21
 183.859375 659.275390625 183.859375 659.275390625 215.112304688 681.451171875 c 0,22,23
 246.055664062 703.40625 246.055664062 703.40625 267.9765625 725.743164062 c 2,24,-1
 271.174804688 729 l 1,25,-1
 275.915039062 729 l 1,26,-1
 382.33203125 729 l 1,27,-1
 393.081054688 729 l 1,28,-1
 393.081054688 719 l 1,29,-1
 393.081054688 120 l 1,30,-1
 529.954101562 120 l 1,31,-1
 539.954101562 120 l 1,32,-1
 539.954101562 111.538085938 l 1,33,-1
 539.954101562 10 l 1,34,-1
 539.954101562 0 l 1,35,-1
 529.954101562 0 l 1,36,-1
 66.9541015625 0 l 1,37,-1
 56.9541015625 0 l 1,38,-1
 56.9541015625 10 l 1,39,-1
 56.9541015625 111.538085938 l 1,40,-1
 56.9541015625 120 l 1,41,-1
 66.9541015625 120 l 1,0,-1
EndSplineSet
Substitution2: "'ss02' Style Set 2 lookup 15 subtable" onesuperior
Substitution2: "'sinf' Scientific Inferiors lookup 11 subtable" one.sinf
Substitution2: "'subs' Subscript lookup 10 subtable" one.sinf
Substitution2: "'sups' Superscript lookup 9 subtable" one.sups
Substitution2: "'dnom' Denominators lookup 8 subtable" oneinferior
Substitution2: "'numr' Numerators lookup 6 subtable" onesuperior
EndChar

StartChar: two
Encoding: 50 50 21
Width: 550
VWidth: 1177
Flags: W
LayerCount: 2
Fore
SplineSet
489.92578125 622.834960938 m 0,0,1
 509.9140625 581.280273438 509.9140625 581.280273438 509.9140625 527 c 0,2,3
 509.9140625 487.047851562 509.9140625 487.047851562 495.180664062 450.740234375 c 0,4,5
 480.739257812 415.154296875 480.739257812 415.154296875 456.559570312 381.19921875 c 0,6,7
 432.624023438 347.587890625 432.624023438 347.587890625 401.129882812 316.547851562 c 0,8,9
 369.305664062 285.868164062 369.305664062 285.868164062 335.853515625 256.689453125 c 0,10,11
 319.8515625 242.763671875 319.8515625 242.763671875 298.485351562 223.33984375 c 0,12,13
 287.932617188 213.747070312 287.932617188 213.747070312 278.045898438 203.913085938 c 128,-1,14
 268.16015625 194.080078125 268.16015625 194.080078125 258.936523438 184.0078125 c 0,15,16
 240.760742188 164.154296875 240.760742188 164.154296875 227.821289062 143.884765625 c 0,17,18
 219.772460938 131.276367188 219.772460938 131.276367188 217.120117188 120 c 1,19,-1
 532.9140625 120 l 1,20,-1
 542.9140625 120 l 1,21,-1
 542.9140625 111.538085938 l 1,22,-1
 542.9140625 10 l 1,23,-1
 542.9140625 0 l 1,24,-1
 532.9140625 0 l 1,25,-1
 36.9140625 0 l 1,26,-1
 29.70703125 0 l 1,27,-1
 27.427734375 6.837890625 l 2,28,29
 22.8212890625 20.2060546875 22.8212890625 20.2060546875 23.9306640625 38.986328125 c 0,30,31
 24.4189453125 47.2548828125 24.4189453125 47.2548828125 24.6669921875 53.1337890625 c 128,-1,32
 24.9140625 59.0126953125 24.9140625 59.0126953125 24.9140625 62.1357421875 c 0,33,34
 24.9140625 121.263671875 24.9140625 121.263671875 47.7763671875 171.025390625 c 0,35,36
 70.296875 220.043945312 70.296875 220.043945312 104.596679688 261.64453125 c 0,37,38
 139.390625 302.828125 139.390625 302.828125 180.71875 337.653320312 c 0,39,40
 221.37890625 371.916015625 221.37890625 371.916015625 257.196289062 403.741210938 c 0,41,42
 268.973632812 414.206054688 268.973632812 414.206054688 279.399414062 424.45703125 c 128,-1,43
 289.825195312 434.708007812 289.825195312 434.708007812 298.8359375 444.670898438 c 128,-1,44
 307.846679688 454.634765625 307.846679688 454.634765625 315.499023438 464.361328125 c 0,45,46
 337.115234375 491.834960938 337.115234375 491.834960938 337.115234375 519.70703125 c 0,47,48
 337.115234375 558.895507812 337.115234375 558.895507812 311.7578125 579.2265625 c 0,49,50
 285.848632812 600 285.848632812 600 245.954101562 600 c 0,51,52
 211.716796875 600 211.716796875 600 173.006835938 584.327148438 c 0,53,54
 153.76953125 576.5390625 153.76953125 576.5390625 134.514648438 563.25390625 c 0,55,56
 116.053710938 549.96875 116.053710938 549.96875 98.1689453125 531.1171875 c 2,57,-1
 89.759765625 522.25390625 l 1,58,-1
 82.7333984375 532.249023438 l 1,59,-1
 11.7333984375 633.249023438 l 1,60,-1
 7 639.982421875 l 1,61,-1
 12.697265625 645.921875 l 2,62,63
 61.224609375 696.513671875 61.224609375 696.513671875 124.778320312 721.315429688 c 0,64,65
 192.456054688 746 192.456054688 746 260.96875 746 c 0,66,67
 269.272460938 746 269.272460938 746 277.4609375 745.625976562 c 128,-1,68
 285.650390625 745.252929688 285.650390625 745.252929688 293.725585938 744.505859375 c 128,-1,69
 301.801757812 743.7578125 301.801757812 743.7578125 309.76171875 742.635742188 c 128,-1,70
 317.721679688 741.513671875 317.721679688 741.513671875 325.560546875 740.017578125 c 128,-1,71
 333.401367188 738.522460938 333.401367188 738.522460938 341.124023438 736.650390625 c 128,-1,72
 348.84765625 734.778320312 348.84765625 734.778320312 356.444335938 732.532226562 c 0,73,74
 402.3984375 718.946289062 402.3984375 718.946289062 436.780273438 691.711914062 c 0,75,76
 445.083984375 684.858398438 445.083984375 684.858398438 452.573242188 677.1015625 c 128,-1,77
 460.0625 669.345703125 460.0625 669.345703125 466.706054688 660.725585938 c 128,-1,78
 473.348632812 652.10546875 473.348632812 652.10546875 479.155273438 642.631835938 c 128,-1,79
 484.9609375 633.157226562 484.9609375 633.157226562 489.92578125 622.834960938 c 0,0,1
EndSplineSet
Substitution2: "'ss02' Style Set 2 lookup 15 subtable" twosuperior
Substitution2: "'sinf' Scientific Inferiors lookup 11 subtable" two.sinf
Substitution2: "'subs' Subscript lookup 10 subtable" two.sinf
Substitution2: "'sups' Superscript lookup 9 subtable" two.sups
Substitution2: "'dnom' Denominators lookup 8 subtable" twoinferior
Substitution2: "'numr' Numerators lookup 6 subtable" twosuperior
EndChar

StartChar: three
Encoding: 51 51 22
Width: 550
VWidth: 1177
Flags: W
LayerCount: 2
Fore
SplineSet
307.48046875 -10.6494140625 m 128,-1,1
 272.798828125 -15 272.798828125 -15 232.788085938 -15 c 0,2,3
 203.033203125 -15 203.033203125 -15 170.05859375 -10.912109375 c 0,4,5
 159.168945312 -9.5625 159.168945312 -9.5625 148.517578125 -7.9873046875 c 128,-1,6
 137.8671875 -6.412109375 137.8671875 -6.412109375 127.6953125 -4.609375 c 0,7,8
 118.006835938 -2.806640625 118.006835938 -2.806640625 108.540039062 -0.7783203125 c 0,9,10
 80.1572265625 5.3037109375 80.1572265625 5.3037109375 56.28125 12.416015625 c 0,11,12
 32.0947265625 19.6201171875 32.0947265625 19.6201171875 18.4453125 25.919921875 c 2,13,-1
 11 29.3564453125 l 1,14,-1
 12.9111328125 37.3310546875 l 1,15,-1
 41.9111328125 158.331054688 l 1,16,-1
 44.712890625 170.020507812 l 1,17,-1
 55.697265625 165.137695312 l 2,18,19
 82.126953125 153.391601562 82.126953125 153.391601562 124.529296875 140.572265625 c 0,20,21
 168.767578125 128 168.767578125 128 231.711914062 128 c 0,22,23
 306.645507812 128 306.645507812 128 335.725585938 155.360351562 c 0,24,25
 365.083984375 182.982421875 365.083984375 182.982421875 365.083984375 223.8203125 c 0,26,27
 365.083984375 249.091796875 365.083984375 249.091796875 354.341796875 265.774414062 c 128,-1,28
 343.599609375 282.458007812 343.599609375 282.458007812 321.553710938 292.180664062 c 0,29,30
 298.150390625 302.501953125 298.150390625 302.501953125 267.8828125 307.750976562 c 128,-1,31
 237.614257812 313 237.614257812 313 200.520507812 313 c 2,32,-1
 153.1953125 313 l 1,33,-1
 142.439453125 313 l 1,34,-1
 142.439453125 323 l 1,35,-1
 142.439453125 443 l 1,36,-1
 142.439453125 453 l 1,37,-1
 153.1953125 453 l 1,38,-1
 211.276367188 453 l 2,39,40
 233.874023438 453 233.874023438 453 257.030273438 457.03515625 c 0,41,42
 264.547851562 458.344726562 264.547851562 458.344726562 271.471679688 460.227539062 c 128,-1,43
 278.395507812 462.110351562 278.395507812 462.110351562 284.657226562 464.532226562 c 128,-1,44
 290.91796875 466.953125 290.91796875 466.953125 296.62890625 469.938476562 c 0,45,46
 304.9765625 474.301757812 304.9765625 474.301757812 311.859375 480.1953125 c 128,-1,47
 318.741210938 486.087890625 318.741210938 486.087890625 324.291015625 493.655273438 c 0,48,49
 329.5546875 500.833984375 329.5546875 500.833984375 332.260742188 510.061523438 c 128,-1,50
 334.967773438 519.288085938 334.967773438 519.288085938 334.967773438 530.780273438 c 128,-1,51
 334.967773438 542.23046875 334.967773438 542.23046875 332.358398438 551.817382812 c 128,-1,52
 329.749023438 561.403320312 329.749023438 561.403320312 324.693359375 569.075195312 c 128,-1,53
 319.63671875 576.748046875 319.63671875 576.748046875 312.009765625 582.985351562 c 0,54,55
 300.456054688 592.435546875 300.456054688 592.435546875 284.5859375 597.217773438 c 128,-1,56
 268.715820312 602 268.715820312 602 247.845703125 602 c 0,57,58
 226.666992188 602 226.666992188 602 205.622070312 598.758789062 c 128,-1,59
 184.576171875 595.517578125 184.576171875 595.517578125 163.587890625 589.012695312 c 0,60,61
 122.068359375 575.936523438 122.068359375 575.936523438 93.1826171875 556.6796875 c 2,62,-1
 83.685546875 550.34765625 l 1,63,-1
 78.658203125 560.595703125 l 1,64,-1
 26.658203125 666.595703125 l 1,65,-1
 22.771484375 674.518554688 l 1,66,-1
 30.1494140625 679.360351562 l 2,67,68
 41.1650390625 686.58984375 41.1650390625 686.58984375 54.4375 693.880859375 c 128,-1,69
 67.7099609375 701.172851562 67.7099609375 701.172851562 83.1181640625 708.48046875 c 128,-1,70
 98.52734375 715.787109375 98.52734375 715.787109375 116.270507812 723.22265625 c 0,71,72
 173.620117188 746 173.620117188 746 246.770507812 746 c 0,73,74
 314.162109375 746 314.162109375 746 364.787109375 730.37890625 c 0,75,76
 415.887695312 714.60546875 415.887695312 714.60546875 446.954101562 686.390625 c 0,77,78
 462.540039062 672.235351562 462.540039062 672.235351562 474.083007812 655.302734375 c 128,-1,79
 485.625976562 638.370117188 485.625976562 638.370117188 493.01953125 618.818359375 c 0,80,81
 507.635742188 580.166992188 507.635742188 580.166992188 507.635742188 536.536132812 c 0,82,83
 507.635742188 490.875976562 507.635742188 490.875976562 481.116210938 449.536132812 c 0,84,85
 474.146484375 438.671875 474.146484375 438.671875 465.680664062 428.91015625 c 128,-1,86
 457.21484375 419.1484375 457.21484375 419.1484375 447.821289062 410.995117188 c 128,-1,87
 438.427734375 402.840820312 438.427734375 402.840820312 428.15234375 396.22265625 c 1,88,89
 451.766601562 384.315429688 451.766601562 384.315429688 470.423828125 368.42578125 c 128,-1,90
 489.080078125 352.537109375 489.080078125 352.537109375 502.928710938 332.517578125 c 0,91,92
 519.290039062 308.864257812 519.290039062 308.864257812 527.462890625 280.868164062 c 128,-1,93
 535.635742188 252.872070312 535.635742188 252.872070312 535.635742188 220.879882812 c 0,94,95
 535.635742188 169.368164062 535.635742188 169.368164062 518.458007812 126.26171875 c 0,96,97
 501.108398438 82.724609375 501.108398438 82.724609375 465.373046875 50.9814453125 c 0,98,99
 447.504882812 35.1083984375 447.504882812 35.1083984375 424.806640625 22.908203125 c 0,100,101
 401.086914062 10.7080078125 401.086914062 10.7080078125 371.595703125 2.1396484375 c 128,-1,0
 342.1640625 -6.4111328125 342.1640625 -6.4111328125 307.48046875 -10.6494140625 c 128,-1,1
EndSplineSet
Substitution2: "'ss02' Style Set 2 lookup 15 subtable" threesuperior
Substitution2: "'sinf' Scientific Inferiors lookup 11 subtable" three.sinf
Substitution2: "'subs' Subscript lookup 10 subtable" three.sinf
Substitution2: "'sups' Superscript lookup 9 subtable" three.sups
Substitution2: "'dnom' Denominators lookup 8 subtable" threeinferior
Substitution2: "'numr' Numerators lookup 6 subtable" threesuperior
EndChar

StartChar: four
Encoding: 52 52 23
Width: 550
VWidth: 1177
Flags: W
LayerCount: 2
Fore
SplineSet
307.987304688 301 m 1,0,-1
 307.987304688 518.48828125 l 1,1,2
 294.515625 501.706054688 294.515625 501.706054688 280.924804688 484.125976562 c 0,3,4
 257.10546875 453.315429688 257.10546875 453.315429688 233.80859375 420.010742188 c 128,-1,5
 210.517578125 386.713867188 210.517578125 386.713867188 189.349609375 352.9296875 c 0,6,7
 186.081054688 347.7109375 186.081054688 347.7109375 182.879882812 342.41015625 c 128,-1,8
 179.678710938 337.108398438 179.678710938 337.108398438 176.639648438 331.884765625 c 128,-1,9
 173.600585938 326.662109375 173.600585938 326.662109375 170.673828125 321.438476562 c 128,-1,10
 167.74609375 316.215820312 167.74609375 316.215820312 164.997070312 311.116210938 c 128,-1,11
 162.249023438 306.016601562 162.249023438 306.016601562 159.655273438 301 c 1,12,-1
 307.987304688 301 l 1,0,-1
481 729 m 1,13,-1
 481 719 l 1,14,-1
 481 301 l 1,15,-1
 549 301 l 1,16,-1
 559 301 l 1,17,-1
 559 291 l 1,18,-1
 559 172 l 1,19,-1
 559 162 l 1,20,-1
 549 162 l 1,21,-1
 481 162 l 1,22,-1
 481 10 l 1,23,-1
 481 0 l 1,24,-1
 471 0 l 1,25,-1
 318.638671875 0 l 1,26,-1
 307.987304688 0 l 1,27,-1
 307.987304688 10 l 1,28,-1
 307.987304688 162 l 1,29,-1
 2 162 l 1,30,-1
 -8 162 l 1,31,-1
 -8 171.826171875 l 1,32,-1
 -8 275.979492188 l 1,33,-1
 -8 278.208007812 l 1,34,-1
 -7.021484375 280.21875 l 2,35,36
 15.193359375 325.858398438 15.193359375 325.858398438 50.951171875 383.756835938 c 128,-1,37
 86.6142578125 441.502929688 86.6142578125 441.502929688 130.421875 501.694335938 c 0,38,39
 175.876953125 561.87890625 175.876953125 561.87890625 226.133789062 620.569335938 c 0,40,41
 276.58203125 679.483398438 276.58203125 679.483398438 327.083984375 726.071289062 c 2,42,-1
 330.203125 729 l 1,43,-1
 334.615234375 729 l 1,44,-1
 471 729 l 1,45,-1
 481 729 l 1,13,-1
EndSplineSet
Substitution2: "'ss02' Style Set 2 lookup 15 subtable" foursuperior
Substitution2: "'sinf' Scientific Inferiors lookup 11 subtable" four.sinf
Substitution2: "'subs' Subscript lookup 10 subtable" four.sinf
Substitution2: "'sups' Superscript lookup 9 subtable" four.sups
Substitution2: "'dnom' Denominators lookup 8 subtable" fourinferior
Substitution2: "'numr' Numerators lookup 6 subtable" foursuperior
EndChar

StartChar: five
Encoding: 53 53 24
Width: 550
VWidth: 1177
Flags: W
LayerCount: 2
Fore
SplineSet
362.491210938 203.375976562 m 128,-1,1
 363.970703125 211.923828125 363.970703125 211.923828125 363.970703125 220.859375 c 0,2,3
 363.970703125 249.016601562 363.970703125 249.016601562 353.965820312 271.979492188 c 0,4,5
 349.313476562 282.657226562 349.313476562 282.657226562 339.796875 291.971679688 c 128,-1,6
 330.28125 301.286132812 330.28125 301.286132812 315.452148438 309.293945312 c 128,-1,7
 300.458984375 317.390625 300.458984375 317.390625 278.297851562 323.923828125 c 128,-1,8
 256.13671875 330.45703125 256.13671875 330.45703125 227.186523438 335.15234375 c 0,9,10
 168.484375 344.671875 168.484375 344.671875 77.6328125 344.671875 c 2,11,-1
 66.34765625 344.671875 l 1,12,-1
 67.705078125 355.508789062 l 2,13,14
 79.6787109375 451.053710938 79.6787109375 451.053710938 86.66015625 542.708984375 c 128,-1,15
 93.646484375 634.424804688 93.646484375 634.424804688 96.638671875 719.340820312 c 2,16,-1
 96.9677734375 729 l 1,17,-1
 106.6328125 729 l 1,18,-1
 498.6328125 729 l 1,19,-1
 508.6328125 729 l 1,20,-1
 508.6328125 719 l 1,21,-1
 508.6328125 617.461914062 l 1,22,-1
 508.6328125 609 l 1,23,-1
 498.6328125 609 l 1,24,-1
 246.244140625 609 l 1,25,26
 245.516601562 597.4609375 245.516601562 597.4609375 244.625 585.952148438 c 128,-1,27
 243.732421875 574.442382812 243.732421875 574.442382812 242.665039062 562.802734375 c 128,-1,28
 241.598632812 551.162109375 241.598632812 551.162109375 240.326171875 539.029296875 c 0,29,30
 236.870117188 506.057617188 236.870117188 506.057617188 234.758789062 482.286132812 c 1,31,32
 387.333984375 471.395507812 387.333984375 471.395507812 461.127929688 410.103515625 c 0,33,34
 486.288085938 388.612304688 486.288085938 388.612304688 503.114257812 361.197265625 c 128,-1,35
 519.939453125 333.782226562 519.939453125 333.782226562 528.286132812 300.977539062 c 128,-1,36
 536.6328125 268.172851562 536.6328125 268.172851562 536.6328125 230 c 0,37,38
 536.6328125 203.565429688 536.6328125 203.565429688 531.939453125 179.185546875 c 128,-1,39
 527.24609375 154.805664062 527.24609375 154.805664062 517.840820312 132.599609375 c 0,40,41
 498.947265625 87.9912109375 498.947265625 87.9912109375 460.724609375 54.48046875 c 128,-1,42
 422.67578125 21.1220703125 422.67578125 21.1220703125 362.985351562 2.9873046875 c 0,43,44
 333.052734375 -6.0390625 333.052734375 -6.0390625 298.379882812 -10.51953125 c 128,-1,45
 263.708007812 -15 263.708007812 -15 224.255859375 -15 c 0,46,47
 193.529296875 -15 193.529296875 -15 161.192382812 -11.4306640625 c 0,48,49
 129.141601562 -7.8916015625 129.141601562 -7.8916015625 101.811523438 -2.8330078125 c 0,50,51
 74.1962890625 2.28125 74.1962890625 2.28125 51.6005859375 9.470703125 c 128,-1,52
 28.857421875 16.70703125 28.857421875 16.70703125 16.16015625 23.0556640625 c 2,53,-1
 9 26.6357421875 l 1,54,-1
 10.9267578125 34.40625 l 1,55,-1
 40.9267578125 155.40625 l 1,56,-1
 43.9326171875 167.530273438 l 1,57,-1
 55.1044921875 161.944335938 l 2,58,59
 80.228515625 149.3828125 80.228515625 149.3828125 119.284179688 138.641601562 c 0,60,61
 160.1484375 128 160.1484375 128 223.181640625 128 c 0,62,63
 266.546875 128 266.546875 128 294.959960938 136.676757812 c 0,64,65
 322.766601562 145.166992188 322.766601562 145.166992188 337.689453125 158.166015625 c 128,-1,66
 352.423828125 171 352.423828125 171 358.046875 186.602539062 c 0,67,0
 361.01171875 194.828125 361.01171875 194.828125 362.491210938 203.375976562 c 128,-1,1
EndSplineSet
Substitution2: "'ss02' Style Set 2 lookup 15 subtable" fivesuperior
Substitution2: "'sinf' Scientific Inferiors lookup 11 subtable" five.sinf
Substitution2: "'subs' Subscript lookup 10 subtable" five.sinf
Substitution2: "'sups' Superscript lookup 9 subtable" five.sups
Substitution2: "'dnom' Denominators lookup 8 subtable" fiveinferior
Substitution2: "'numr' Numerators lookup 6 subtable" fivesuperior
EndChar

StartChar: six
Encoding: 54 54 25
Width: 550
VWidth: 1177
Flags: W
LayerCount: 2
Fore
SplineSet
347.456054688 310.8203125 m 0,0,1
 323.775390625 336 323.775390625 336 263.16015625 336 c 0,2,3
 240.481445312 336 240.481445312 336 215.631835938 331.872070312 c 0,4,5
 205.927734375 330.259765625 205.927734375 330.259765625 196.787109375 327.83984375 c 128,-1,6
 187.646484375 325.420898438 187.646484375 325.420898438 181.875976562 323.131835938 c 1,7,8
 181.185546875 315.370117188 181.185546875 315.370117188 180.807617188 308.366210938 c 0,9,10
 180.545898438 303.481445312 180.545898438 303.481445312 180.4140625 298.228515625 c 128,-1,11
 180.282226562 292.975585938 180.282226562 292.975585938 180.282226562 287.361328125 c 0,12,13
 180.282226562 255.61328125 180.282226562 255.61328125 185.017578125 226.2421875 c 0,14,15
 187.329101562 211.905273438 187.329101562 211.905273438 191.530273438 199.272460938 c 128,-1,16
 195.73046875 186.638671875 195.73046875 186.638671875 201.788085938 175.680664062 c 0,17,18
 213.49609375 154.500976562 213.49609375 154.500976562 233.318359375 142.078125 c 0,19,20
 242.8671875 136.092773438 242.8671875 136.092773438 255.079101562 133.046875 c 128,-1,21
 267.291992188 130 267.291992188 130 282.534179688 130 c 0,22,23
 306.223632812 130 306.223632812 130 322.3671875 139.400390625 c 0,24,25
 339.247070312 149.229492188 339.247070312 149.229492188 349.840820312 164.163085938 c 0,26,27
 360.784179688 179.588867188 360.784179688 179.588867188 366.286132812 198.646484375 c 0,28,29
 368.15625 205.124023438 368.15625 205.124023438 369.399414062 211.43359375 c 128,-1,30
 370.642578125 217.743164062 370.642578125 217.743164062 371.256835938 223.8359375 c 128,-1,31
 371.870117188 229.927734375 371.870117188 229.927734375 371.870117188 235.861328125 c 0,32,33
 371.870117188 284.862304688 371.870117188 284.862304688 347.456054688 310.8203125 c 0,0,1
240.098632812 470.201171875 m 0,34,35
 265.063476562 476 265.063476562 476 283.610351562 476 c 0,36,37
 354.666992188 476 354.666992188 476 404.026367188 457.107421875 c 0,38,39
 451.004882812 438.104492188 451.004882812 438.104492188 480.525390625 405.047851562 c 0,40,41
 495.237304688 388.575195312 495.237304688 388.575195312 505.89453125 369.366210938 c 128,-1,42
 516.551757812 350.158203125 516.551757812 350.158203125 523.09375 328.366210938 c 0,43,44
 536 285.37109375 536 285.37109375 536 237.909179688 c 0,45,46
 536 195.272460938 536 195.272460938 522.05078125 151.232421875 c 0,47,48
 508.0078125 106.8984375 508.0078125 106.8984375 478.381835938 69.72265625 c 0,49,50
 463.4765625 51.0185546875 463.4765625 51.0185546875 444.641601562 35.7685546875 c 128,-1,51
 425.806640625 20.517578125 425.806640625 20.517578125 402.194335938 8.79296875 c 0,52,53
 377.514648438 -3.0859375 377.514648438 -3.0859375 348.3671875 -8.982421875 c 128,-1,54
 319.21875 -15 319.21875 -15 285.763671875 -15 c 0,55,56
 149.467773438 -15 149.467773438 -15 80.8759765625 62.44140625 c 0,57,58
 47.130859375 101.158203125 47.130859375 101.158203125 30.5654296875 160.44140625 c 128,-1,59
 14 219.725585938 14 219.725585938 14 299.51953125 c 0,60,61
 14 404.552734375 14 404.552734375 46.1728515625 485.607421875 c 0,62,63
 78.4765625 566.9921875 78.4765625 566.9921875 137.861328125 622.049804688 c 0,64,65
 201.435546875 677.063476562 201.435546875 677.063476562 291.359375 705.51171875 c 0,66,67
 336.131835938 719.67578125 336.131835938 719.67578125 385.6015625 726.743164062 c 0,68,69
 433.720703125 734 433.720703125 734 484 734 c 2,70,-1
 493.375976562 734 l 1,71,-1
 493.979492188 724.643554688 l 1,72,-1
 501.979492188 605.438476562 l 1,73,-1
 502.651367188 595.421875 l 1,74,-1
 492.212890625 595.208007812 l 2,75,76
 480.6640625 594.971679688 480.6640625 594.971679688 469.2421875 594.29296875 c 128,-1,77
 457.8203125 593.614257812 457.8203125 593.614257812 446.526367188 592.493164062 c 128,-1,78
 435.232421875 591.372070312 435.232421875 591.372070312 424.06640625 589.80859375 c 0,79,80
 412.663085938 588.245117188 412.663085938 588.245117188 400.776367188 586.240234375 c 0,81,82
 353.84375 578.322265625 353.84375 578.322265625 314.845703125 560.673828125 c 0,83,84
 295.526367188 551.931640625 295.526367188 551.931640625 278.706054688 540.462890625 c 128,-1,85
 261.885742188 528.995117188 261.885742188 528.995117188 247.46875 514.739257812 c 0,86,87
 242.034179688 509.365234375 242.034179688 509.365234375 237.086914062 503.365234375 c 128,-1,88
 232.139648438 497.365234375 232.139648438 497.365234375 227.78515625 490.88671875 c 128,-1,89
 223.4296875 484.408203125 223.4296875 484.408203125 219.642578125 477.478515625 c 0,90,91
 215.854492188 470.299804688 215.854492188 470.299804688 212.649414062 462.6875 c 1,92,93
 226.814453125 467.116210938 226.814453125 467.116210938 240.098632812 470.201171875 c 0,34,35
EndSplineSet
Substitution2: "'ss02' Style Set 2 lookup 15 subtable" sixsuperior
Substitution2: "'sinf' Scientific Inferiors lookup 11 subtable" six.sinf
Substitution2: "'subs' Subscript lookup 10 subtable" six.sinf
Substitution2: "'sups' Superscript lookup 9 subtable" six.sups
Substitution2: "'dnom' Denominators lookup 8 subtable" sixinferior
Substitution2: "'numr' Numerators lookup 6 subtable" sixsuperior
EndChar

StartChar: seven
Encoding: 55 55 26
Width: 550
VWidth: 1177
Flags: W
LayerCount: 2
Fore
SplineSet
113.452148438 0 m 1,0,-1
 114.014648438 10.5322265625 l 2,1,2
 118.065429688 86.4853515625 118.065429688 86.4853515625 139.474609375 171.912109375 c 0,3,4
 145.168945312 193.165039062 145.168945312 193.165039062 151.473632812 214.291992188 c 128,-1,5
 157.778320312 235.419921875 157.778320312 235.419921875 164.693359375 256.420898438 c 128,-1,6
 171.607421875 277.421875 171.607421875 277.421875 179.130859375 298.295898438 c 128,-1,7
 186.65625 319.169921875 186.65625 319.169921875 194.790039062 339.916992188 c 0,8,9
 227.3203125 422.893554688 227.3203125 422.893554688 265.831054688 496.849609375 c 0,10,11
 298.931640625 560.415039062 298.931640625 560.415039062 329.393554688 609 c 1,12,-1
 27 609 l 1,13,-1
 17 609 l 1,14,-1
 17 617.461914062 l 1,15,-1
 17 719 l 1,16,-1
 17 729 l 1,17,-1
 27 729 l 1,18,-1
 523 729 l 1,19,-1
 533 729 l 1,20,-1
 533 719 l 1,21,-1
 533 612.987304688 l 1,22,-1
 533 609.365234375 l 1,23,-1
 530.563476562 606.625976562 l 2,24,25
 520.19140625 594.9609375 520.19140625 594.9609375 509.090820312 580.141601562 c 128,-1,26
 497.989257812 565.322265625 497.989257812 565.322265625 486.092773438 547.223632812 c 128,-1,27
 474.196289062 529.124023438 474.196289062 529.124023438 461.666015625 507.958007812 c 0,28,29
 442.859375 476.189453125 442.859375 476.189453125 425.133789062 440.142578125 c 0,30,31
 406.971679688 404.095703125 406.971679688 404.095703125 389.044921875 363.788085938 c 0,32,33
 353.177734375 283.137695312 353.177734375 283.137695312 326.395507812 191.327148438 c 128,-1,34
 299.782226562 99.365234375 299.782226562 99.365234375 293.305664062 9.36328125 c 2,35,-1
 292.662109375 0 l 1,36,-1
 282.546875 0 l 1,37,-1
 124 0 l 1,38,-1
 113.452148438 0 l 1,0,-1
EndSplineSet
Substitution2: "'ss02' Style Set 2 lookup 15 subtable" sevensuperior
Substitution2: "'sinf' Scientific Inferiors lookup 11 subtable" seven.sinf
Substitution2: "'subs' Subscript lookup 10 subtable" seven.sinf
Substitution2: "'sups' Superscript lookup 9 subtable" seven.sups
Substitution2: "'dnom' Denominators lookup 8 subtable" seveninferior
Substitution2: "'numr' Numerators lookup 6 subtable" sevensuperior
EndChar

StartChar: eight
Encoding: 56 56 27
Width: 550
VWidth: 1177
Flags: W
LayerCount: 2
Fore
SplineSet
508.673828125 631.252929688 m 128,-1,1
 525 595.3046875 525 595.3046875 525 551.026367188 c 0,2,3
 525 525.034179688 525 525.034179688 518.5859375 499.657226562 c 128,-1,4
 512.171875 474.280273438 512.171875 474.280273438 499.42578125 449.698242188 c 0,5,6
 476.9765625 406.403320312 476.9765625 406.403320312 431.662109375 375.067382812 c 1,7,8
 451.581054688 362.772460938 451.581054688 362.772460938 467.290039062 350.27734375 c 128,-1,9
 482.999023438 337.782226562 482.999023438 337.782226562 495.129882812 324.51953125 c 128,-1,10
 507.260742188 311.2578125 507.260742188 311.2578125 516.083007812 296.880859375 c 0,11,12
 545 249.7578125 545 249.7578125 545 192.510742188 c 0,13,14
 545 156.668945312 545 156.668945312 530.87890625 119.473632812 c 0,15,16
 516.588867188 81.83203125 516.588867188 81.83203125 484.950195312 52.037109375 c 0,17,18
 469.1484375 37.1552734375 469.1484375 37.1552734375 448.79296875 25.0791015625 c 128,-1,19
 428.436523438 13.001953125 428.436523438 13.001953125 402.068359375 3.6748046875 c 0,20,21
 348.779296875 -15 348.779296875 -15 270.713867188 -15 c 0,22,23
 210.229492188 -15 210.229492188 -15 159.98828125 -1.4423828125 c 0,24,25
 110.375 12.2265625 110.375 12.2265625 76.4033203125 37.6904296875 c 0,26,27
 41.9697265625 63.5009765625 41.9697265625 63.5009765625 23.4384765625 102.1953125 c 128,-1,28
 5 140.6953125 5 140.6953125 5 187.680664062 c 0,29,30
 5 243.69921875 5 243.69921875 32.1669921875 293.587890625 c 0,31,32
 56.439453125 338.162109375 56.439453125 338.162109375 104.637695312 372.822265625 c 1,33,34
 95.349609375 379.5546875 95.349609375 379.5546875 87.4482421875 386.192382812 c 128,-1,35
 79.546875 392.830078125 79.546875 392.830078125 72.787109375 399.588867188 c 128,-1,36
 66.0263671875 406.346679688 66.0263671875 406.346679688 60.412109375 413.283203125 c 128,-1,37
 54.7978515625 420.219726562 54.7978515625 420.219726562 50.212890625 427.413085938 c 128,-1,38
 45.6279296875 434.606445312 45.6279296875 434.606445312 41.9462890625 442.250976562 c 0,39,40
 22 483.681640625 22 483.681640625 22 529.703125 c 0,41,42
 22 565.370117188 22 565.370117188 35.0009765625 603.880859375 c 0,43,44
 41.560546875 623.3125 41.560546875 623.3125 51.943359375 640.986328125 c 128,-1,45
 62.326171875 658.66015625 62.326171875 658.66015625 76.458984375 674.471679688 c 0,46,47
 104.9140625 706.306640625 104.9140625 706.306640625 153.862304688 726.671875 c 0,48,49
 204.155273438 747 204.155273438 747 277.142578125 747 c 0,50,51
 296.3515625 747 296.3515625 747 314.294921875 745.510742188 c 128,-1,52
 332.236328125 744.020507812 332.236328125 744.020507812 348.98046875 741.032226562 c 128,-1,53
 365.724609375 738.120117188 365.724609375 738.120117188 381.197265625 733.720703125 c 128,-1,54
 396.669921875 729.3203125 396.669921875 729.3203125 410.861328125 723.447265625 c 128,-1,55
 425.049804688 717.573242188 425.049804688 717.573242188 437.107421875 710.172851562 c 128,-1,56
 449.166015625 702.772460938 449.166015625 702.772460938 459.95703125 693.883789062 c 0,57,0
 492.34765625 667.202148438 492.34765625 667.202148438 508.673828125 631.252929688 c 128,-1,1
379.171875 152.817382812 m 128,-1,59
 386.428710938 165.829101562 386.428710938 165.829101562 386.428710938 181 c 0,60,61
 386.428710938 185.409179688 386.428710938 185.409179688 386.077148438 189.55078125 c 128,-1,62
 385.724609375 193.692382812 385.724609375 193.692382812 385.038085938 197.5 c 128,-1,63
 384.3515625 201.306640625 384.3515625 201.306640625 383.326171875 204.864257812 c 128,-1,64
 382.299804688 208.421875 382.299804688 208.421875 380.965820312 211.66796875 c 128,-1,65
 379.6328125 214.913085938 379.6328125 214.913085938 377.97265625 217.926757812 c 0,66,67
 373.771484375 225.55078125 373.771484375 225.55078125 366.95703125 232.69140625 c 128,-1,68
 360.142578125 239.83203125 360.142578125 239.83203125 350.571289062 246.475585938 c 0,69,70
 330.463867188 260.4296875 330.463867188 260.4296875 298.6640625 275.026367188 c 0,71,72
 268.920898438 288.6796875 268.920898438 288.6796875 227.764648438 303.555664062 c 1,73,74
 197.41015625 279.123046875 197.41015625 279.123046875 180.508789062 249.766601562 c 0,75,76
 171.421875 233.982421875 171.421875 233.982421875 166.961914062 219.061523438 c 128,-1,77
 162.5 204.140625 162.5 204.140625 162.5 190 c 0,78,79
 162.5 175.631835938 162.5 175.631835938 166.015625 163.9765625 c 128,-1,80
 169.530273438 152.321289062 169.530273438 152.321289062 176.451171875 143.250976562 c 128,-1,81
 183.373046875 134.180664062 183.373046875 134.180664062 193.918945312 127.12890625 c 0,82,83
 210.475585938 116.057617188 210.475585938 116.057617188 230.099609375 110.529296875 c 128,-1,84
 249.721679688 105 249.721679688 105 272.857421875 105 c 0,85,86
 325.849609375 105 325.849609375 105 356.651367188 128.272460938 c 0,87,58
 371.916992188 139.806640625 371.916992188 139.806640625 379.171875 152.817382812 c 128,-1,59
339.286132812 608 m 0,88,89
 312.5 627 312.5 627 273.928710938 627 c 0,90,91
 264.530273438 627 264.530273438 627 255.82421875 625.78515625 c 128,-1,92
 247.1171875 624.571289062 247.1171875 624.571289062 239.04296875 622.129882812 c 128,-1,93
 230.970703125 619.689453125 230.970703125 619.689453125 223.520507812 616.045898438 c 128,-1,94
 216.0703125 612.403320312 216.0703125 612.403320312 209.130859375 607.516601562 c 0,95,96
 195.90234375 598.203125 195.90234375 598.203125 189.379882812 584.848632812 c 128,-1,97
 182.857421875 571.495117188 182.857421875 571.495117188 182.857421875 553 c 0,98,99
 182.857421875 516.252929688 182.857421875 516.252929688 208.50390625 493.203125 c 0,100,101
 221.186523438 481.803710938 221.186523438 481.803710938 245.041015625 469.100585938 c 128,-1,102
 268.895507812 456.397460938 268.895507812 456.397460938 302.374023438 443.40234375 c 1,103,104
 320.119140625 456.236328125 320.119140625 456.236328125 331.4921875 468.833984375 c 128,-1,105
 342.864257812 481.432617188 342.864257812 481.432617188 349.9140625 495.690429688 c 0,106,107
 365 526.196289062 365 526.196289062 365 554 c 0,108,109
 365 590 365 590 339.286132812 608 c 0,88,89
EndSplineSet
Substitution2: "'ss02' Style Set 2 lookup 15 subtable" eightsuperior
Substitution2: "'sinf' Scientific Inferiors lookup 11 subtable" eight.sinf
Substitution2: "'subs' Subscript lookup 10 subtable" eight.sinf
Substitution2: "'sups' Superscript lookup 9 subtable" eight.sups
Substitution2: "'dnom' Denominators lookup 8 subtable" eightinferior
Substitution2: "'numr' Numerators lookup 6 subtable" eightsuperior
EndChar

StartChar: nine
Encoding: 57 57 28
Width: 550
VWidth: 1177
Flags: W
LayerCount: 2
Fore
SplineSet
249.4453125 400.965820312 m 128,-1,1
 266.047851562 398 266.047851562 398 286.868164062 398 c 0,2,3
 309.568359375 398 309.568359375 398 335.509765625 402.140625 c 0,4,5
 356.247070312 405.451171875 356.247070312 405.451171875 371.38671875 411.033203125 c 1,6,-1
 372.375 426.951171875 l 2,7,8
 372.639648438 433.544921875 372.639648438 433.544921875 372.7734375 439.897460938 c 128,-1,9
 372.905273438 446.250976562 372.905273438 446.250976562 372.905273438 452.361328125 c 0,10,11
 372.905273438 479.151367188 372.905273438 479.151367188 367.166992188 506.91015625 c 0,12,13
 361.51171875 534.264648438 361.51171875 534.264648438 349.228515625 556.956054688 c 0,14,15
 345.28515625 564.243164062 345.28515625 564.243164062 340.408203125 570.493164062 c 128,-1,16
 335.532226562 576.743164062 335.532226562 576.743164062 329.748046875 581.958984375 c 128,-1,17
 323.963867188 587.174804688 323.963867188 587.174804688 317.182617188 591.470703125 c 0,18,19
 307.319335938 597.717773438 307.319335938 597.717773438 295.276367188 600.859375 c 128,-1,20
 283.234375 604 283.234375 604 268.584960938 604 c 0,21,22
 263.424804688 604 263.424804688 604 258.595703125 603.650390625 c 128,-1,23
 253.766601562 603.30078125 253.766601562 603.30078125 249.350585938 602.619140625 c 128,-1,24
 244.932617188 601.9375 244.932617188 601.9375 240.826171875 600.918945312 c 128,-1,25
 236.719726562 599.901367188 236.719726562 599.901367188 232.997070312 598.578125 c 128,-1,26
 229.2734375 597.255859375 229.2734375 597.255859375 225.83984375 595.610351562 c 0,27,28
 223.299804688 594.392578125 223.299804688 594.392578125 220.920898438 593.071289062 c 128,-1,29
 218.54296875 591.750976562 218.54296875 591.750976562 216.327148438 590.330078125 c 128,-1,30
 214.112304688 588.908203125 214.112304688 588.908203125 212.049804688 587.37890625 c 128,-1,31
 209.987304688 585.849609375 209.987304688 585.849609375 208.08203125 584.21875 c 128,-1,32
 206.17578125 582.587890625 206.17578125 582.587890625 204.4140625 580.842773438 c 128,-1,33
 202.651367188 579.098632812 202.651367188 579.098632812 201.0390625 577.250976562 c 128,-1,34
 199.426757812 575.403320312 199.426757812 575.403320312 197.948242188 573.436523438 c 0,35,36
 187.151367188 559.075195312 187.151367188 559.075195312 181.688476562 539.696289062 c 0,37,38
 176.094726562 519.853515625 176.094726562 519.853515625 176.094726562 497.185546875 c 0,39,40
 176.094726562 484.690429688 176.094726562 484.690429688 177.736328125 473.7578125 c 128,-1,41
 179.37890625 462.825195312 179.37890625 462.825195312 182.609375 453.60546875 c 128,-1,42
 185.83984375 444.38671875 185.83984375 444.38671875 190.514648438 436.75390625 c 128,-1,43
 195.190429688 429.12109375 195.190429688 429.12109375 201.370117188 422.903320312 c 0,44,45
 209.349609375 414.875 209.349609375 414.875 221.095703125 409.403320312 c 128,-1,0
 232.841796875 403.931640625 232.841796875 403.931640625 249.4453125 400.965820312 c 128,-1,1
280.538085938 257.483398438 m 128,-1,47
 273.931640625 257 273.931640625 257 267.509765625 257 c 0,48,49
 196.5546875 257 196.5546875 257 146.193359375 275.8671875 c 0,50,51
 98.060546875 294.858398438 98.060546875 294.858398438 68.5263671875 327.421875 c 128,-1,52
 39.0869140625 359.879882812 39.0869140625 359.879882812 25.447265625 403.068359375 c 0,53,54
 12 445.645507812 12 445.645507812 12 494.169921875 c 0,55,56
 12 536.887695312 12 536.887695312 26.9921875 581.979492188 c 0,57,58
 42.060546875 627.301757812 42.060546875 627.301757812 72.212890625 663.984375 c 128,-1,59
 102.504882812 700.837890625 102.504882812 700.837890625 149.020507812 724.322265625 c 0,60,61
 198.162109375 748 198.162109375 748 264.283203125 748 c 0,62,63
 400.708984375 748 400.708984375 748 469.854492188 663.930664062 c 0,64,65
 503.5859375 622.23046875 503.5859375 622.23046875 520.29296875 564.770507812 c 128,-1,66
 537 507.310546875 537 507.310546875 537 434.36328125 c 0,67,68
 537 329.364257812 537 329.364257812 505.873046875 247.8515625 c 0,69,70
 474.587890625 165.926757812 474.587890625 165.926757812 415.899414062 110.33984375 c 0,71,72
 352.899414062 54.7841796875 352.899414062 54.7841796875 263.55078125 26.3115234375 c 0,73,74
 174.705078125 -2 174.705078125 -2 71 -2 c 2,75,-1
 61.3173828125 -2 l 1,76,-1
 61.0048828125 7.677734375 l 1,77,-1
 57.0048828125 126.895507812 l 1,78,-1
 56.67578125 136.71484375 l 1,79,-1
 66.8935546875 136.819335938 l 2,80,81
 112.778320312 137.2890625 112.778320312 137.2890625 155.192382812 146.858398438 c 0,82,83
 199.056640625 156.428710938 199.056640625 156.428710938 237.66015625 175.083007812 c 0,84,85
 270.375976562 190.891601562 270.375976562 190.891601562 294.98828125 214.377929688 c 128,-1,86
 319.6015625 238.063476562 319.6015625 238.063476562 335.881835938 268.90625 c 1,87,88
 328.614257812 266.541015625 328.614257812 266.541015625 321.548828125 264.646484375 c 128,-1,89
 314.483398438 262.752929688 314.483398438 262.752929688 307.552734375 261.317382812 c 128,-1,90
 300.62109375 259.8828125 300.62109375 259.8828125 293.881835938 258.924804688 c 128,-1,46
 287.143554688 257.967773438 287.143554688 257.967773438 280.538085938 257.483398438 c 128,-1,47
EndSplineSet
Substitution2: "'ss02' Style Set 2 lookup 15 subtable" ninesuperior
Substitution2: "'sinf' Scientific Inferiors lookup 11 subtable" nine.sinf
Substitution2: "'subs' Subscript lookup 10 subtable" nine.sinf
Substitution2: "'sups' Superscript lookup 9 subtable" nine.sups
Substitution2: "'dnom' Denominators lookup 8 subtable" nineinferior
Substitution2: "'numr' Numerators lookup 6 subtable" ninesuperior
EndChar

StartChar: less
Encoding: 60 60 31
Width: 550
VWidth: 1177
Flags: W
LayerCount: 2
Fore
SplineSet
26.142578125 378.225585938 m 1,0,-1
 478.142578125 567.225585938 l 1,1,-1
 488.248046875 571.451171875 l 1,2,-1
 491.538085938 561.00390625 l 1,3,-1
 531.538085938 434.00390625 l 1,4,-1
 534.350585938 425.075195312 l 1,5,-1
 525.625976562 421.680664062 l 1,6,-1
 220.486328125 302.963867188 l 1,7,-1
 525.650390625 183.309570312 l 1,8,-1
 534.342773438 179.901367188 l 1,9,-1
 531.538085938 170.99609375 l 1,10,-1
 491.538085938 43.99609375 l 1,11,-1
 488.235351562 33.5087890625 l 1,12,-1
 478.107421875 37.7890625 l 1,13,-1
 26.107421875 228.7890625 l 1,14,-1
 20 231.369140625 l 1,15,-1
 20 238 l 1,16,-1
 20 369 l 1,17,-1
 20 375.657226562 l 1,18,-1
 26.142578125 378.225585938 l 1,0,-1
EndSplineSet
EndChar

StartChar: equal
Encoding: 61 61 32
Width: 550
VWidth: 1177
Flags: W
LayerCount: 2
Fore
SplineSet
27 494 m 1,0,-1
 522 494 l 1,1,-1
 532 494 l 1,2,-1
 532 484 l 1,3,-1
 532 364 l 1,4,-1
 532 354 l 1,5,-1
 522 354 l 1,6,-1
 27 354 l 1,7,-1
 17 354 l 1,8,-1
 17 364 l 1,9,-1
 17 484 l 1,10,-1
 17 494 l 1,11,-1
 27 494 l 1,0,-1
27 264 m 1,12,-1
 522 264 l 1,13,-1
 532 264 l 1,14,-1
 532 254 l 1,15,-1
 532 134 l 1,16,-1
 532 124 l 1,17,-1
 522 124 l 1,18,-1
 27 124 l 1,19,-1
 17 124 l 1,20,-1
 17 134 l 1,21,-1
 17 254 l 1,22,-1
 17 264 l 1,23,-1
 27 264 l 1,12,-1
EndSplineSet
EndChar

StartChar: greater
Encoding: 62 62 33
Width: 550
VWidth: 1177
Flags: W
LayerCount: 2
Fore
SplineSet
526.303710938 227.78515625 m 1,0,-1
 73.3037109375 36.78515625 l 1,1,-1
 63.25390625 32.5478515625 l 1,2,-1
 59.90234375 42.927734375 l 1,3,-1
 18.90234375 169.927734375 l 1,4,-1
 16.0078125 178.895507812 l 1,5,-1
 24.7880859375 182.317382812 l 1,6,-1
 331.787109375 301.963867188 l 1,7,-1
 24.8125 420.672851562 l 1,8,-1
 16 424.081054688 l 1,9,-1
 18.90234375 433.072265625 l 1,10,-1
 59.90234375 560.072265625 l 1,11,-1
 63.2470703125 570.432617188 l 1,12,-1
 73.287109375 566.221679688 l 1,13,-1
 526.287109375 376.221679688 l 1,14,-1
 532.418945312 373.649414062 l 1,15,-1
 532.418945312 367 l 1,16,-1
 532.418945312 237 l 1,17,-1
 532.418945312 230.364257812 l 1,18,-1
 526.303710938 227.78515625 l 1,0,-1
EndSplineSet
EndChar

StartChar: question
Encoding: 63 63 34
Width: 550
VWidth: 1177
Flags: W
LayerCount: 2
Fore
SplineSet
166.28125 263.356445312 m 2,0,1
 165.727539062 266.681640625 165.727539062 266.681640625 165.212890625 271.3125 c 256,2,3
 164.69921875 275.943359375 164.69921875 275.943359375 164.1796875 282.169921875 c 2,4,-1
 164.145507812 282.583984375 l 1,5,6
 164.145507812 332.6953125 164.145507812 332.6953125 190.5 378.026367188 c 0,7,8
 216.400390625 422.57421875 216.400390625 422.57421875 257.8046875 456.733398438 c 0,9,10
 284.275390625 478.301757812 284.275390625 478.301757812 307.291992188 503.276367188 c 0,11,12
 328.145507812 525.905273438 328.145507812 525.905273438 328.145507812 551 c 0,13,14
 328.145507812 566.500976562 328.145507812 566.500976562 323.063476562 577.59765625 c 256,15,16
 317.981445312 588.6953125 317.981445312 588.6953125 307.619140625 596.51953125 c 0,17,18
 296.784179688 604.701171875 296.784179688 604.701171875 282.765625 608.850585938 c 256,19,20
 268.747070312 613 268.747070312 613 251.145507812 613 c 0,21,22
 214.6796875 613 214.6796875 613 181.143554688 602.459960938 c 0,23,24
 146.8125 591.669921875 146.8125 591.669921875 105.4453125 571.971679688 c 2,25,-1
 95.5087890625 567.240234375 l 1,26,-1
 91.748046875 577.583007812 l 1,27,-1
 51.748046875 687.583007812 l 1,28,-1
 49 695.138671875 l 1,29,-1
 55.7900390625 699.4453125 l 2,30,31
 98.1083984375 726.28125 98.1083984375 726.28125 155.118164062 741.174804688 c 0,32,33
 211.860351562 756 211.860351562 756 267.145507812 756 c 0,34,35
 278.5625 756 278.5625 756 289.326171875 755.4765625 c 256,36,37
 300.08984375 754.953125 300.08984375 754.953125 310.284179688 753.8984375 c 256,38,39
 320.479492188 752.84375 320.479492188 752.84375 330.046875 751.247070312 c 256,40,41
 339.614257812 749.650390625 339.614257812 749.650390625 348.580078125 747.51171875 c 256,42,43
 357.545898438 745.373046875 357.545898438 745.373046875 365.9140625 742.672851562 c 256,44,45
 374.283203125 739.971679688 374.283203125 739.971679688 382.021484375 736.71875 c 0,46,47
 404.909179688 727.094726562 404.909179688 727.094726562 422.931640625 715.124023438 c 256,48,49
 440.954101562 703.153320312 440.954101562 703.153320312 454.05078125 688.719726562 c 0,50,51
 480.047851562 660.0703125 480.047851562 660.0703125 490.703125 625.440429688 c 0,52,53
 501.145507812 591.50390625 501.145507812 591.50390625 501.145507812 561 c 0,54,55
 501.145507812 524.750976562 501.145507812 524.750976562 486.682617188 494.21875 c 0,56,57
 472.657226562 464.609375 472.657226562 464.609375 451.377929688 438.659179688 c 0,58,59
 440.904296875 425.885742188 440.904296875 425.885742188 429.657226562 414 c 256,60,61
 418.41015625 402.114257812 418.41015625 402.114257812 406.395507812 391.122070312 c 0,62,63
 398.627929688 384.015625 398.627929688 384.015625 391.192382812 376.965820312 c 256,64,65
 383.756835938 369.915039062 383.756835938 369.915039062 376.661132812 362.9296875 c 256,66,67
 369.565429688 355.943359375 369.565429688 355.943359375 362.80078125 349.014648438 c 0,68,69
 358.83984375 344.95703125 358.83984375 344.95703125 355.1328125 340.844726562 c 256,70,71
 351.426757812 336.732421875 351.426757812 336.732421875 347.985351562 332.579101562 c 256,72,73
 344.543945312 328.426757812 344.543945312 328.426757812 341.354492188 324.219726562 c 256,74,75
 338.166015625 320.012695312 338.166015625 320.012695312 335.239257812 315.765625 c 256,76,77
 332.3125 311.518554688 332.3125 311.518554688 329.635742188 307.216796875 c 0,78,79
 323.323242188 297.072265625 323.323242188 297.072265625 320.234375 286.591796875 c 256,80,81
 317.145507812 276.111328125 317.145507812 276.111328125 317.145507812 265 c 2,82,-1
 317.145507812 255 l 1,83,-1
 307.145507812 255 l 1,84,-1
 176.145507812 255 l 1,85,-1
 167.673828125 255 l 1,86,-1
 166.28125 263.356445312 l 2,0,1
359.145507812 84 m 0,87,88
 359.145507812 33.43359375 359.145507812 33.43359375 325.694335938 4.443359375 c 0,89,90
 292.875976562 -24 292.875976562 -24 251.145507812 -24 c 0,91,92
 244.239257812 -24 244.239257812 -24 237.483398438 -23.2080078125 c 256,93,94
 230.728515625 -22.416015625 230.728515625 -22.416015625 224.137695312 -20.8310546875 c 256,95,96
 217.547851562 -19.2451171875 217.547851562 -19.2451171875 211.1640625 -16.8740234375 c 0,97,98
 191.883789062 -9.712890625 191.883789062 -9.712890625 175.969726562 4.5546875 c 256,99,100
 159.91796875 18.9462890625 159.91796875 18.9462890625 151.05078125 38.3427734375 c 256,101,102
 142.145507812 57.822265625 142.145507812 57.822265625 142.145507812 84 c 0,103,104
 142.145507812 95.9560546875 142.145507812 95.9560546875 144.34765625 107.106445312 c 256,105,106
 146.55078125 118.255859375 146.55078125 118.255859375 150.966796875 128.46875 c 0,107,108
 159.919921875 149.172851562 159.919921875 149.172851562 176.26953125 162.704101562 c 0,109,110
 181.5234375 167.051757812 181.5234375 167.051757812 187.161132812 170.749023438 c 256,111,112
 192.798828125 174.4453125 192.798828125 174.4453125 198.805664062 177.48046875 c 256,113,114
 204.8125 180.515625 204.8125 180.515625 211.1640625 182.874023438 c 0,115,116
 230.348632812 190 230.348632812 190 251.145507812 190 c 0,117,118
 254.104492188 190 254.104492188 190 257.038085938 189.854492188 c 256,119,120
 259.970703125 189.708984375 259.970703125 189.708984375 262.875976562 189.41796875 c 256,121,122
 265.78125 189.125976562 265.78125 189.125976562 268.65625 188.689453125 c 256,123,124
 271.530273438 188.25390625 271.530273438 188.25390625 274.375 187.671875 c 256,125,126
 277.21875 187.088867188 277.21875 187.088867188 280.028320312 186.362304688 c 256,127,128
 282.837890625 185.635742188 282.837890625 185.635742188 285.614257812 184.763671875 c 256,129,130
 288.390625 183.890625 288.390625 183.890625 291.126953125 182.874023438 c 0,131,132
 310.38671875 175.720703125 310.38671875 175.720703125 325.2890625 162.473632812 c 0,133,134
 332.849609375 155.75390625 332.849609375 155.75390625 338.966796875 147.2734375 c 256,135,136
 345.083007812 138.79296875 345.083007812 138.79296875 349.732421875 128.674804688 c 0,137,138
 359.145507812 108.1875 359.145507812 108.1875 359.145507812 84 c 0,87,88
EndSplineSet
EndChar

StartChar: at
Encoding: 64 64 35
Width: 550
VWidth: 1177
Flags: W
LayerCount: 2
Fore
SplineSet
543.763671875 55.7353515625 m 2,0,1
 510.69140625 42.2998046875 510.69140625 42.2998046875 468.047851562 35.6201171875 c 0,2,3
 425.778320312 29 425.778320312 29 394 29 c 0,4,5
 370.702148438 29 370.702148438 29 349.098632812 32.513671875 c 256,6,7
 327.495117188 36.02734375 327.495117188 36.02734375 307.65234375 43.0771484375 c 0,8,9
 267.482421875 57.34765625 267.482421875 57.34765625 237.368164062 87.990234375 c 256,10,11
 207.245117188 118.641601562 207.245117188 118.641601562 191.012695312 167.337890625 c 0,12,13
 175 215.376953125 175 215.376953125 175 284 c 0,14,15
 175 333.967773438 175 333.967773438 183.685546875 378.41796875 c 0,16,17
 188.109375 401.0546875 188.109375 401.0546875 195.974609375 420.979492188 c 256,18,19
 203.83984375 440.905273438 203.83984375 440.905273438 215.16015625 458.017578125 c 0,20,21
 237.982421875 492.515625 237.982421875 492.515625 273.56640625 512.698242188 c 0,22,23
 309.361328125 533 309.361328125 533 361 533 c 0,24,25
 379.840820312 533 379.840820312 533 407 528.797851562 c 1,26,-1
 407 536 l 2,27,28
 407 577.1015625 407 577.1015625 381.138671875 605.232421875 c 0,29,30
 355.609375 633 355.609375 633 306 633 c 0,31,32
 293.709960938 633 293.709960938 633 281.887695312 631.276367188 c 256,33,34
 270.06640625 629.552734375 270.06640625 629.552734375 258.673828125 626.100585938 c 256,35,36
 247.28125 622.6484375 247.28125 622.6484375 236.264648438 617.455078125 c 0,37,38
 220.217773438 609.889648438 220.217773438 609.889648438 206.296875 596.548828125 c 256,39,40
 192.375976562 583.208007812 192.375976562 583.208007812 180.538085938 563.793945312 c 0,41,42
 172.58984375 550.759765625 172.58984375 550.759765625 165.63671875 534.607421875 c 256,43,44
 158.68359375 518.456054688 158.68359375 518.456054688 152.678710938 498.940429688 c 256,45,46
 146.673828125 479.424804688 146.673828125 479.424804688 141.771484375 456.875976562 c 0,47,48
 134.41796875 423.049804688 134.41796875 423.049804688 130.708984375 380.028320312 c 256,49,50
 127 337.006835938 127 337.006835938 127 285 c 0,51,52
 127 264.70703125 127 264.70703125 127.7734375 245.532226562 c 256,53,54
 128.546875 226.357421875 128.546875 226.357421875 130.090820312 208.348632812 c 256,55,56
 131.633789062 190.33984375 131.633789062 190.33984375 133.939453125 173.486328125 c 256,57,58
 136.245117188 156.6328125 136.245117188 156.6328125 139.314453125 140.916992188 c 0,59,60
 151.41015625 78.9892578125 151.41015625 78.9892578125 180.201171875 37.7216796875 c 0,61,62
 208.595703125 -2.9765625 208.595703125 -2.9765625 256.02734375 -23.8466796875 c 0,63,64
 279.890625 -34.3466796875 279.890625 -34.3466796875 310.15234375 -39.673828125 c 256,65,66
 340.4140625 -45 340.4140625 -45 377 -45 c 0,67,68
 404.076171875 -45 404.076171875 -45 425.359375 -43.6455078125 c 256,69,70
 446.643554688 -42.2919921875 446.643554688 -42.2919921875 461.780273438 -39.6494140625 c 0,71,72
 476.659179688 -37.05078125 476.659179688 -37.05078125 486.979492188 -34.6806640625 c 256,73,74
 497.298828125 -32.310546875 497.298828125 -32.310546875 501.286132812 -30.71484375 c 2,75,-1
 513.30078125 -25.9091796875 l 1,76,-1
 514.920898438 -38.748046875 l 1,77,-1
 527.920898438 -141.748046875 l 1,78,-1
 529.032226562 -150.549804688 l 1,79,-1
 520.42578125 -152.701171875 l 2,80,81
 499.965820312 -157.81640625 499.965820312 -157.81640625 482.998046875 -160.38671875 c 0,82,83
 466.3515625 -162.909179688 466.3515625 -162.909179688 449.703125 -164.927734375 c 256,84,85
 432.888671875 -166.965820312 432.888671875 -166.965820312 415.586914062 -167.982421875 c 0,86,87
 406.920898438 -168.4921875 406.920898438 -168.4921875 397.278320312 -168.74609375 c 256,88,89
 387.63671875 -169 387.63671875 -169 377 -169 c 0,90,91
 297.469726562 -169 297.469726562 -169 229.008789062 -147.541992188 c 0,92,93
 159.490234375 -125.752929688 159.490234375 -125.752929688 108.689453125 -71.3232421875 c 0,94,95
 58.1904296875 -17.216796875 58.1904296875 -17.216796875 29.001953125 71.37109375 c 0,96,97
 0 159.395507812 0 159.395507812 0 292 c 0,98,99
 0 420.361328125 0 420.361328125 24.3642578125 508.173828125 c 0,100,101
 36.5927734375 552.249023438 36.5927734375 552.249023438 53.365234375 588.2265625 c 256,102,103
 70.13671875 624.204101562 70.13671875 624.204101562 91.5712890625 652.09375 c 0,104,105
 105.848632812 670.671875 105.848632812 670.671875 121.508789062 685.7578125 c 256,106,107
 137.169921875 700.844726562 137.169921875 700.844726562 154.337890625 712.4921875 c 256,108,109
 171.505859375 724.139648438 171.505859375 724.139648438 190.01953125 732.173828125 c 0,110,111
 208.3046875 740.108398438 208.3046875 740.108398438 227.314453125 745.40625 c 256,112,113
 246.32421875 750.703125 246.32421875 750.703125 266.000976562 753.3515625 c 256,114,115
 285.677734375 756 285.677734375 756 306 756 c 0,116,117
 355.712890625 756 355.712890625 756 399.828125 740.4296875 c 0,118,119
 408.727539062 737.2890625 408.727539062 737.2890625 417.20703125 733.4453125 c 256,120,121
 425.686523438 729.602539062 425.686523438 729.602539062 433.731445312 725.063476562 c 256,122,123
 441.776367188 720.524414062 441.776367188 720.524414062 449.381835938 715.294921875 c 256,124,125
 456.987304688 710.065429688 456.987304688 710.065429688 464.149414062 704.145507812 c 256,126,127
 471.311523438 698.225585938 471.311523438 698.225585938 478.015625 691.626953125 c 0,128,129
 511.640625 658.526367188 511.640625 658.526367188 530.911132812 604.880859375 c 0,130,131
 550 551.741210938 550 551.741210938 550 477 c 2,132,-1
 550 65 l 1,133,-1
 550 58.2685546875 l 1,134,-1
 543.763671875 55.7353515625 l 2,0,1
318 291 m 0,135,136
 318 269.623046875 318 269.623046875 320.922851562 246.240234375 c 0,137,138
 322.334960938 234.939453125 322.334960938 234.939453125 325.010742188 225.051757812 c 256,139,140
 327.686523438 215.1640625 327.686523438 215.1640625 331.586914062 206.674804688 c 0,141,142
 333.504882812 202.500976562 333.504882812 202.500976562 335.73828125 198.697265625 c 256,143,144
 337.97265625 194.89453125 337.97265625 194.89453125 340.52734375 191.453125 c 256,145,146
 343.083007812 188.012695312 343.083007812 188.012695312 345.951171875 184.927734375 c 256,147,148
 348.818359375 181.841796875 348.818359375 181.841796875 352.029296875 179.07421875 c 0,149,150
 357.795898438 174.103515625 357.795898438 174.103515625 365.655273438 171.551757812 c 256,151,152
 373.514648438 169 373.514648438 169 384 169 c 256,153,154
 394.493164062 169 394.493164062 169 407 171.194335938 c 1,155,-1
 407 389.901367188 l 1,156,157
 402.143554688 390.87890625 402.143554688 390.87890625 397.76171875 391.65234375 c 0,158,159
 390.124023438 393 390.124023438 393 382 393 c 0,160,161
 363.205078125 393 363.205078125 393 351.8125 384.862304688 c 0,162,163
 339.727539062 376.23046875 339.727539062 376.23046875 332.331054688 362.30859375 c 0,164,165
 324.576171875 347.7109375 324.576171875 347.7109375 321.350585938 329.276367188 c 0,166,167
 318 310.131835938 318 310.131835938 318 291 c 0,135,136
EndSplineSet
Substitution2: "'case' Case-Sensitive Forms lookup 17 subtable" At
EndChar

StartChar: A
Encoding: 65 65 36
Width: 550
VWidth: 1177
Flags: W
LayerCount: 2
Fore
SplineSet
390.350585938 0 m 1,0,-1
 388.635742188 8.0166015625 l 1,1,-1
 354.419921875 168 l 1,2,-1
 165.684570312 168 l 1,3,-1
 132.487304688 8.072265625 l 1,4,-1
 130.811523438 0 l 1,5,-1
 122.1171875 0 l 1,6,-1
 -30.306640625 0 l 1,7,-1
 -43 0 l 1,8,-1
 -40.029296875 12.0078125 l 2,9,10
 12.0322265625 222.432617188 12.0322265625 222.432617188 64.60546875 394.904296875 c 0,11,12
 119.405273438 567.202148438 119.405273438 567.202148438 172.272460938 722 c 2,13,-1
 174.598632812 729 l 1,14,-1
 182.353515625 729 l 1,15,-1
 349.325195312 729 l 1,16,-1
 357.001953125 729 l 1,17,-1
 359.375 722.090820312 l 2,18,19
 414.389648438 566.229492188 414.389648438 566.229492188 467.3125 391.392578125 c 0,20,21
 518.383789062 216.486328125 518.383789062 216.486328125 566.44140625 11.8984375 c 2,22,-1
 569.236328125 0 l 1,23,-1
 556.693359375 0 l 1,24,-1
 398.994140625 0 l 1,25,-1
 390.350585938 0 l 1,0,-1
265.958984375 537.124023438 m 128,-1,27
 263.740234375 544.692382812 263.740234375 544.692382812 261.612304688 551.826171875 c 1,28,29
 260.412109375 547.805664062 260.412109375 547.805664062 259.26953125 543.944335938 c 128,-1,30
 258.127929688 540.083984375 258.127929688 540.083984375 257.022460938 536.309570312 c 128,-1,31
 255.916015625 532.536132812 255.916015625 532.536132812 254.848632812 528.862304688 c 128,-1,32
 253.782226562 525.189453125 253.782226562 525.189453125 252.728515625 521.524414062 c 128,-1,33
 251.67578125 517.859375 251.67578125 517.859375 250.645507812 514.237304688 c 128,-1,34
 249.614257812 510.615234375 249.614257812 510.615234375 248.57421875 506.923828125 c 0,35,36
 238.04296875 469.555664062 238.04296875 469.555664062 229.09765625 433.702148438 c 128,-1,37
 220.150390625 397.845703125 220.150390625 397.845703125 212.255859375 361.487304688 c 0,38,39
 205.681640625 331.2109375 205.681640625 331.2109375 198.54296875 299 c 1,40,-1
 323.99609375 299 l 1,41,42
 320.750976562 315.908203125 320.750976562 315.908203125 317.698242188 331.284179688 c 128,-1,43
 314.646484375 346.659179688 314.646484375 346.659179688 311.475585938 362.090820312 c 0,44,45
 304.130859375 397.828125 304.130859375 397.828125 294.6875 433.57421875 c 128,-1,46
 285.198242188 469.495117188 285.198242188 469.495117188 274.649414062 506.923828125 c 0,47,48
 272.662109375 513.98046875 272.662109375 513.98046875 270.419921875 521.767578125 c 128,-1,26
 268.176757812 529.555664062 268.176757812 529.555664062 265.958984375 537.124023438 c 128,-1,27
EndSplineSet
EndChar

StartChar: B
Encoding: 66 66 37
Width: 550
VWidth: 1177
Flags: W
LayerCount: 2
Fore
SplineSet
514.165039062 323.045898438 m 0,0,1
 542 276.0390625 542 276.0390625 542 223.821289062 c 0,2,3
 542 157.314453125 542 157.314453125 518.944335938 112.454101562 c 128,-1,4
 495.791992188 67.4052734375 495.791992188 67.4052734375 455.169921875 40.203125 c 0,5,6
 435.052734375 26.732421875 435.052734375 26.732421875 410.580078125 17.2392578125 c 0,7,8
 385.131835938 7.7451171875 385.131835938 7.7451171875 355.96484375 2.212890625 c 0,9,10
 341.565429688 -0.5947265625 341.565429688 -0.5947265625 326.6640625 -2.69921875 c 128,-1,11
 311.760742188 -4.8037109375 311.760742188 -4.8037109375 296.37109375 -6.203125 c 128,-1,12
 280.982421875 -7.6025390625 280.982421875 -7.6025390625 265.110351562 -8.30078125 c 128,-1,13
 249.239257812 -9 249.239257812 -9 232.865234375 -9 c 0,14,15
 180.768554688 -9 180.768554688 -9 125.04296875 -3.9541015625 c 0,16,17
 72.44140625 0.9677734375 72.44140625 0.9677734375 21.8515625 11.7978515625 c 2,18,-1
 14 13.4794921875 l 1,19,-1
 14 21.3017578125 l 1,20,-1
 14 710.264648438 l 1,21,-1
 14 718.475585938 l 1,22,-1
 22.3173828125 719.857421875 l 2,23,24
 43.0048828125 723.389648438 43.0048828125 723.389648438 65.794921875 726.411132812 c 128,-1,25
 88.5859375 729.43359375 88.5859375 729.43359375 113.495117188 731.94921875 c 0,26,27
 138.826171875 734.474609375 138.826171875 734.474609375 165.290039062 735.737304688 c 128,-1,28
 191.754882812 737 191.754882812 737 217.821289062 737 c 0,29,30
 307.65234375 737 307.65234375 737 365.16015625 719.504882812 c 0,31,32
 423.205078125 702.298828125 423.205078125 702.298828125 454.318359375 674.081054688 c 0,33,34
 485.768554688 645.559570312 485.768554688 645.559570312 497.0546875 610.00390625 c 0,35,36
 508 575.5234375 508 575.5234375 508 540.004882812 c 0,37,38
 508 486.625 508 486.625 481.48046875 445.344726562 c 0,39,40
 471.041992188 429.096679688 471.041992188 429.096679688 457.37109375 415.408203125 c 128,-1,41
 443.700195312 401.71875 443.700195312 401.71875 427.428710938 390.98828125 c 1,42,43
 489.482421875 364.729492188 489.482421875 364.729492188 514.165039062 323.045898438 c 0,0,1
254.358398438 309 m 2,44,-1
 181.283203125 309 l 1,45,-1
 181.283203125 120 l 2,46,47
 184.650390625 120 184.650390625 120 187.76953125 120 c 0,48,49
 190.888671875 122.009765625 190.888671875 122.009765625 194.044921875 123.721679688 c 128,-1,50
 197.200195312 125.432617188 197.200195312 125.432617188 200.364257812 126.856445312 c 128,-1,51
 203.52734375 128.28125 203.52734375 128.28125 207.1171875 129.631835938 c 0,52,53
 226.716796875 137.002929688 226.716796875 137.002929688 245.760742188 137 c 0,54,55
 250.9609375 137 250.9609375 137 256.094726562 135.935546875 c 128,-1,56
 261.229492188 134.87109375 261.229492188 134.87109375 266.291992188 132.745117188 c 128,-1,57
 271.356445312 130.619140625 271.356445312 130.619140625 276.354492188 127.431640625 c 128,-1,58
 281.354492188 124.243164062 281.354492188 124.243164062 286.282226562 120 c 0,59,60
 291.2109375 120 291.2109375 120 296.078125 120 c 0,61,62
 307.771484375 121.96484375 307.771484375 121.96484375 317.946289062 125.595703125 c 128,-1,63
 328.119140625 129.2265625 328.119140625 129.2265625 336.874023438 134.5078125 c 0,64,65
 353.911132812 144.787109375 353.911132812 144.787109375 365.442382812 164.235351562 c 128,-1,66
 376.865234375 183.501953125 376.865234375 183.501953125 376.865234375 214.575195312 c 0,67,68
 376.865234375 265.220703125 376.865234375 265.220703125 345.529296875 286.4609375 c 0,69,70
 312.278320312 309 312.278320312 309 254.358398438 309 c 2,44,-1
181.283203125 449 m 1,71,-1
 231.791015625 449 l 2,72,73
 250.549804688 449 250.549804688 449 266.140625 451.776367188 c 128,-1,74
 281.731445312 454.551757812 281.731445312 454.551757812 293.638671875 459.7734375 c 128,-1,75
 305.546875 464.994140625 305.546875 464.994140625 314.517578125 472.694335938 c 0,76,77
 341.403320312 495.770507812 341.403320312 495.770507812 341.403320312 535.908203125 c 0,78,79
 341.403320312 548.720703125 341.403320312 548.720703125 339.369140625 558.748046875 c 128,-1,80
 337.334960938 568.776367188 337.334960938 568.776367188 333.524414062 575.938476562 c 0,81,82
 325.776367188 590.499023438 325.776367188 590.499023438 313.258789062 598.087890625 c 0,83,84
 308.900390625 600.729492188 308.900390625 600.729492188 304.002929688 602.814453125 c 128,-1,85
 299.10546875 604.8984375 299.10546875 604.8984375 293.5 606.4609375 c 128,-1,86
 287.895507812 608.022460938 287.895507812 608.022460938 281.697265625 609 c 0,87,88
 271.911132812 600.005859375 271.911132812 600.005859375 261.854492188 595.502929688 c 128,-1,89
 251.797851562 591 251.797851562 591 241.462890625 591 c 0,90,91
 233.02734375 591 233.02734375 591 224.1796875 592.544921875 c 128,-1,92
 215.33203125 594.088867188 215.33203125 594.088867188 206.075195312 597.182617188 c 0,93,94
 193.412109375 601.415039062 193.412109375 601.415039062 181.283203125 609 c 1,95,-1
 181.283203125 449 l 1,71,-1
EndSplineSet
EndChar

StartChar: C
Encoding: 67 67 38
Width: 550
VWidth: 1177
Flags: W
LayerCount: 2
Fore
SplineSet
405.409179688 -11.0341796875 m 128,-1,1
 372.669921875 -15 372.669921875 -15 335.71484375 -15 c 0,2,3
 166.477539062 -15 166.477539062 -15 78.779296875 84.923828125 c 0,4,5
 36.7138671875 134.66796875 36.7138671875 134.66796875 15.857421875 204.677734375 c 128,-1,6
 -5 274.6875 -5 274.6875 -5 364.665039062 c 0,7,8
 -5 454.896484375 -5 454.896484375 20.0537109375 525.081054688 c 0,9,10
 45.224609375 595.58984375 45.224609375 595.58984375 91.09765625 644.763671875 c 0,11,12
 138.543945312 694.055664062 138.543945312 694.055664062 205.22265625 719.71484375 c 0,13,14
 227.40625 728.484375 227.40625 728.484375 251.0078125 734.330078125 c 128,-1,15
 274.609375 740.176757812 274.609375 740.176757812 299.505859375 743.087890625 c 128,-1,16
 324.40234375 746 324.40234375 746 350.641601562 746 c 0,17,18
 393.33203125 746 393.33203125 746 427.467773438 739.287109375 c 0,19,20
 443.869140625 735.970703125 443.869140625 735.970703125 457.8203125 732.130859375 c 128,-1,21
 471.770507812 728.291015625 471.770507812 728.291015625 483.901367188 723.903320312 c 0,22,23
 508.291015625 715.08203125 508.291015625 715.08203125 525.10546875 705.098632812 c 0,24,25
 530.33203125 701.995117188 530.33203125 701.995117188 534.75390625 699.454101562 c 128,-1,26
 539.174804688 696.9140625 539.174804688 696.9140625 542.587890625 695.046875 c 128,-1,27
 546 693.1796875 546 693.1796875 548.471679688 691.944335938 c 2,28,-1
 556.127929688 688.116210938 l 1,29,-1
 553.52734375 679.9609375 l 1,30,-1
 516.52734375 563.9609375 l 1,31,-1
 512.494140625 551.318359375 l 1,32,-1
 501.453125 558.6796875 l 2,33,34
 475.600585938 575.915039062 475.600585938 575.915039062 438.412109375 587.98828125 c 0,35,36
 418.880859375 593.966796875 418.880859375 593.966796875 396.109375 596.983398438 c 128,-1,37
 373.337890625 600 373.337890625 600 347.443359375 600 c 0,38,39
 313.169921875 600 313.169921875 600 280.365234375 609 c 0,40,41
 264.294921875 603.193359375 264.294921875 603.193359375 250.067382812 593.544921875 c 128,-1,42
 235.838867188 583.897460938 235.838867188 583.897460938 223.303710938 570.236328125 c 0,43,44
 198.020507812 542.68359375 198.020507812 542.68359375 181.626953125 496.474609375 c 0,45,46
 177.541015625 484.9609375 177.541015625 484.9609375 174.458984375 471.909179688 c 128,-1,47
 171.376953125 458.857421875 171.376953125 458.857421875 169.295898438 444.235351562 c 128,-1,48
 167.213867188 429.61328125 167.213867188 429.61328125 166.163085938 413.376953125 c 128,-1,49
 165.114257812 397.141601562 165.114257812 397.141601562 165.114257812 379.43359375 c 0,50,51
 165.114257812 257.171875 165.114257812 257.171875 209.25390625 193.038085938 c 0,52,53
 223.475585938 172.374023438 223.475585938 172.374023438 243.548828125 158.6640625 c 128,-1,54
 263.62109375 144.954101562 263.62109375 144.954101562 290.390625 137.977539062 c 128,-1,55
 317.158203125 131 317.158203125 131 350.641601562 131 c 0,56,57
 380.221679688 131 380.221679688 131 404.44921875 134.143554688 c 128,-1,58
 428.677734375 137.286132812 428.677734375 137.286132812 446.685546875 143.434570312 c 0,59,60
 464.754882812 149.783203125 464.754882812 149.783203125 479.112304688 156.111328125 c 128,-1,61
 493.469726562 162.438476562 493.469726562 162.438476562 503.913085938 168.609375 c 2,62,-1
 514.774414062 175.02734375 l 1,63,-1
 518.54296875 162.987304688 l 1,64,-1
 554.54296875 47.9873046875 l 1,65,-1
 556.872070312 40.5478515625 l 1,66,-1
 550.225585938 36.4736328125 l 2,67,68
 534.010742188 26.5361328125 534.010742188 26.5361328125 512.71875 17.6865234375 c 128,-1,69
 491.426757812 8.8369140625 491.426757812 8.8369140625 464.856445312 0.9169921875 c 0,70,0
 438.069335938 -7.068359375 438.069335938 -7.068359375 405.409179688 -11.0341796875 c 128,-1,1
EndSplineSet
EndChar

StartChar: D
Encoding: 68 68 39
Width: 550
VWidth: 1177
Flags: W
LayerCount: 2
Fore
SplineSet
178.223632812 609 m 2,0,-1
 178.223632812 137.0625 l 1,1,2
 180.295898438 137 180.295898438 137 181.979492188 137 c 2,3,-1
 195.395507812 137 l 2,4,5
 245.25390625 137 245.25390625 137 279.346679688 153.5546875 c 0,6,7
 296.408203125 161.838867188 296.408203125 161.838867188 309.984375 173.288085938 c 128,-1,8
 323.559570312 184.737304688 323.559570312 184.737304688 333.852539062 199.522460938 c 0,9,10
 354.822265625 229.647460938 354.822265625 229.647460938 364.1015625 271.514648438 c 0,11,12
 368.8203125 292.806640625 368.8203125 292.806640625 371.189453125 316.169921875 c 128,-1,13
 373.556640625 339.534179688 373.556640625 339.534179688 373.556640625 364.958007812 c 0,14,15
 373.556640625 376.032226562 373.556640625 376.032226562 373.094726562 386.985351562 c 128,-1,16
 372.633789062 397.939453125 372.633789062 397.939453125 371.709960938 408.76953125 c 128,-1,17
 370.78515625 419.599609375 370.78515625 419.599609375 369.40234375 430.307617188 c 128,-1,18
 368.017578125 441.014648438 368.017578125 441.014648438 366.171875 451.603515625 c 0,19,20
 358.935546875 493.116210938 358.935546875 493.116210938 340.459960938 524.260742188 c 0,21,22
 322.40234375 554.700195312 322.40234375 554.700195312 291.905273438 572.994140625 c 0,23,24
 261.885742188 591 261.885742188 591 213.640625 591 c 0,25,26
 211.766601562 591 211.766601562 591 209.760742188 591.233398438 c 128,-1,27
 207.75390625 591.466796875 207.75390625 591.466796875 205.608398438 591.935546875 c 128,-1,28
 203.462890625 592.405273438 203.462890625 592.405273438 201.188476562 593.108398438 c 128,-1,29
 198.915039062 593.8125 198.915039062 593.8125 196.500976562 594.755859375 c 128,-1,30
 194.087890625 595.69921875 194.087890625 595.69921875 191.548828125 596.877929688 c 0,31,32
 188.231445312 598.418945312 188.231445312 598.418945312 184.721679688 601.697265625 c 128,-1,33
 181.211914062 604.975585938 181.211914062 604.975585938 178.223632812 609 c 2,0,-1
538.147460938 455.811523438 m 128,-1,35
 544 413.935546875 544 413.935546875 544 365.04296875 c 0,36,37
 544 315.123046875 544 315.123046875 537.50390625 272.333007812 c 128,-1,38
 531.0078125 229.54296875 531.0078125 229.54296875 517.918945312 193.806640625 c 128,-1,39
 504.833984375 158.083007812 504.833984375 158.083007812 486.755859375 128.912109375 c 128,-1,40
 468.676757812 99.740234375 468.676757812 99.740234375 445.571289062 77.2421875 c 0,41,42
 396.796875 32.310546875 396.796875 32.310546875 328.629882812 11.5908203125 c 0,43,44
 294.49609375 1.3525390625 294.49609375 1.3525390625 257.151367188 -3.7548828125 c 128,-1,45
 219.805664062 -9 219.805664062 -9 179.296875 -9 c 0,46,47
 136.861328125 -9 136.861328125 -9 98.9248046875 -4.9423828125 c 0,48,49
 80.146484375 -2.912109375 80.146484375 -2.912109375 60.14453125 0.3798828125 c 128,-1,50
 40.142578125 3.6708984375 40.142578125 3.6708984375 18.904296875 8.2216796875 c 2,51,-1
 11 9.916015625 l 1,52,-1
 11 17.7783203125 l 1,53,-1
 11 710.267578125 l 1,54,-1
 11 718.051757812 l 1,55,-1
 18.8095703125 719.756835938 l 2,56,57
 68.552734375 730.923828125 68.552734375 730.923828125 112.811523438 733.9765625 c 0,58,59
 158.53515625 737 158.53515625 737 199.688476562 737 c 0,60,61
 278.801757812 737 278.801757812 737 344.39453125 715.997070312 c 0,62,63
 366.473632812 708.926757812 366.473632812 708.926757812 386.333984375 699.069335938 c 128,-1,64
 406.194335938 689.211914062 406.194335938 689.211914062 423.798828125 676.576171875 c 0,65,66
 440.21484375 663.94140625 440.21484375 663.94140625 454.428710938 648.581054688 c 0,67,68
 496.841796875 602.750976562 496.841796875 602.750976562 520.5 532.639648438 c 0,69,34
 532.294921875 497.686523438 532.294921875 497.686523438 538.147460938 455.811523438 c 128,-1,35
EndSplineSet
EndChar

StartChar: E
Encoding: 69 69 40
Width: 550
VWidth: 1177
Flags: W
LayerCount: 2
Fore
SplineSet
25 0 m 1,0,-1
 25 10 l 1,1,-1
 25 719 l 1,2,-1
 25 729 l 1,3,-1
 35 729 l 1,4,-1
 497 729 l 1,5,-1
 507 729 l 1,6,-1
 507 719 l 1,7,-1
 507 617.461914062 l 1,8,-1
 507 609 l 1,9,-1
 497 609 l 1,10,-1
 193.62890625 609 l 1,11,-1
 193.62890625 455 l 1,12,-1
 458 455 l 1,13,-1
 468 455 l 1,14,-1
 468 445 l 1,15,-1
 468 325 l 1,16,-1
 468 315 l 1,17,-1
 458 315 l 1,18,-1
 193.62890625 315 l 1,19,-1
 193.62890625 120 l 1,20,-1
 523 120 l 1,21,-1
 533 120 l 1,22,-1
 533 111.538085938 l 1,23,-1
 533 10 l 1,24,-1
 533 0 l 1,25,-1
 523 0 l 1,26,-1
 35 0 l 1,27,-1
 25 0 l 1,0,-1
EndSplineSet
EndChar

StartChar: F
Encoding: 70 70 41
Width: 550
VWidth: 1177
Flags: W
LayerCount: 2
Fore
SplineSet
33 0 m 1,0,-1
 33 10 l 1,1,-1
 33 719 l 1,2,-1
 33 729 l 1,3,-1
 43 729 l 1,4,-1
 510 729 l 1,5,-1
 520 729 l 1,6,-1
 520 719 l 1,7,-1
 520 617.461914062 l 1,8,-1
 520 609 l 1,9,-1
 510 609 l 1,10,-1
 201.96484375 609 l 1,11,-1
 201.96484375 442 l 1,12,-1
 472 442 l 1,13,-1
 482 442 l 1,14,-1
 482 432 l 1,15,-1
 482 312 l 1,16,-1
 482 302 l 1,17,-1
 472 302 l 1,18,-1
 201.96484375 302 l 1,19,-1
 201.96484375 10 l 1,20,-1
 201.96484375 0 l 1,21,-1
 191.083984375 0 l 1,22,-1
 43 0 l 1,23,-1
 33 0 l 1,0,-1
EndSplineSet
EndChar

StartChar: G
Encoding: 71 71 42
Width: 550
VWidth: 1177
Flags: W
LayerCount: 2
Fore
SplineSet
397.475585938 596.7734375 m 128,-1,1
 377.580078125 600 377.580078125 600 357.135742188 600 c 0,2,3
 304.34765625 600 304.34765625 600 269.375 582.939453125 c 0,4,5
 251.787109375 574.359375 251.787109375 574.359375 237.27734375 562.555664062 c 128,-1,6
 222.765625 550.751953125 222.765625 550.751953125 211.180664062 535.586914062 c 0,7,8
 187.825195312 505.017578125 187.825195312 505.017578125 177.595703125 462.270507812 c 0,9,10
 167.162109375 418.669921875 167.162109375 418.669921875 167.162109375 365.020507812 c 0,11,12
 167.162109375 242.282226562 167.162109375 242.282226562 209.126953125 185.713867188 c 0,13,14
 249.716796875 131 249.716796875 131 330.454101562 131 c 0,15,16
 343.97265625 131 343.97265625 131 359.627929688 131.977539062 c 0,17,18
 369.638671875 132.603515625 369.638671875 132.603515625 379.547851562 133.715820312 c 1,19,-1
 379.547851562 392 l 1,20,-1
 379.547851562 402 l 1,21,-1
 390.220703125 402 l 1,22,-1
 538 402 l 1,23,-1
 548 402 l 1,24,-1
 548 392 l 1,25,-1
 548 28 l 1,26,-1
 548 20.87890625 l 1,27,-1
 541.271484375 18.5498046875 l 2,28,29
 514.719726562 9.359375 514.719726562 9.359375 459.650390625 -2.765625 c 0,30,31
 402.0546875 -15 402.0546875 -15 317.646484375 -15 c 0,32,33
 242.844726562 -15 242.844726562 -15 182.104492188 9.8349609375 c 0,34,35
 151.616210938 21.958984375 151.616210938 21.958984375 125.499023438 40.0634765625 c 0,36,37
 100.491210938 58.16796875 100.491210938 58.16796875 80.271484375 82.12109375 c 0,38,39
 39.9794921875 129.8515625 39.9794921875 129.8515625 18.4052734375 201.294921875 c 0,40,41
 -3 272.180664062 -3 272.180664062 -3 365.0078125 c 0,42,43
 -3 457.083007812 -3 457.083007812 22.0400390625 528.159179688 c 0,44,45
 47.1875 599.541992188 47.1875 599.541992188 91.0126953125 647.68359375 c 0,46,47
 101.991210938 659.743164062 101.991210938 659.743164062 114.000976562 670.349609375 c 0,48,49
 126.616210938 680.956054688 126.616210938 680.956054688 140.509765625 690.090820312 c 128,-1,50
 154.403320312 699.225585938 154.403320312 699.225585938 169.375 706.885742188 c 128,-1,51
 184.348632812 714.546875 184.348632812 714.546875 200.362304688 720.711914062 c 0,52,53
 264.255859375 746 264.255859375 746 335.790039062 746 c 0,54,55
 381.625976562 746 381.625976562 746 418.907226562 739.322265625 c 0,56,57
 426.290039062 738 426.290039062 738 433.255859375 736.59765625 c 0,58,59
 439.848632812 735.194335938 439.848632812 735.194335938 446.029296875 733.701171875 c 128,-1,60
 452.208984375 732.208007812 452.208984375 732.208007812 458.006835938 730.630859375 c 128,-1,61
 463.803710938 729.052734375 463.803710938 729.052734375 469.252929688 727.380859375 c 128,-1,62
 474.702148438 725.708007812 474.702148438 725.708007812 479.77734375 723.947265625 c 0,63,64
 505.234375 715.115234375 505.234375 715.115234375 522.10546875 705.098632812 c 0,65,66
 537.599609375 695.899414062 537.599609375 695.899414062 546.061523438 692.137695312 c 2,67,-1
 554.314453125 688.469726562 l 1,68,-1
 551.502929688 679.88671875 l 1,69,-1
 513.502929688 563.88671875 l 1,70,-1
 509.556640625 551.838867188 l 1,71,-1
 498.758789062 558.483398438 l 2,72,73
 473.658203125 573.930664062 473.658203125 573.930664062 436.65234375 587.077148438 c 0,74,0
 417.373046875 593.546875 417.373046875 593.546875 397.475585938 596.7734375 c 128,-1,1
EndSplineSet
EndChar

StartChar: H
Encoding: 72 72 43
Width: 550
VWidth: 1177
Flags: W
LayerCount: 2
Fore
SplineSet
536 729 m 1,0,-1
 536 719 l 1,1,-1
 536 10 l 1,2,-1
 536 0 l 1,3,-1
 526 0 l 1,4,-1
 378.338867188 0 l 1,5,-1
 367.578125 0 l 1,6,-1
 367.578125 10 l 1,7,-1
 367.578125 312 l 1,8,-1
 181.421875 312 l 1,9,-1
 181.421875 10 l 1,10,-1
 181.421875 0 l 1,11,-1
 170.661132812 0 l 1,12,-1
 23 0 l 1,13,-1
 13 0 l 1,14,-1
 13 10 l 1,15,-1
 13 719 l 1,16,-1
 13 729 l 1,17,-1
 23 729 l 1,18,-1
 170.661132812 729 l 1,19,-1
 181.421875 729 l 1,20,-1
 181.421875 719 l 1,21,-1
 181.421875 452 l 1,22,-1
 367.578125 452 l 1,23,-1
 367.578125 719 l 1,24,-1
 367.578125 729 l 1,25,-1
 378.338867188 729 l 1,26,-1
 526 729 l 1,27,-1
 536 729 l 1,0,-1
EndSplineSet
EndChar

StartChar: I
Encoding: 73 73 44
Width: 550
VWidth: 1177
Flags: W
LayerCount: 2
Fore
SplineSet
24 0 m 1,0,-1
 24 10 l 1,1,-1
 24 111.538085938 l 1,2,-1
 24 120 l 1,3,-1
 34 120 l 1,4,-1
 186.209960938 120 l 1,5,-1
 186.209960938 609 l 1,6,-1
 34 609 l 1,7,-1
 24 609 l 1,8,-1
 24 617.461914062 l 1,9,-1
 24 719 l 1,10,-1
 24 729 l 1,11,-1
 34 729 l 1,12,-1
 517 729 l 1,13,-1
 527 729 l 1,14,-1
 527 719 l 1,15,-1
 527 617.461914062 l 1,16,-1
 527 609 l 1,17,-1
 517 609 l 1,18,-1
 365.872070312 609 l 1,19,-1
 365.872070312 120 l 1,20,-1
 517 120 l 1,21,-1
 527 120 l 1,22,-1
 527 111.538085938 l 1,23,-1
 527 10 l 1,24,-1
 527 0 l 1,25,-1
 517 0 l 1,26,-1
 34 0 l 1,27,-1
 24 0 l 1,0,-1
EndSplineSet
EndChar

StartChar: J
Encoding: 74 74 45
Width: 550
VWidth: 1177
Flags: W
LayerCount: 2
Fore
SplineSet
525.534179688 719 m 1,0,-1
 525.534179688 247.23828125 l 2,1,2
 525.534179688 220.813476562 525.534179688 220.813476562 522.064453125 195.815429688 c 128,-1,3
 518.594726562 170.81640625 518.594726562 170.81640625 511.645507812 147.282226562 c 0,4,5
 497.518554688 99.4443359375 497.518554688 99.4443359375 464.513671875 63.263671875 c 128,-1,6
 431.486328125 27.0576171875 431.486328125 27.0576171875 377.802734375 6.2607421875 c 0,7,8
 349.932617188 -4.4248046875 349.932617188 -4.4248046875 316.63671875 -9.7119140625 c 128,-1,9
 283.33984375 -15 283.33984375 -15 244.591796875 -15 c 0,10,11
 162.70703125 -15 162.70703125 -15 109.533203125 4.1328125 c 0,12,13
 58.6201171875 23.1611328125 58.6201171875 23.1611328125 22.42578125 51.08203125 c 2,14,-1
 16 56.0390625 l 1,15,-1
 19.5283203125 63.34765625 l 1,16,-1
 75.5283203125 179.34765625 l 1,17,-1
 80.482421875 189.609375 l 1,18,-1
 90.013671875 183.364257812 l 2,19,20
 118.479492188 164.71484375 118.479492188 164.71484375 155.340820312 147.494140625 c 0,21,22
 173.739257812 139.213867188 173.739257812 139.213867188 192.497070312 135.106445312 c 128,-1,23
 211.254882812 131 211.254882812 131 230.549804688 131 c 0,24,25
 288.078125 131 288.078125 131 322.294921875 158.545898438 c 0,26,27
 355.84765625 185.556640625 355.84765625 185.556640625 355.84765625 262 c 2,28,-1
 355.84765625 609 l 1,29,-1
 105.534179688 609 l 1,30,-1
 95.5341796875 609 l 1,31,-1
 95.5341796875 617.461914062 l 1,32,-1
 95.5341796875 719 l 1,33,-1
 95.5341796875 729 l 1,34,-1
 105.534179688 729 l 1,35,-1
 515.534179688 729 l 1,36,-1
 525.534179688 729 l 1,37,-1
 525.534179688 719 l 1,0,-1
EndSplineSet
EndChar

StartChar: K
Encoding: 75 75 46
Width: 550
VWidth: 1177
Flags: W
LayerCount: 2
Fore
SplineSet
363.435546875 0 m 1,0,-1
 361.079101562 6.9775390625 l 2,1,2
 347.484375 47.2294921875 347.484375 47.2294921875 322.29296875 94.5283203125 c 128,-1,3
 297.005859375 142.005859375 297.005859375 142.005859375 265.923828125 186.517578125 c 128,-1,4
 234.817382812 231.064453125 234.817382812 231.064453125 200.565429688 270.146484375 c 0,5,6
 188.551757812 283.854492188 188.551757812 283.854492188 176.803710938 296.21484375 c 128,-1,7
 165.056640625 308.576171875 165.056640625 308.576171875 153.93359375 319.26171875 c 1,8,-1
 153.93359375 10 l 1,9,-1
 153.93359375 0 l 1,10,-1
 143.28125 0 l 1,11,-1
 -4 0 l 1,12,-1
 -14 0 l 1,13,-1
 -14 10 l 1,14,-1
 -14 719 l 1,15,-1
 -14 729 l 1,16,-1
 -4 729 l 1,17,-1
 143.28125 729 l 1,18,-1
 153.93359375 729 l 1,19,-1
 153.93359375 719 l 1,20,-1
 153.93359375 445.3671875 l 1,21,22
 172.630859375 468.65625 172.630859375 468.65625 192.075195312 494.734375 c 0,23,24
 221.754882812 534.5390625 221.754882812 534.5390625 248.776367188 574.828125 c 128,-1,25
 275.760742188 615.063476562 275.760742188 615.063476562 297.969726562 653.288085938 c 128,-1,26
 320.18359375 691.520507812 320.18359375 691.520507812 336.0234375 723.244140625 c 2,27,-1
 338.897460938 729 l 1,28,-1
 345.66796875 729 l 1,29,-1
 514 729 l 1,30,-1
 530.180664062 729 l 1,31,-1
 522.944335938 714.9140625 l 2,32,33
 506.826171875 683.5390625 506.826171875 683.5390625 483.6953125 643.896484375 c 128,-1,34
 460.512695312 604.1640625 460.512695312 604.1640625 430.676757812 561.0390625 c 0,35,36
 414.905273438 539.544921875 414.905273438 539.544921875 398.069335938 517.568359375 c 128,-1,37
 381.233398438 495.592773438 381.233398438 495.592773438 363.333007812 473.1328125 c 0,38,39
 355.159179688 462.877929688 355.159179688 462.877929688 346.623046875 452.584960938 c 128,-1,40
 338.0859375 442.291015625 338.0859375 442.291015625 329.407226562 432.219726562 c 128,-1,41
 320.729492188 422.1484375 320.729492188 422.1484375 311.922851562 412.296875 c 128,-1,42
 303.115234375 402.446289062 303.115234375 402.446289062 294.258789062 392.90234375 c 1,43,44
 330.903320312 360.278320312 330.903320312 360.278320312 367.239257812 319.551757812 c 0,45,46
 387.411132812 296.942382812 387.411132812 296.942382812 406.499023438 272.745117188 c 128,-1,47
 425.587890625 248.548828125 425.587890625 248.548828125 442.9296875 222.767578125 c 0,48,49
 476.720703125 171.225585938 476.720703125 171.225585938 503.9609375 117.709960938 c 128,-1,50
 531.28125 64.0361328125 531.28125 64.0361328125 548.504882812 12.7578125 c 2,51,-1
 552.790039062 0 l 1,52,-1
 539 0 l 1,53,-1
 371.232421875 0 l 1,54,-1
 363.435546875 0 l 1,0,-1
EndSplineSet
EndChar

StartChar: L
Encoding: 76 76 47
Width: 550
VWidth: 1177
Flags: W
LayerCount: 2
Fore
SplineSet
531 0 m 1,0,-1
 521 0 l 1,1,-1
 43 0 l 1,2,-1
 33 0 l 1,3,-1
 33 10 l 1,4,-1
 33 719 l 1,5,-1
 33 729 l 1,6,-1
 43 729 l 1,7,-1
 192.025390625 729 l 1,8,-1
 202.865234375 729 l 1,9,-1
 202.865234375 719 l 1,10,-1
 202.865234375 120 l 1,11,-1
 521 120 l 1,12,-1
 531 120 l 1,13,-1
 531 111.538085938 l 1,14,-1
 531 10 l 1,15,-1
 531 0 l 1,0,-1
EndSplineSet
EndChar

StartChar: M
Encoding: 77 77 48
Width: 550
VWidth: 1177
Flags: W
LayerCount: 2
Fore
SplineSet
171.6015625 729 m 1,0,-1
 173.967773438 722.047851562 l 2,1,2
 182.463867188 697.078125 182.463867188 697.078125 195.751953125 658.587890625 c 128,-1,3
 209.06640625 620.01953125 209.06640625 620.01953125 223.969726562 574.970703125 c 128,-1,4
 238.8671875 529.940429688 238.8671875 529.940429688 253.762695312 483.911132812 c 0,5,6
 263.10546875 455.041992188 263.10546875 455.041992188 272.19921875 428.439453125 c 1,7,8
 277.624023438 444.211914062 277.624023438 444.211914062 282.795898438 459.01953125 c 128,-1,9
 287.96875 473.827148438 287.96875 473.827148438 293.581054688 489.662109375 c 0,10,11
 310.051757812 536.131835938 310.051757812 536.131835938 324.92578125 579.095703125 c 128,-1,12
 339.8046875 622.075195312 339.8046875 622.075195312 352.555664062 659.547851562 c 0,13,14
 358.963867188 678.377929688 358.963867188 678.377929688 364.572265625 694.078125 c 128,-1,15
 370.181640625 709.778320312 370.181640625 709.778320312 375.009765625 722.38671875 c 2,16,-1
 377.540039062 729 l 1,17,-1
 385.013671875 729 l 1,18,-1
 508.454101562 729 l 1,19,-1
 517.647460938 729 l 1,20,-1
 518.418945312 719.838867188 l 2,21,22
 526.41796875 627.424804688 526.41796875 627.424804688 534.416015625 538.903320312 c 128,-1,23
 542.4296875 450.213867188 542.4296875 450.213867188 547.438476562 363.462890625 c 128,-1,24
 552.443359375 276.784179688 552.443359375 276.784179688 555.946289062 189.133789062 c 128,-1,25
 559.448242188 101.53125 559.448242188 101.53125 562.44921875 10.0400390625 c 2,26,-1
 562.778320312 0 l 1,27,-1
 552.454101562 0 l 1,28,-1
 417.9765625 0 l 1,29,-1
 407.211914062 0 l 1,30,-1
 407.344726562 10.123046875 l 1,31,-1
 413.825195312 503.801757812 l 1,32,-1
 339.9296875 265.203125 l 1,33,-1
 337.698242188 258 l 1,34,-1
 329.719726562 258 l 1,35,-1
 217.006835938 258 l 1,36,-1
 208.928710938 258 l 1,37,-1
 206.762695312 265.318359375 l 1,38,-1
 137.05078125 500.877929688 l 1,39,-1
 142.573242188 10.10546875 l 1,40,-1
 142.686523438 0 l 1,41,-1
 131.939453125 0 l 1,42,-1
 -2.5458984375 0 l 1,43,-1
 -13 0 l 1,44,-1
 -12.5361328125 10.162109375 l 2,45,46
 -8.5361328125 97.7138671875 -8.5361328125 97.7138671875 -4.537109375 191.592773438 c 128,-1,47
 -0.5361328125 285.512695312 -0.5361328125 285.512695312 3.9658203125 377.974609375 c 128,-1,48
 8.470703125 470.521484375 8.470703125 470.521484375 14.98046875 558.215820312 c 128,-1,49
 21.4921875 645.942382812 21.4921875 645.942382812 29.5087890625 720.046875 c 2,50,-1
 30.4521484375 729 l 1,51,-1
 39.4541015625 729 l 1,52,-1
 163.83984375 729 l 1,53,-1
 171.6015625 729 l 1,0,-1
EndSplineSet
EndChar

StartChar: N
Encoding: 78 78 49
Width: 550
VWidth: 1177
Flags: W
LayerCount: 2
Fore
SplineSet
400.208007812 0 m 1,0,-1
 397.484375 6.24609375 l 2,1,2
 344.862304688 126.942382812 344.862304688 126.942382812 282.033203125 247.647460938 c 0,3,4
 228.192382812 351.083984375 228.192382812 351.083984375 167.375 454.990234375 c 1,5,-1
 167.375 10 l 1,6,-1
 167.375 0 l 1,7,-1
 156.609375 0 l 1,8,-1
 24 0 l 1,9,-1
 14 0 l 1,10,-1
 14 10 l 1,11,-1
 14 719 l 1,12,-1
 14 729 l 1,13,-1
 24 729 l 1,14,-1
 141.536132812 729 l 1,15,-1
 147.456054688 729 l 1,16,-1
 150.626953125 724.358398438 l 2,17,18
 186.345703125 672.079101562 186.345703125 672.079101562 222.045898438 611.288085938 c 128,-1,19
 257.631835938 550.692382812 257.631835938 550.692382812 291.0625 490.58984375 c 128,-1,20
 324.526367188 430.432617188 324.526367188 430.432617188 353.151367188 373.74609375 c 0,21,22
 368.357421875 343.634765625 368.357421875 343.634765625 381.625 316.634765625 c 1,23,-1
 381.625 719 l 1,24,-1
 381.625 729 l 1,25,-1
 392.390625 729 l 1,26,-1
 525 729 l 1,27,-1
 535 729 l 1,28,-1
 535 719 l 1,29,-1
 535 10 l 1,30,-1
 535 0 l 1,31,-1
 525 0 l 1,32,-1
 407.463867188 0 l 1,33,-1
 400.208007812 0 l 1,0,-1
EndSplineSet
EndChar

StartChar: O
Encoding: 79 79 50
Width: 550
VWidth: 1177
Flags: W
LayerCount: 2
Fore
SplineSet
164.137695312 425.987304688 m 128,-1,1
 163.08203125 401.438476562 163.08203125 401.438476562 163.08203125 375.12890625 c 0,2,3
 163.08203125 322.530273438 163.08203125 322.530273438 167.3046875 276.43359375 c 0,4,5
 169.380859375 253.775390625 169.380859375 253.775390625 173.638671875 234.272460938 c 128,-1,6
 177.895507812 214.770507812 177.895507812 214.770507812 184.271484375 198.486328125 c 0,7,8
 186.068359375 193.896484375 186.068359375 193.896484375 188.063476562 189.591796875 c 128,-1,9
 190.05859375 185.287109375 190.05859375 185.287109375 192.233398438 181.296875 c 128,-1,10
 194.408203125 177.306640625 194.408203125 177.306640625 196.778320312 173.59375 c 128,-1,11
 199.150390625 169.879882812 199.150390625 169.879882812 201.6953125 166.469726562 c 128,-1,12
 204.241210938 163.05859375 204.241210938 163.05859375 206.981445312 159.916992188 c 128,-1,13
 209.72265625 156.774414062 209.72265625 156.774414062 212.630859375 153.923828125 c 128,-1,14
 215.541015625 151.07421875 215.541015625 151.07421875 218.64453125 148.483398438 c 0,15,16
 239.591796875 131 239.591796875 131 274.966796875 131 c 128,-1,17
 310.408203125 131 310.408203125 131 331.91015625 147.828125 c 0,18,19
 339.322265625 153.629882812 339.322265625 153.629882812 345.623046875 160.841796875 c 128,-1,20
 351.923828125 168.0546875 351.923828125 168.0546875 357.228515625 176.90234375 c 128,-1,21
 362.533203125 185.750976562 362.533203125 185.750976562 366.7109375 196.12890625 c 0,22,23
 379.5546875 228.03515625 379.5546875 228.03515625 383.6953125 270.900390625 c 0,24,25
 385.805664062 292.735351562 385.805664062 292.735351562 386.862304688 316.268554688 c 128,-1,26
 387.91796875 339.80078125 387.91796875 339.80078125 387.91796875 365.020507812 c 0,27,28
 387.91796875 415.44140625 387.91796875 415.44140625 383.6953125 459.62890625 c 0,29,30
 379.552734375 502.96875 379.552734375 502.96875 366.7109375 534.87109375 c 0,31,32
 354.311523438 565.673828125 354.311523438 565.673828125 332.35546875 583.240234375 c 0,33,34
 311.408203125 600 311.408203125 600 274.966796875 600 c 0,35,36
 271.202148438 600 271.202148438 600 267.620117188 600.145507812 c 128,-1,37
 264.040039062 600.291015625 264.040039062 600.291015625 260.670898438 600.580078125 c 128,-1,38
 257.299804688 600.870117188 257.299804688 600.870117188 254.111328125 601.297851562 c 128,-1,39
 250.921875 601.7265625 250.921875 601.7265625 247.92578125 602.296875 c 128,-1,40
 244.930664062 602.8671875 244.930664062 602.8671875 242.11328125 603.5703125 c 128,-1,41
 239.295898438 604.272460938 239.295898438 604.272460938 236.653320312 605.115234375 c 128,-1,42
 234.01171875 605.958007812 234.01171875 605.958007812 231.545898438 606.92578125 c 128,-1,43
 229.080078125 607.893554688 229.080078125 607.893554688 226.771484375 609 c 0,44,45
 224.463867188 607.616210938 224.463867188 607.616210938 222.329101562 606.083984375 c 128,-1,46
 220.194335938 604.551757812 220.194335938 604.551757812 218.200195312 602.849609375 c 0,47,48
 196.728515625 584.521484375 196.728515625 584.521484375 184.3046875 551.859375 c 0,49,50
 177.905273438 535.032226562 177.905273438 535.032226562 173.642578125 515.387695312 c 128,-1,51
 169.380859375 495.7421875 169.380859375 495.7421875 167.3046875 473.314453125 c 0,52,0
 165.194335938 450.536132812 165.194335938 450.536132812 164.137695312 425.987304688 c 128,-1,1
10.3359375 201.591796875 m 128,-1,54
 -7 272.153320312 -7 272.153320312 -7 365.012695312 c 0,55,56
 -7 551.341796875 -7 551.341796875 64.3857421875 647.921875 c 0,57,58
 138.444335938 746 138.444335938 746 274.966796875 746 c 0,59,60
 416.89453125 746 416.89453125 746 488.680664062 648.319335938 c 0,61,62
 558 552.255859375 558 552.255859375 558 365.012695312 c 0,63,64
 558 178.70703125 558 178.70703125 487.640625 82.6259765625 c 0,65,66
 452.053710938 34.0302734375 452.053710938 34.0302734375 399.217773438 9.515625 c 0,67,68
 345.4609375 -15 345.4609375 -15 277.098632812 -15 c 0,69,70
 135.1953125 -15 135.1953125 -15 62.83984375 82.6533203125 c 0,71,53
 27.671875 131.03125 27.671875 131.03125 10.3359375 201.591796875 c 128,-1,54
EndSplineSet
EndChar

StartChar: P
Encoding: 80 80 51
Width: 550
VWidth: 1177
Flags: W
LayerCount: 2
Fore
SplineSet
213.424804688 736.887695312 m 128,-1,1
 221.376953125 737 221.376953125 737 228.6171875 737 c 0,2,3
 381.397460938 737 381.397460938 737 463.474609375 679.172851562 c 0,4,5
 490.45703125 659.461914062 490.45703125 659.461914062 508.423828125 631.393554688 c 128,-1,6
 526.390625 603.32421875 526.390625 603.32421875 535.1953125 567.766601562 c 128,-1,7
 544 532.208007812 544 532.208007812 544 488.951171875 c 0,8,9
 544 355.650390625 544 355.650390625 463.049804688 295.352539062 c 0,10,11
 380.380859375 236 380.380859375 236 224.323242188 236 c 2,12,-1
 179.235351562 236 l 1,13,-1
 179.235351562 10 l 1,14,-1
 179.235351562 0 l 1,15,-1
 168.5 0 l 1,16,-1
 22 0 l 1,17,-1
 12 0 l 1,18,-1
 12 10 l 1,19,-1
 12 710.266601562 l 1,20,-1
 12 717.948242188 l 1,21,-1
 19.68359375 719.728515625 l 2,22,23
 41.2734375 724.868164062 41.2734375 724.868164062 68.375 727.936523438 c 0,24,25
 95.0703125 730.958984375 95.0703125 730.958984375 122.26171875 732.97265625 c 0,26,27
 150.712890625 734.985351562 150.712890625 734.985351562 178.822265625 735.9921875 c 0,28,29
 188.1875 736.328125 188.1875 736.328125 196.830078125 736.551757812 c 128,-1,0
 205.47265625 736.775390625 205.47265625 736.775390625 213.424804688 736.887695312 c 128,-1,1
298.750976562 585.213867188 m 128,-1,31
 275.473632812 591 275.473632812 591 245.793945312 591 c 0,32,33
 238.903320312 591 238.903320312 591 229.284179688 592.20703125 c 128,-1,34
 219.666992188 593.415039062 219.666992188 593.415039062 207.380859375 595.829101562 c 0,35,36
 199.305664062 597.416015625 199.305664062 597.416015625 192.079101562 600.875976562 c 128,-1,37
 184.853515625 604.336914062 184.853515625 604.336914062 179.235351562 609 c 1,38,-1
 179.235351562 382 l 1,39,-1
 231.837890625 382 l 2,40,41
 302.228515625 382 302.228515625 382 337.967773438 406.7109375 c 0,42,43
 372.470703125 430.567382812 372.470703125 430.567382812 372.470703125 489.83984375 c 0,44,45
 372.470703125 504.39453125 372.470703125 504.39453125 370.290039062 516.577148438 c 128,-1,46
 368.109375 528.759765625 368.109375 528.759765625 363.830078125 538.3984375 c 128,-1,47
 359.549804688 548.036132812 359.549804688 548.036132812 353.43359375 555.3828125 c 128,-1,48
 347.31640625 562.729492188 347.31640625 562.729492188 339.231445312 568.069335938 c 0,49,30
 322.030273438 579.428710938 322.030273438 579.428710938 298.750976562 585.213867188 c 128,-1,31
EndSplineSet
EndChar

StartChar: Q
Encoding: 81 81 52
Width: 550
VWidth: 1177
Flags: W
LayerCount: 2
Fore
SplineSet
45.7294921875 109.05078125 m 0,0,1
 -7 202.799804688 -7 202.799804688 -7 362.116210938 c 0,2,3
 -7 548.395507812 -7 548.395507812 64.3994140625 644.461914062 c 0,4,5
 138.4609375 742 138.4609375 742 274.966796875 742 c 0,6,7
 416.89453125 742 416.89453125 742 488.680664062 644.349609375 c 0,8,9
 558 548.317382812 558 548.317382812 558 362.108398438 c 0,10,11
 558 198.8515625 558 198.8515625 503.732421875 104.1015625 c 0,12,13
 478.176757812 59.48046875 478.176757812 59.48046875 441.198242188 30.7763671875 c 0,14,15
 402.004882812 2.072265625 402.004882812 2.072265625 352.525390625 -9.640625 c 1,16,17
 368.727539062 -28.2822265625 368.727539062 -28.2822265625 406.708007812 -42.18359375 c 0,18,19
 432.688476562 -51.6923828125 432.688476562 -51.6923828125 466.885742188 -60.4697265625 c 0,20,21
 500.755859375 -69.2470703125 500.755859375 -69.2470703125 543.80859375 -77.1650390625 c 2,22,-1
 554.697265625 -79.1669921875 l 1,23,-1
 551.600585938 -89.796875 l 1,24,-1
 521.600585938 -192.796875 l 1,25,-1
 519.1875 -201.083984375 l 1,26,-1
 510.635742188 -199.90625 l 2,27,28
 366.076171875 -180.612304688 366.076171875 -180.612304688 289.54296875 -135.466796875 c 0,29,30
 270.703125 -124.352539062 270.703125 -124.352539062 255.471679688 -110.786132812 c 128,-1,31
 240.240234375 -97.21875 240.240234375 -97.21875 228.748046875 -81.3603515625 c 128,-1,32
 217.255859375 -65.5029296875 217.255859375 -65.5029296875 209.423828125 -47.40625 c 128,-1,33
 201.591796875 -29.3095703125 201.591796875 -29.3095703125 197.435546875 -9.0146484375 c 1,34,35
 97.4599609375 17.080078125 97.4599609375 17.080078125 45.7294921875 109.05078125 c 0,0,1
167.303710938 469.01953125 m 0,36,37
 163.08203125 423.95703125 163.08203125 423.95703125 163.08203125 371.395507812 c 128,-1,38
 163.08203125 318.829101562 163.08203125 318.829101562 167.3046875 273.26171875 c 0,39,40
 171.447265625 228.544921875 171.447265625 228.544921875 184.3046875 194.758789062 c 0,41,42
 190.567382812 178.303710938 190.567382812 178.303710938 199.1640625 165.625976562 c 128,-1,43
 207.760742188 152.948242188 207.760742188 152.948242188 218.64453125 143.869140625 c 0,44,45
 239.591796875 126.395507812 239.591796875 126.395507812 274.966796875 126.395507812 c 128,-1,46
 310.408203125 126.395507812 310.408203125 126.395507812 331.91015625 143.94140625 c 0,47,48
 339.307617188 149.978515625 339.307617188 149.978515625 345.602539062 157.540039062 c 128,-1,49
 351.895507812 165.1015625 351.895507812 165.1015625 357.205078125 174.4375 c 128,-1,50
 362.513671875 183.772460938 362.513671875 183.772460938 366.6953125 194.758789062 c 0,51,52
 379.552734375 228.544921875 379.552734375 228.544921875 383.6953125 273.26171875 c 0,53,54
 385.805664062 296.028320312 385.805664062 296.028320312 386.862304688 320.564453125 c 128,-1,55
 387.91796875 345.100585938 387.91796875 345.100585938 387.91796875 371.395507812 c 0,56,57
 387.91796875 423.965820312 387.91796875 423.965820312 383.6953125 470.038085938 c 0,58,59
 379.5546875 515.203125 379.5546875 515.203125 366.728515625 547.944335938 c 0,60,61
 354.33203125 579.588867188 354.33203125 579.588867188 332.35546875 597.920898438 c 0,62,63
 311.408203125 596 311.408203125 596 274.966796875 596 c 0,64,65
 271.202148438 596 271.202148438 596 267.620117188 596.369140625 c 128,-1,66
 264.040039062 596.739257812 264.040039062 596.739257812 260.670898438 597.474609375 c 128,-1,67
 257.299804688 598.209960938 257.299804688 598.209960938 254.111328125 599.298828125 c 128,-1,68
 250.921875 600.387695312 250.921875 600.387695312 247.92578125 601.837890625 c 128,-1,69
 244.930664062 603.287109375 244.930664062 603.287109375 242.11328125 605.073242188 c 128,-1,70
 239.295898438 606.858398438 239.295898438 606.858398438 236.653320312 609 c 0,71,72
 234.01171875 607.946289062 234.01171875 607.946289062 231.545898438 606.736328125 c 128,-1,73
 229.080078125 605.525390625 229.080078125 605.525390625 226.771484375 604.142578125 c 128,-1,74
 224.463867188 602.759765625 224.463867188 602.759765625 222.329101562 601.228515625 c 128,-1,75
 220.194335938 599.697265625 220.194335938 599.697265625 218.200195312 597.99609375 c 0,76,77
 196.728515625 579.677734375 196.728515625 579.677734375 184.3046875 547.032226562 c 0,78,79
 171.446289062 513.241210938 171.446289062 513.241210938 167.303710938 469.01953125 c 0,36,37
EndSplineSet
EndChar

StartChar: R
Encoding: 82 82 53
Width: 550
VWidth: 1177
Flags: W
LayerCount: 2
Fore
SplineSet
153.508789062 735.991210938 m 128,-1,1
 178.8203125 737 178.8203125 737 198.26171875 737 c 0,2,3
 232.015625 737 232.015625 737 262.87890625 733.41796875 c 128,-1,4
 293.741210938 729.8359375 293.741210938 729.8359375 321.7109375 722.643554688 c 0,5,6
 349.911132812 715.586914062 349.911132812 715.586914062 374.265625 704.549804688 c 128,-1,7
 398.620117188 693.512695312 398.620117188 693.512695312 418.998046875 678.499023438 c 0,8,9
 432.5859375 668.432617188 432.5859375 668.432617188 443.42578125 656.508789062 c 128,-1,10
 454.265625 644.584960938 454.265625 644.584960938 463.080078125 630.900390625 c 128,-1,11
 471.89453125 617.215820312 471.89453125 617.215820312 478.69140625 601.784179688 c 0,12,13
 488.884765625 578.639648438 488.884765625 578.639648438 493.942382812 551.76171875 c 128,-1,14
 499 524.8828125 499 524.8828125 499 494.319335938 c 0,15,16
 499 429.725585938 499 429.725585938 471.926757812 377.543945312 c 0,17,18
 468.30859375 370.5703125 468.30859375 370.5703125 464.020507812 363.9921875 c 128,-1,19
 459.731445312 357.413085938 459.731445312 357.413085938 454.850585938 351.323242188 c 128,-1,20
 449.96875 345.232421875 449.96875 345.232421875 444.459960938 339.552734375 c 128,-1,21
 438.950195312 333.874023438 438.950195312 333.874023438 432.890625 328.677734375 c 0,22,23
 426.516601562 323.482421875 426.516601562 323.482421875 419.422851562 318.71484375 c 128,-1,24
 412.328125 313.948242188 412.328125 313.948242188 404.69140625 309.66015625 c 128,-1,25
 397.052734375 305.372070312 397.052734375 305.372070312 388.836914062 301.529296875 c 1,26,27
 395.515625 291.989257812 395.515625 291.989257812 401.862304688 282.76953125 c 128,-1,28
 408.208007812 273.548828125 408.208007812 273.548828125 414.51953125 264.22265625 c 128,-1,29
 420.831054688 254.896484375 420.831054688 254.896484375 427.8125 244.430664062 c 0,30,31
 435.60546875 232.33203125 435.60546875 232.33203125 442.997070312 219.853515625 c 128,-1,32
 450.388671875 207.375 450.388671875 207.375 457.608398438 194.5234375 c 128,-1,33
 464.827148438 181.672851562 464.827148438 181.672851562 471.877929688 168.44140625 c 0,34,35
 492.944335938 128.90625 492.944335938 128.90625 512.509765625 89.365234375 c 0,36,37
 532.19921875 49.57421875 532.19921875 49.57421875 546.352539062 13.173828125 c 2,38,-1
 551.475585938 0 l 1,39,-1
 537 0 l 1,40,-1
 381.865234375 0 l 1,41,-1
 374.50390625 0 l 1,42,-1
 371.887695312 6.4453125 l 2,43,44
 343.3359375 74.099609375 343.3359375 74.099609375 305.276367188 136.024414062 c 0,45,46
 293.047851562 155.921875 293.047851562 155.921875 280.018554688 176.505859375 c 128,-1,47
 266.990234375 197.08984375 266.990234375 197.08984375 253.5703125 217.727539062 c 128,-1,48
 240.15234375 238.365234375 240.15234375 238.365234375 226.387695312 259 c 1,49,-1
 161.967773438 259 l 1,50,-1
 161.967773438 10 l 1,51,-1
 161.967773438 0 l 1,52,-1
 151.293945312 0 l 1,53,-1
 5 0 l 1,54,-1
 -5 0 l 1,55,-1
 -5 10 l 1,56,-1
 -5 708.512695312 l 1,57,-1
 -5 716.196289062 l 1,58,-1
 2.68359375 717.9765625 l 2,59,60
 24.048828125 722.924804688 24.048828125 722.924804688 49.419921875 726.874023438 c 128,-1,61
 74.82421875 730.939453125 74.82421875 730.939453125 101.233398438 732.970703125 c 0,62,0
 128.240234375 734.983398438 128.240234375 734.983398438 153.508789062 735.991210938 c 128,-1,1
292.693359375 423.77734375 m 0,63,64
 324.221679688 448.0234375 324.221679688 448.0234375 324.221679688 494.049804688 c 0,65,66
 324.221679688 544.505859375 324.221679688 544.505859375 291.014648438 567.315429688 c 0,67,68
 256.53515625 591 256.53515625 591 198.26171875 591 c 2,69,-1
 177.356445312 596.319335938 l 1,70,-1
 161.967773438 609 l 1,71,-1
 161.967773438 399 l 1,72,-1
 185.452148438 399 l 2,73,74
 260.47265625 399 260.47265625 399 292.693359375 423.77734375 c 0,63,64
EndSplineSet
EndChar

StartChar: S
Encoding: 83 83 54
Width: 550
VWidth: 1177
Flags: W
LayerCount: 2
Fore
SplineSet
141.313476562 141.849609375 m 0,0,1
 186.114257812 126 186.114257812 126 252.765625 126 c 0,2,3
 271.866210938 126 271.866210938 126 287.477539062 127.735351562 c 128,-1,4
 303.088867188 129.469726562 303.088867188 129.469726562 314.96875 132.82421875 c 0,5,6
 338.280273438 139.407226562 338.280273438 139.407226562 351.465820312 150.895507812 c 0,7,8
 358.065429688 156.645507812 358.065429688 156.645507812 362.552734375 163.091796875 c 128,-1,9
 367.041015625 169.538085938 367.041015625 169.538085938 369.5859375 176.857421875 c 0,10,11
 374.990234375 192.392578125 374.990234375 192.392578125 374.990234375 207.375 c 0,12,13
 374.990234375 213.512695312 374.990234375 213.512695312 373.689453125 219.166015625 c 128,-1,14
 372.387695312 224.819335938 372.387695312 224.819335938 369.75 230.116210938 c 128,-1,15
 367.110351562 235.413085938 367.110351562 235.413085938 363.08203125 240.453125 c 0,16,17
 350.259765625 256.49609375 350.259765625 256.49609375 330.39453125 268.611328125 c 0,18,19
 323.520507812 272.803710938 323.520507812 272.803710938 316.12109375 276.744140625 c 128,-1,20
 308.719726562 280.68359375 308.719726562 280.68359375 300.752929688 284.387695312 c 128,-1,21
 292.787109375 288.090820312 292.787109375 288.090820312 284.291992188 291.537109375 c 2,22,-1
 231.788085938 311.666992188 l 2,23,24
 214.223632812 317.438476562 214.223632812 317.438476562 195.622070312 324.063476562 c 128,-1,25
 177.020507812 330.688476562 177.020507812 330.688476562 157.998046875 337.951171875 c 0,26,27
 138.291015625 345.474609375 138.291015625 345.474609375 120.727539062 355.153320312 c 0,28,29
 103.990234375 364.831054688 103.990234375 364.831054688 88.9404296875 376.645507812 c 0,30,31
 73.6474609375 388.650390625 73.6474609375 388.650390625 61.12109375 403.596679688 c 128,-1,32
 48.59375 418.541992188 48.59375 418.541992188 38.8955078125 436.31640625 c 0,33,34
 19.236328125 472.34765625 19.236328125 472.34765625 19.236328125 525.125 c 0,35,36
 19.236328125 628.342773438 19.236328125 628.342773438 89.1640625 687.42578125 c 0,37,38
 160.83203125 746 160.83203125 746 289.21875 746 c 0,39,40
 313.625 746 313.625 746 336.04296875 744.24609375 c 128,-1,41
 358.462890625 742.4921875 358.462890625 742.4921875 379.077148438 738.9453125 c 128,-1,42
 399.692382812 735.3984375 399.692382812 735.3984375 418.341796875 730.059570312 c 0,43,44
 470.1875 714.248046875 470.1875 714.248046875 505.115234375 694.729492188 c 2,45,-1
 512.677734375 690.502929688 l 1,46,-1
 509.572265625 682.416015625 l 1,47,-1
 466.572265625 570.416015625 l 1,48,-1
 462.458007812 559.698242188 l 1,49,-1
 452.40625 565.244140625 l 2,50,51
 445.376953125 569.122070312 445.376953125 569.122070312 437.912109375 572.763671875 c 128,-1,52
 430.447265625 576.404296875 430.447265625 576.404296875 422.481445312 579.814453125 c 0,53,54
 413.99609375 583.224609375 413.99609375 583.224609375 405.022460938 586.401367188 c 128,-1,55
 396.049804688 589.578125 396.049804688 589.578125 386.609375 592.512695312 c 0,56,57
 368.23046875 598.227539062 368.23046875 598.227539062 346.827148438 601.11328125 c 128,-1,58
 325.424804688 604 325.424804688 604 301.012695312 604 c 0,59,60
 188.4375 604 188.4375 604 188.4375 533.336914062 c 0,61,62
 188.4375 530.399414062 188.4375 530.399414062 188.723632812 527.622070312 c 128,-1,63
 189.008789062 524.844726562 189.008789062 524.844726562 189.583007812 522.211914062 c 128,-1,64
 190.15625 519.579101562 190.15625 519.579101562 191.012695312 517.088867188 c 128,-1,65
 191.868164062 514.598632812 191.868164062 514.598632812 193.01953125 512.221679688 c 128,-1,66
 194.169921875 509.844726562 194.169921875 509.844726562 195.596679688 507.592773438 c 128,-1,67
 197.025390625 505.340820312 197.025390625 505.340820312 198.751953125 503.170898438 c 0,68,69
 209.963867188 489.086914062 209.963867188 489.086914062 228.212890625 477.955078125 c 0,70,71
 247.14453125 466.40625 247.14453125 466.40625 270.797851562 457.584960938 c 0,72,73
 283.079101562 453.004882812 283.079101562 453.004882812 294.983398438 448.825195312 c 128,-1,74
 306.887695312 444.645507812 306.887695312 444.645507812 318.697265625 440.768554688 c 0,75,76
 355.447265625 428.08203125 355.447265625 428.08203125 395.328125 412.512695312 c 0,77,78
 405.603515625 408.5 405.603515625 408.5 415.504882812 403.826171875 c 128,-1,79
 425.260742188 399.151367188 425.260742188 399.151367188 434.133789062 393.822265625 c 128,-1,80
 443.006835938 388.493164062 443.006835938 388.493164062 451.517578125 382.510742188 c 128,-1,81
 460.029296875 376.528320312 460.029296875 376.528320312 468.173828125 369.895507812 c 0,82,83
 484.709960938 356.4296875 484.709960938 356.4296875 498.219726562 339.670898438 c 128,-1,84
 511.729492188 322.912109375 511.729492188 322.912109375 522.158203125 302.973632812 c 0,85,86
 543.236328125 262.676757812 543.236328125 262.676757812 543.236328125 202.287109375 c 0,87,88
 543.236328125 168.232421875 543.236328125 168.232421875 535.49609375 138.997070312 c 128,-1,89
 527.754882812 109.760742188 527.754882812 109.760742188 512.138671875 85.3662109375 c 128,-1,90
 496.5234375 60.970703125 496.5234375 60.970703125 473.177734375 41.94140625 c 0,91,92
 455.625 27.6337890625 455.625 27.6337890625 433.670898438 16.97265625 c 0,93,94
 410.884765625 6.3115234375 410.884765625 6.3115234375 382.795898438 -0.6650390625 c 0,95,96
 354.706054688 -7.8720703125 354.706054688 -7.8720703125 322.282226562 -11.4365234375 c 128,-1,97
 289.858398438 -15 289.858398438 -15 252.765625 -15 c 0,98,99
 153.325195312 -15 153.325195312 -15 95.83984375 5.0947265625 c 0,100,101
 40.951171875 24.9150390625 40.951171875 24.9150390625 13.138671875 41.3974609375 c 2,102,-1
 6 45.626953125 l 1,103,-1
 8.8408203125 53.423828125 l 1,104,-1
 51.8408203125 171.423828125 l 1,105,-1
 55.970703125 182.756835938 l 1,106,-1
 66.341796875 176.598632812 l 2,107,108
 81.9169921875 167.350585938 81.9169921875 167.350585938 100.412109375 158.654296875 c 128,-1,109
 118.90625 149.958007812 118.90625 149.958007812 141.313476562 141.849609375 c 0,0,1
EndSplineSet
EndChar

StartChar: T
Encoding: 84 84 55
Width: 550
VWidth: 1177
Flags: W
LayerCount: 2
Fore
SplineSet
560 729 m 1,0,-1
 560 719 l 1,1,-1
 560 617.461914062 l 1,2,-1
 560 609 l 1,3,-1
 550 609 l 1,4,-1
 363.354492188 609 l 1,5,-1
 363.354492188 10 l 1,6,-1
 363.354492188 0 l 1,7,-1
 352.709960938 0 l 1,8,-1
 197.290039062 0 l 1,9,-1
 186.645507812 0 l 1,10,-1
 186.645507812 10 l 1,11,-1
 186.645507812 609 l 1,12,-1
 0 609 l 1,13,-1
 -10 609 l 1,14,-1
 -10 617.461914062 l 1,15,-1
 -10 719 l 1,16,-1
 -10 729 l 1,17,-1
 0 729 l 1,18,-1
 550 729 l 1,19,-1
 560 729 l 1,0,-1
EndSplineSet
EndChar

StartChar: U
Encoding: 85 85 56
Width: 550
VWidth: 1177
Flags: W
LayerCount: 2
Fore
SplineSet
344.6015625 -9.978515625 m 128,-1,1
 311.329101562 -15 311.329101562 -15 271.819335938 -15 c 0,2,3
 193.578125 -15 193.578125 -15 140.69140625 5.2490234375 c 0,4,5
 89.75 25.197265625 89.75 25.197265625 59.6181640625 62.734375 c 0,6,7
 44.6494140625 81.3828125 44.6494140625 81.3828125 34.1806640625 103.786132812 c 128,-1,8
 23.7119140625 126.190429688 23.7119140625 126.190429688 17.740234375 152.203125 c 0,9,10
 6 203.346679688 6 203.346679688 6 266.674804688 c 2,11,-1
 6 719 l 1,12,-1
 6 729 l 1,13,-1
 16 729 l 1,14,-1
 164.599609375 729 l 1,15,-1
 175.321289062 729 l 1,16,-1
 175.321289062 719 l 1,17,-1
 175.321289062 278 l 2,18,19
 175.321289062 234.211914062 175.321289062 234.211914062 180.03515625 204.921875 c 0,20,21
 181.180664062 197.8046875 181.180664062 197.8046875 182.772460938 191.385742188 c 128,-1,22
 184.364257812 184.966796875 184.364257812 184.966796875 186.3515625 179.392578125 c 128,-1,23
 188.33984375 173.817382812 188.33984375 173.817382812 190.686523438 169.028320312 c 128,-1,24
 193.032226562 164.23828125 193.032226562 164.23828125 195.751953125 160.185546875 c 0,25,26
 199.30859375 154.885742188 199.30859375 154.885742188 203.627929688 150.704101562 c 128,-1,27
 207.947265625 146.5234375 207.947265625 146.5234375 213.087890625 143.385742188 c 128,-1,28
 218.228515625 140.249023438 218.228515625 140.249023438 224.3359375 138.044921875 c 0,29,30
 243.862304688 131 243.862304688 131 273.963867188 131 c 0,31,32
 289.67578125 131 289.67578125 131 302.3984375 132.80078125 c 128,-1,33
 315.119140625 134.6015625 315.119140625 134.6015625 324.6640625 138.044921875 c 0,34,35
 342.81640625 144.594726562 342.81640625 144.594726562 353.825195312 160.729492188 c 0,36,37
 365.524414062 177.876953125 365.524414062 177.876953125 370.034179688 206.3515625 c 0,38,39
 374.750976562 236.134765625 374.750976562 236.134765625 374.750976562 278.966796875 c 2,40,-1
 374.750976562 719 l 1,41,-1
 374.750976562 729 l 1,42,-1
 385.47265625 729 l 1,43,-1
 533 729 l 1,44,-1
 543 729 l 1,45,-1
 543 719 l 1,46,-1
 543 266.673828125 l 2,47,48
 543 203.299804688 543 203.299804688 530.739257812 152.115234375 c 0,49,50
 518.228515625 99.8876953125 518.228515625 99.8876953125 487.829101562 62.669921875 c 0,51,52
 457.184570312 25.150390625 457.184570312 25.150390625 405.01953125 5.2216796875 c 0,53,0
 377.874023438 -4.95703125 377.874023438 -4.95703125 344.6015625 -9.978515625 c 128,-1,1
EndSplineSet
EndChar

StartChar: V
Encoding: 86 86 57
Width: 550
VWidth: 1177
Flags: W
LayerCount: 2
Fore
SplineSet
180.119140625 0 m 1,0,-1
 177.657226562 6.732421875 l 2,1,2
 147.977539062 85.689453125 147.977539062 85.689453125 114.0703125 185.567382812 c 0,3,4
 80.478515625 285.46484375 80.478515625 285.46484375 52.431640625 384.881835938 c 128,-1,5
 24.4033203125 484.233398438 24.4033203125 484.233398438 1.8701171875 572.422851562 c 128,-1,6
 -20.697265625 660.75 -20.697265625 660.75 -31.75 717.456054688 c 2,7,-1
 -34 729 l 1,8,-1
 -21.9248046875 729 l 1,9,-1
 133.694335938 729 l 1,10,-1
 143.0546875 729 l 1,11,-1
 144.1953125 720.21875 l 2,12,13
 151.557617188 672.05078125 151.557617188 672.05078125 166.829101562 609 c 0,14,15
 182.151367188 534.638671875 182.151367188 534.638671875 200.120117188 455.267578125 c 128,-1,16
 218.067382812 375.946289062 218.067382812 375.946289062 238.650390625 299.131835938 c 0,17,18
 254.080078125 241.551757812 254.080078125 241.551757812 269.227539062 192.333007812 c 1,19,20
 284.104492188 240.435546875 284.104492188 240.435546875 298.516601562 297.499023438 c 0,21,22
 318.0546875 374.8515625 318.0546875 374.8515625 335.482421875 454.208984375 c 128,-1,23
 352.918945312 533.610351562 352.918945312 533.610351562 367.7109375 609 c 0,24,25
 382.51953125 673.176757812 382.51953125 673.176757812 393.092773438 720.7578125 c 2,26,-1
 394.649414062 729 l 1,27,-1
 403.509765625 729 l 1,28,-1
 558.075195312 729 l 1,29,-1
 570.239257812 729 l 1,30,-1
 567.885742188 717.38671875 l 2,31,32
 560.862304688 682.728515625 560.862304688 682.728515625 552.090820312 644.196289062 c 128,-1,33
 543.318359375 605.663085938 543.318359375 605.663085938 532.795898438 563.2421875 c 0,34,35
 511.752929688 478.415039062 511.752929688 478.415039062 485.213867188 384.866210938 c 128,-1,36
 458.662109375 291.26953125 458.662109375 291.26953125 425.764648438 194.28515625 c 0,37,38
 392.368164062 97.2724609375 392.368164062 97.2724609375 356.309570312 6.56640625 c 2,39,-1
 353.76953125 0 l 1,40,-1
 346.372070312 0 l 1,41,-1
 187.657226562 0 l 1,42,-1
 180.119140625 0 l 1,0,-1
EndSplineSet
EndChar

StartChar: W
Encoding: 87 87 58
Width: 550
VWidth: 1177
Flags: W
LayerCount: 2
Fore
SplineSet
341.163085938 471 m 1,0,-1
 343.044921875 463.215820312 l 2,1,2
 345.669921875 452.353515625 345.669921875 452.353515625 349.3671875 438.694335938 c 128,-1,3
 353.064453125 425.034179688 353.064453125 425.034179688 357.822265625 408.630859375 c 0,4,5
 367.368164062 375.711914062 367.368164062 375.711914062 379.581054688 335.762695312 c 128,-1,6
 391.80078125 295.793945312 391.80078125 295.793945312 406.1484375 249.81640625 c 0,7,8
 409.411132812 239.359375 409.411132812 239.359375 412.9375 227.850585938 c 1,9,10
 412.541992188 255.504882812 412.541992188 255.504882812 411.8984375 283.786132812 c 0,11,12
 410.301757812 353.826171875 410.301757812 353.826171875 409.237304688 426.86328125 c 128,-1,13
 408.174804688 499.865234375 408.174804688 499.865234375 407.111328125 574.866210938 c 128,-1,14
 406.046875 649.927734375 406.046875 649.927734375 406.046875 719 c 2,15,-1
 406.046875 729 l 1,16,-1
 416.6796875 729 l 1,17,-1
 552.229492188 729 l 1,18,-1
 562.684570312 729 l 1,19,-1
 562.219726562 718.837890625 l 2,20,21
 558.221679688 631.30859375 558.221679688 631.30859375 554.72265625 539.396484375 c 128,-1,22
 551.220703125 447.397460938 551.220703125 447.397460938 546.71875 356.370117188 c 128,-1,23
 542.212890625 265.287109375 542.212890625 265.287109375 535.704101562 176.631835938 c 128,-1,24
 529.196289062 87.9736328125 529.196289062 87.9736328125 521.181640625 9.017578125 c 2,25,-1
 520.291015625 0 l 1,26,-1
 511.229492188 0 l 1,27,-1
 386.90625 0 l 1,28,-1
 379.372070312 0 l 1,29,-1
 376.874023438 6.685546875 l 2,30,31
 363.004882812 43.806640625 363.004882812 43.806640625 349.275390625 83.794921875 c 128,-1,32
 335.546875 123.783203125 335.546875 123.783203125 321.954101562 166.641601562 c 0,33,34
 299.79296875 236.518554688 299.79296875 236.518554688 277.104492188 301.873046875 c 1,35,36
 265.422851562 270.109375 265.422851562 270.109375 253.685546875 237.169921875 c 128,-1,37
 241.947265625 204.23046875 241.947265625 204.23046875 229.5390625 168.403320312 c 0,38,39
 199.251953125 80.95703125 199.251953125 80.95703125 174.8203125 7.0322265625 c 2,40,-1
 172.49609375 0 l 1,41,-1
 164.665039062 0 l 1,42,-1
 41.2294921875 0 l 1,43,-1
 32.279296875 0 l 1,44,-1
 31.291015625 8.8955078125 l 2,45,46
 22.2734375 87.8642578125 22.2734375 87.8642578125 14.763671875 177.013671875 c 128,-1,47
 7.251953125 266.181640625 7.251953125 266.181640625 2.244140625 357.290039062 c 128,-1,48
 -2.7587890625 448.319335938 -2.7587890625 448.319335938 -6.76171875 540.806640625 c 128,-1,49
 -10.7646484375 633.326171875 -10.7646484375 633.326171875 -12.767578125 719.048828125 c 2,50,-1
 -13 729 l 1,51,-1
 -2.7705078125 729 l 1,52,-1
 132.764648438 729 l 1,53,-1
 143.553710938 729 l 1,54,-1
 143.397460938 718.85546875 l 2,55,56
 142.333984375 649.861328125 142.333984375 649.861328125 141.270507812 575.366210938 c 128,-1,57
 140.20703125 500.831054688 140.20703125 500.831054688 138.611328125 427.295898438 c 128,-1,58
 137.016601562 353.825195312 137.016601562 353.825195312 135.953125 283.857421875 c 0,59,60
 135.483398438 252.893554688 135.483398438 252.893554688 135.215820312 223.103515625 c 1,61,62
 137.794921875 231.150390625 137.794921875 231.150390625 140.134765625 238.403320312 c 0,63,64
 154.467773438 282.833984375 154.467773438 282.833984375 167.73828125 326.26171875 c 128,-1,65
 181.030273438 369.762695312 181.030273438 369.762695312 192.1953125 406.264648438 c 128,-1,66
 203.359375 442.759765625 203.359375 442.759765625 209.735351562 463.747070312 c 2,67,-1
 211.938476562 471 l 1,68,-1
 219.959960938 471 l 1,69,-1
 332.674804688 471 l 1,70,-1
 341.163085938 471 l 1,0,-1
EndSplineSet
EndChar

StartChar: X
Encoding: 88 88 59
Width: 550
VWidth: 1177
Flags: W
LayerCount: 2
Fore
SplineSet
381.125 0 m 1,0,-1
 378.583984375 6.5576171875 l 2,1,2
 355.456054688 56.9853515625 355.456054688 56.9853515625 321.254882812 118.404296875 c 0,3,4
 291.467773438 181.565429688 291.467773438 181.565429688 259.442382812 245.217773438 c 1,5,6
 228.145507812 184.51953125 228.145507812 184.51953125 196.779296875 120 c 2,7,-1
 135.166015625 6.2861328125 l 1,8,-1
 132.508789062 0 l 1,9,-1
 125.352539062 0 l 1,10,-1
 -34.5703125 0 l 1,11,-1
 -49 0 l 1,12,-1
 -43.93359375 13.150390625 l 2,13,14
 -41.4755859375 19.5302734375 -41.4755859375 19.5302734375 -38.578125 26.3828125 c 128,-1,15
 -35.6806640625 33.2353515625 -35.6806640625 33.2353515625 -32.3544921875 40.5400390625 c 128,-1,16
 -29.0283203125 47.8447265625 -29.0283203125 47.8447265625 -25.2578125 55.6357421875 c 128,-1,17
 -21.4873046875 63.4267578125 -21.4873046875 63.4267578125 -17.29296875 71.6708984375 c 128,-1,18
 -13.09765625 79.9140625 -13.09765625 79.9140625 -8.453125 88.6591796875 c 0,19,20
 14.572265625 132.018554688 14.572265625 132.018554688 42.08984375 182.6640625 c 128,-1,21
 69.6396484375 233.366210938 69.6396484375 233.366210938 101.84375 286.9765625 c 0,22,23
 132.512695312 337.909179688 132.512695312 337.909179688 161.818359375 384.5546875 c 1,24,-1
 -31.3125 714.541992188 l 1,25,-1
 -39.560546875 729 l 1,26,-1
 -22.5703125 729 l 1,27,-1
 136.978515625 729 l 1,28,-1
 143.522460938 729 l 1,29,-1
 146.439453125 723.45703125 l 1,30,-1
 259.770507812 508.060546875 l 1,31,-1
 378.071289062 723.608398438 l 1,32,-1
 381.030273438 729 l 1,33,-1
 387.44921875 729 l 1,34,-1
 536.4296875 729 l 1,35,-1
 553.298828125 729 l 1,36,-1
 545.203125 714.595703125 l 1,37,-1
 357.41796875 388.674804688 l 1,38,39
 389.690429688 340.994140625 389.690429688 340.994140625 420.490234375 289.376953125 c 0,40,41
 452.272460938 235.220703125 452.272460938 235.220703125 478.857421875 183.958984375 c 128,-1,42
 505.467773438 132.647460938 505.467773438 132.647460938 525.568359375 88.6298828125 c 128,-1,43
 545.688476562 44.5673828125 545.688476562 44.5673828125 557.79296875 13.150390625 c 2,44,-1
 562.860351562 0 l 1,45,-1
 548.4296875 0 l 1,46,-1
 388.505859375 0 l 1,47,-1
 381.125 0 l 1,0,-1
EndSplineSet
EndChar

StartChar: Y
Encoding: 89 89 60
Width: 550
VWidth: 1177
Flags: W
LayerCount: 2
Fore
SplineSet
201.65625 550.028320312 m 0,0,1
 231.799804688 474.438476562 231.799804688 474.438476562 263.606445312 409.559570312 c 1,2,3
 273.77734375 430.828125 273.77734375 430.828125 285.615234375 457.830078125 c 0,4,5
 303.51171875 498.649414062 303.51171875 498.649414062 321.415039062 544.466796875 c 128,-1,6
 339.341796875 590.34375 339.341796875 590.34375 356.216796875 637.22265625 c 128,-1,7
 373.135742188 684.228515625 373.135742188 684.228515625 386.884765625 722.237304688 c 2,8,-1
 389.331054688 729 l 1,9,-1
 396.887695312 729 l 1,10,-1
 549.4296875 729 l 1,11,-1
 563.748046875 729 l 1,12,-1
 558.818359375 715.920898438 l 2,13,14
 536.7734375 657.42578125 536.7734375 657.42578125 514.220703125 602.32421875 c 128,-1,15
 491.638671875 547.153320312 491.638671875 547.153320312 466.547851562 492.958984375 c 128,-1,16
 441.309570312 438.731445312 441.309570312 438.731445312 411.580078125 385.485351562 c 0,17,18
 382.572265625 333.532226562 382.572265625 333.532226562 348.25 277.904296875 c 1,19,-1
 348.25 10 l 1,20,-1
 348.25 0 l 1,21,-1
 337.676757812 0 l 1,22,-1
 183.303710938 0 l 1,23,-1
 172.73046875 0 l 1,24,-1
 172.73046875 10 l 1,25,-1
 172.73046875 276.926757812 l 1,26,27
 104.515625 387.28125 104.515625 387.28125 54.3095703125 492.478515625 c 0,28,29
 5.1689453125 598.83203125 5.1689453125 598.83203125 -39.93359375 715.854492188 c 2,30,-1
 -45 729 l 1,31,-1
 -30.5703125 729 l 1,32,-1
 128.321289062 729 l 1,33,-1
 136.057617188 729 l 1,34,-1
 138.399414062 722.02734375 l 2,35,36
 166.859375 637.29296875 166.859375 637.29296875 201.65625 550.028320312 c 0,0,1
EndSplineSet
EndChar

StartChar: Z
Encoding: 90 90 61
Width: 550
VWidth: 1177
Flags: W
LayerCount: 2
Fore
SplineSet
524 615.020507812 m 1,0,-1
 522.370117188 612.52734375 l 2,1,2
 471.438476562 534.6328125 471.438476562 534.6328125 429.525390625 466.272460938 c 0,3,4
 385.456054688 397.827148438 385.456054688 397.827148438 346.203125 336.396484375 c 128,-1,5
 306.950195312 274.96484375 306.950195312 274.96484375 272.010742188 218.046875 c 0,6,7
 241.69140625 168.657226562 241.69140625 168.657226562 213.385742188 120 c 1,8,-1
 525 120 l 1,9,-1
 535 120 l 1,10,-1
 535 111.538085938 l 1,11,-1
 535 10 l 1,12,-1
 535 0 l 1,13,-1
 525 0 l 1,14,-1
 24 0 l 1,15,-1
 14 0 l 1,16,-1
 14 10 l 1,17,-1
 14 94 l 1,18,-1
 14 96.40234375 l 1,19,-1
 15.0908203125 98.5419921875 l 2,20,21
 41.1337890625 149.625 41.1337890625 149.625 70.669921875 205.193359375 c 128,-1,22
 100.260742188 260.864257812 100.260742188 260.864257812 137.046875 324.483398438 c 0,23,24
 176.349609375 387.9921875 176.349609375 387.9921875 222.6484375 462.499023438 c 0,25,26
 236.658203125 485.04296875 236.658203125 485.04296875 251.783203125 509.091796875 c 128,-1,27
 266.909179688 533.140625 266.909179688 533.140625 282.791992188 558.127929688 c 128,-1,28
 298.67578125 583.115234375 298.67578125 583.115234375 315.288085938 609 c 1,29,-1
 39 609 l 1,30,-1
 29 609 l 1,31,-1
 29 617.461914062 l 1,32,-1
 29 719 l 1,33,-1
 29 729 l 1,34,-1
 39 729 l 1,35,-1
 514 729 l 1,36,-1
 524 729 l 1,37,-1
 524 719 l 1,38,-1
 524 618 l 1,39,-1
 524 615.020507812 l 1,0,-1
EndSplineSet
EndChar

StartChar: bracketleft
Encoding: 91 91 62
Width: 550
VWidth: 1177
Flags: W
LayerCount: 2
Fore
SplineSet
113 833 m 1,0,-1
 439 833 l 1,1,-1
 449 833 l 1,2,-1
 449 823 l 1,3,-1
 449 710 l 1,4,-1
 449 700 l 1,5,-1
 439 700 l 1,6,-1
 261 700 l 1,7,-1
 261 -71 l 1,8,-1
 439 -71 l 1,9,-1
 449 -71 l 1,10,-1
 449 -81 l 1,11,-1
 449 -194 l 1,12,-1
 449 -204 l 1,13,-1
 439 -204 l 1,14,-1
 113 -204 l 1,15,-1
 103 -204 l 1,16,-1
 103 -194 l 1,17,-1
 103 823 l 1,18,-1
 103 833 l 1,19,-1
 113 833 l 1,0,-1
EndSplineSet
Substitution2: "'case' Case-Sensitive Forms lookup 17 subtable" Bracketleft
EndChar

StartChar: backslash
Encoding: 92 92 63
Width: 550
VWidth: 1177
Flags: W
LayerCount: 2
Fore
SplineSet
36.732421875 833 m 1,0,-1
 184.732421875 833 l 1,1,-1
 192.000976562 833 l 1,2,-1
 194.244140625 826.0859375 l 1,3,-1
 524.244140625 -190.9140625 l 1,4,-1
 528.490234375 -204 l 1,5,-1
 514.732421875 -204 l 1,6,-1
 364.732421875 -204 l 1,7,-1
 357.450195312 -204 l 1,8,-1
 355.21484375 -197.069335938 l 1,9,-1
 27.21484375 819.930664062 l 1,10,-1
 23 833 l 1,11,-1
 36.732421875 833 l 1,0,-1
EndSplineSet
Substitution2: "'case' Case-Sensitive Forms lookup 17 subtable" Backslash
EndChar

StartChar: bracketright
Encoding: 93 93 64
Width: 550
VWidth: 1177
Flags: W
LayerCount: 2
Fore
SplineSet
437 -204 m 1,0,-1
 109 -204 l 1,1,-1
 99 -204 l 1,2,-1
 99 -194 l 1,3,-1
 99 -81 l 1,4,-1
 99 -71 l 1,5,-1
 109 -71 l 1,6,-1
 288 -71 l 1,7,-1
 288 700 l 1,8,-1
 109 700 l 1,9,-1
 99 700 l 1,10,-1
 99 710 l 1,11,-1
 99 823 l 1,12,-1
 99 833 l 1,13,-1
 109 833 l 1,14,-1
 437 833 l 1,15,-1
 447 833 l 1,16,-1
 447 823 l 1,17,-1
 447 -194 l 1,18,-1
 447 -204 l 1,19,-1
 437 -204 l 1,0,-1
EndSplineSet
Substitution2: "'case' Case-Sensitive Forms lookup 17 subtable" Bracketright
EndChar

StartChar: asciicircum
Encoding: 94 94 65
Width: 550
VWidth: 1177
Flags: W
LayerCount: 2
Fore
SplineSet
311.596679688 355.028320312 m 1,0,-1
 181.596679688 291.028320312 l 1,1,-1
 173.21484375 286.901367188 l 1,2,-1
 168.528320312 294.984375 l 1,3,-1
 28.208984375 537.01171875 l 1,4,-1
 -111.154296875 295.009765625 l 1,5,-1
 -115.802734375 286.938476562 l 1,6,-1
 -124.182617188 291.001953125 l 1,7,-1
 -256.182617188 355.001953125 l 1,8,-1
 -266 359.76171875 l 1,9,-1
 -260.405273438 369.127929688 l 1,10,-1
 -42.4052734375 734.127929688 l 1,11,-1
 -39.4951171875 739 l 1,12,-1
 -33.8203125 739 l 1,13,-1
 89.1796875 739 l 1,14,-1
 94.8544921875 739 l 1,15,-1
 97.7646484375 734.127929688 l 1,16,-1
 315.764648438 369.127929688 l 1,17,-1
 321.325195312 359.817382812 l 1,18,-1
 311.596679688 355.028320312 l 1,0,-1
EndSplineSet
EndChar

StartChar: underscore
Encoding: 95 95 66
Width: 550
VWidth: 1177
Flags: W
LayerCount: 2
Fore
SplineSet
-3 -58 m 1,0,-1
 568 -58 l 1,1,-1
 578 -58 l 1,2,-1
 578 -68 l 1,3,-1
 578 -194 l 1,4,-1
 578 -204 l 1,5,-1
 568 -204 l 1,6,-1
 -3 -204 l 1,7,-1
 -13 -204 l 1,8,-1
 -13 -194 l 1,9,-1
 -13 -68 l 1,10,-1
 -13 -58 l 1,11,-1
 -3 -58 l 1,0,-1
EndSplineSet
EndChar

StartChar: grave
Encoding: 96 96 67
Width: 550
VWidth: 1177
Flags: W
LayerCount: 2
Fore
SplineSet
235.319335938 822.17578125 m 1,0,-1
 421.319335938 691.17578125 l 1,1,-1
 429.3125 685.546875 l 1,2,-1
 423.866210938 677.428710938 l 1,3,-1
 370.866210938 598.428710938 l 1,4,-1
 366.029296875 591.219726562 l 1,5,-1
 358.212890625 594.995117188 l 1,6,-1
 153.212890625 693.995117188 l 1,7,-1
 143 698.926757812 l 1,8,-1
 149.171875 708.442382812 l 1,9,-1
 221.171875 819.442382812 l 1,10,-1
 226.825195312 828.158203125 l 1,11,-1
 235.319335938 822.17578125 l 1,0,-1
EndSplineSet
EndChar

StartChar: a
Encoding: 97 97 68
Width: 550
VWidth: 1177
Flags: W
LayerCount: 2
Fore
SplineSet
208.5625 137.053710938 m 0,0,1
 236.955078125 124 236.955078125 124 282.850585938 124 c 0,2,3
 308.680664062 124 308.680664062 124 332.329101562 124.454101562 c 0,4,5
 340.56640625 124.612304688 340.56640625 124.612304688 348.446289062 124.970703125 c 128,-1,6
 356.327148438 125.328125 356.327148438 125.328125 362.841796875 125.814453125 c 1,7,-1
 362.841796875 225.663085938 l 1,8,9
 356.888671875 226.301757812 356.888671875 226.301757812 350.142578125 226.939453125 c 128,-1,10
 343.3984375 227.577148438 343.3984375 227.577148438 335.823242188 228.217773438 c 0,11,12
 325.26171875 229.110351562 325.26171875 229.110351562 315.791992188 229.555664062 c 128,-1,13
 306.322265625 230 306.322265625 230 297.983398438 230 c 0,14,15
 292.223632812 230 292.223632812 230 286.497070312 229.833984375 c 128,-1,16
 280.771484375 229.66796875 280.771484375 229.66796875 275.081054688 229.3359375 c 128,-1,17
 269.390625 229.004882812 269.390625 229.004882812 263.734375 228.506835938 c 128,-1,18
 258.079101562 228.009765625 258.079101562 228.009765625 252.455078125 227.346679688 c 0,19,20
 230.689453125 224.779296875 230.689453125 224.779296875 214.7578125 218.88671875 c 0,21,22
 207.321289062 216.13671875 207.321289062 216.13671875 201.595703125 212.33984375 c 128,-1,23
 195.870117188 208.543945312 195.870117188 208.543945312 191.587890625 203.590820312 c 0,24,25
 183.400390625 194.120117188 183.400390625 194.120117188 183.400390625 177.9140625 c 0,26,27
 183.400390625 148.622070312 183.400390625 148.622070312 208.5625 137.053710938 c 0,0,1
211.598632812 565.96875 m 128,-1,29
 239.731445312 568 239.731445312 568 268.797851562 568 c 0,30,31
 283.783203125 568 283.783203125 568 297.76953125 567.3515625 c 128,-1,32
 311.755859375 566.702148438 311.755859375 566.702148438 324.874023438 565.388671875 c 128,-1,33
 337.9921875 564.075195312 337.9921875 564.075195312 350.129882812 562.096679688 c 128,-1,34
 362.267578125 560.1171875 362.267578125 560.1171875 373.524414062 557.450195312 c 128,-1,35
 384.779296875 554.782226562 384.779296875 554.782226562 395.07421875 551.43359375 c 0,36,37
 443.640625 535.202148438 443.640625 535.202148438 472.319335938 505.470703125 c 128,-1,38
 500.984375 475.75390625 500.984375 475.75390625 513.13671875 433.424804688 c 0,39,40
 525 392.103515625 525 392.103515625 525 340.599609375 c 2,41,-1
 525 22.08203125 l 1,42,-1
 525 14.3134765625 l 1,43,-1
 517.13671875 12.6533203125 l 2,44,45
 484.827148438 5.8310546875 484.827148438 5.8310546875 422.514648438 -3.384765625 c 0,46,47
 389.959960938 -8.2001953125 389.959960938 -8.2001953125 351.728515625 -10.599609375 c 128,-1,48
 313.497070312 -13 313.497070312 -13 270.959960938 -13 c 0,49,50
 212.48828125 -13 212.48828125 -13 164.854492188 -3.2646484375 c 0,51,52
 117.880859375 6.3974609375 117.880859375 6.3974609375 85.73828125 28.4345703125 c 0,53,54
 53.080078125 50.8251953125 53.080078125 50.8251953125 35.455078125 87.189453125 c 0,55,56
 18 123.201171875 18 123.201171875 18 174.982421875 c 0,57,58
 18 224.268554688 18 224.268554688 38.333984375 258.618164062 c 128,-1,59
 58.5615234375 292.7890625 58.5615234375 292.7890625 92.1396484375 313.525390625 c 0,60,61
 125.141601562 333.905273438 125.141601562 333.905273438 170.840820312 343.025390625 c 0,62,63
 216.833007812 352 216.833007812 352 265.5546875 352 c 0,64,65
 319.65625 352 319.65625 352 362.841796875 344.342773438 c 1,66,-1
 362.841796875 350 l 2,67,68
 362.841796875 382.806640625 362.841796875 382.806640625 338.16015625 404.59375 c 0,69,70
 313.803710938 426 313.803710938 426 249.33984375 426 c 0,71,72
 242.075195312 426 242.075195312 426 234.88671875 426.102539062 c 128,-1,73
 227.697265625 426.206054688 227.697265625 426.206054688 220.586914062 426.411132812 c 128,-1,74
 213.475585938 426.6171875 213.475585938 426.6171875 206.442382812 426.924804688 c 128,-1,75
 199.408203125 427.233398438 199.408203125 427.233398438 192.451171875 427.643554688 c 128,-1,76
 185.494140625 428.0546875 185.494140625 428.0546875 178.614257812 428.568359375 c 128,-1,77
 171.736328125 429.081054688 171.736328125 429.081054688 164.931640625 429.696289062 c 0,78,79
 125.563476562 428.421875 125.563476562 428.421875 103.643554688 426.372070312 c 2,80,-1
 92.2119140625 421.899414062 l 1,81,-1
 90.142578125 434 l 1,82,-1
 70.142578125 535.176757812 l 1,83,-1
 68.697265625 542.491210938 l 1,84,-1
 76.837890625 544.837890625 l 2,85,86
 104.60546875 552.841796875 104.60546875 552.841796875 156.2734375 559.872070312 c 0,87,28
 183.465820312 563.9375 183.465820312 563.9375 211.598632812 565.96875 c 128,-1,29
EndSplineSet
Substitution2: "'case' Case-Sensitive Forms lookup 18 subtable" A
Substitution2: "'ordn' Ordinals in Latin lookup 7 subtable" ordfeminine
EndChar

StartChar: b
Encoding: 98 98 69
Width: 550
VWidth: 1177
Flags: W
LayerCount: 2
Fore
SplineSet
335.916015625 145.958984375 m 0,0,1
 368.322265625 181.221679688 368.322265625 181.221679688 368.322265625 269.703125 c 0,2,3
 368.322265625 345.071289062 368.322265625 345.071289062 342.950195312 384.267578125 c 0,4,5
 319.172851562 421 319.172851562 421 269.272460938 421 c 0,6,7
 244.924804688 421 244.924804688 421 221.598632812 434 c 0,8,9
 202.140625 428.907226562 202.140625 428.907226562 187.448242188 421.443359375 c 1,10,-1
 187.448242188 136.00390625 l 1,11,12
 200.494140625 133.678710938 200.494140625 133.678710938 214.407226562 132.982421875 c 0,13,14
 234.034179688 132 234.034179688 132 247.739257812 132 c 0,15,16
 276.3984375 132 276.3984375 132 298.184570312 120 c 0,17,18
 319.970703125 128.608398438 319.970703125 128.608398438 335.916015625 145.958984375 c 0,0,1
525.145507812 393.7890625 m 0,19,20
 540 341.376953125 540 341.376953125 540 277.333984375 c 0,21,22
 540 244.756835938 540 244.756835938 535.37890625 215.140625 c 128,-1,23
 530.7578125 185.524414062 530.7578125 185.524414062 521.477539062 158.899414062 c 0,24,25
 502.822265625 105.375 502.822265625 105.375 467.452148438 67.2138671875 c 128,-1,26
 431.932617188 28.8916015625 431.932617188 28.8916015625 377.286132812 8.2607421875 c 0,27,28
 322.015625 -13 322.015625 -13 250.969726562 -13 c 0,29,30
 230.248046875 -13 230.248046875 -13 209.34765625 -12.04296875 c 128,-1,31
 188.447265625 -11.0869140625 188.447265625 -11.0869140625 167.381835938 -9.1748046875 c 128,-1,32
 146.314453125 -7.2626953125 146.314453125 -7.2626953125 126.0625 -4.396484375 c 0,33,34
 66.8330078125 3.9970703125 66.8330078125 3.9970703125 26.126953125 15.90625 c 2,35,-1
 19 17.9912109375 l 1,36,-1
 19 25.2470703125 l 1,37,-1
 19 783 l 1,38,-1
 19 791.48046875 l 1,39,-1
 27.3671875 792.866210938 l 1,40,-1
 174.923828125 816.866210938 l 1,41,-1
 187.448242188 818.791015625 l 1,42,-1
 187.448242188 807 l 1,43,-1
 187.448242188 546.095703125 l 1,44,45
 196.39453125 549.375976562 196.39453125 549.375976562 204.922851562 551.966796875 c 128,-1,46
 213.44921875 554.556640625 213.44921875 554.556640625 221.751953125 556.516601562 c 128,-1,47
 230.055664062 558.475585938 230.055664062 558.475585938 238.310546875 559.844726562 c 0,48,49
 269.395507812 565 269.395507812 565 300.494140625 565 c 0,50,51
 361.146484375 565 361.146484375 565 408.080078125 544.212890625 c 0,52,53
 423.469726562 537.278320312 423.469726562 537.278320312 436.421875 528.334960938 c 128,-1,54
 449.374023438 519.391601562 449.374023438 519.391601562 460.677734375 508.484375 c 128,-1,55
 471.98046875 497.578125 471.98046875 497.578125 481.6015625 484.74609375 c 0,56,57
 510.166015625 446.642578125 510.166015625 446.642578125 525.145507812 393.7890625 c 0,19,20
EndSplineSet
Substitution2: "'case' Case-Sensitive Forms lookup 18 subtable" B
EndChar

StartChar: c
Encoding: 99 99 70
Width: 550
VWidth: 1177
Flags: W
LayerCount: 2
Fore
SplineSet
10.6298828125 218.23046875 m 128,-1,1
 6 246.524414062 6 246.524414062 6 276.704101562 c 0,2,3
 6 336.282226562 6 336.282226562 25.5869140625 389.006835938 c 0,4,5
 35.435546875 415.518554688 35.435546875 415.518554688 50.3935546875 438.739257812 c 128,-1,6
 65.3505859375 461.958984375 65.3505859375 461.958984375 85.3388671875 481.749023438 c 128,-1,7
 105.38671875 501.59765625 105.38671875 501.59765625 131.154296875 517.243164062 c 0,8,9
 158.403320312 532.888671875 158.403320312 532.888671875 191.271484375 544.327148438 c 0,10,11
 256.913085938 568 256.913085938 568 347.876953125 568 c 0,12,13
 401.329101562 568 401.329101562 568 443.723632812 560.850585938 c 0,14,15
 450.583984375 559.649414062 450.583984375 559.649414062 457.469726562 558.1640625 c 128,-1,16
 464.356445312 556.677734375 464.356445312 556.677734375 471.259765625 554.909179688 c 128,-1,17
 478.1640625 553.139648438 478.1640625 553.139648438 485.08984375 551.087890625 c 128,-1,18
 492.016601562 549.036132812 492.016601562 549.036132812 498.963867188 546.701171875 c 128,-1,19
 505.911132812 544.366210938 505.911132812 544.366210938 512.875976562 541.750976562 c 128,-1,20
 519.840820312 539.135742188 519.840820312 539.135742188 526.830078125 536.237304688 c 2,21,-1
 534.905273438 532.888671875 l 1,22,-1
 532.666015625 524.438476562 l 1,23,-1
 501.666015625 407.438476562 l 1,24,-1
 498.939453125 397.145507812 l 1,25,-1
 488.837890625 400.512695312 l 2,26,27
 477.059570312 404.439453125 477.059570312 404.439453125 464.009765625 408.1328125 c 128,-1,28
 450.959960938 411.826171875 450.959960938 411.826171875 436.653320312 415.279296875 c 0,29,30
 422.790039062 418.6015625 422.790039062 418.6015625 403.80078125 420.30078125 c 128,-1,31
 384.811523438 422 384.811523438 422 361.811523438 422 c 0,32,33
 354.047851562 422 354.047851562 422 346.642578125 422.341796875 c 128,-1,34
 339.235351562 422.68359375 339.235351562 422.68359375 332.255859375 423.359375 c 128,-1,35
 325.276367188 424.03515625 325.276367188 424.03515625 318.66015625 425.044921875 c 128,-1,36
 312.043945312 426.0546875 312.043945312 426.0546875 305.849609375 427.385742188 c 128,-1,37
 299.654296875 428.717773438 299.654296875 428.717773438 293.83203125 430.375 c 128,-1,38
 288.008789062 432.032226562 288.008789062 432.032226562 282.600585938 434 c 0,39,40
 277.193359375 432.553710938 277.193359375 432.553710938 272.1640625 430.873046875 c 0,41,42
 260.328125 426.918945312 260.328125 426.918945312 250.137695312 421.9921875 c 128,-1,43
 239.948242188 417.065429688 239.948242188 417.065429688 231.544921875 411.291015625 c 128,-1,44
 223.140625 405.516601562 223.140625 405.516601562 216.287109375 398.80078125 c 128,-1,45
 209.354492188 392.006835938 209.354492188 392.006835938 203.708984375 384.373046875 c 128,-1,46
 198.061523438 376.739257812 198.061523438 376.739257812 193.651367188 368.173828125 c 128,-1,47
 189.241210938 359.609375 189.241210938 359.609375 186.076171875 350.102539062 c 0,48,49
 181.234375 335.5625 181.234375 335.5625 178.806640625 319.901367188 c 128,-1,50
 176.377929688 304.240234375 176.377929688 304.240234375 176.377929688 287.41015625 c 0,51,52
 176.377929688 250.452148438 176.377929688 250.452148438 187.161132812 222.18359375 c 128,-1,53
 197.9453125 193.915039062 197.9453125 193.915039062 219.373046875 173.637695312 c 0,54,55
 240.401367188 153.73828125 240.401367188 153.73828125 277.840820312 143.369140625 c 128,-1,56
 315.278320312 133 315.278320312 133 369.314453125 133 c 0,57,58
 405.109375 133 405.109375 133 442.79296875 137.426757812 c 0,59,60
 478.696289062 141.793945312 478.696289062 141.793945312 508.65625 152.423828125 c 2,61,-1
 519.793945312 156.376953125 l 1,62,-1
 521.84765625 144.73828125 l 1,63,-1
 542.84765625 25.73828125 l 1,64,-1
 544.276367188 17.6416015625 l 1,65,-1
 536.610351562 14.6748046875 l 2,66,67
 504.680664062 2.314453125 504.680664062 2.314453125 460.19921875 -5.3544921875 c 0,68,69
 437.946289062 -9.19140625 437.946289062 -9.19140625 411.03125 -11.095703125 c 0,70,71
 383.1328125 -13 383.1328125 -13 351.092773438 -13 c 0,72,73
 304.684570312 -13 304.684570312 -13 264.77734375 -7.2431640625 c 0,74,75
 224.868164062 -1.6865234375 224.868164062 -1.6865234375 191.399414062 9.51953125 c 0,76,77
 124.470703125 31.9658203125 124.470703125 31.9658203125 83.9287109375 71.0888671875 c 128,-1,78
 43.2802734375 110.314453125 43.2802734375 110.314453125 24.53125 163.58984375 c 0,79,0
 15.2587890625 189.935546875 15.2587890625 189.935546875 10.6298828125 218.23046875 c 128,-1,1
EndSplineSet
Substitution2: "'case' Case-Sensitive Forms lookup 18 subtable" C
EndChar

StartChar: d
Encoding: 100 100 71
Width: 550
VWidth: 1177
Flags: W
LayerCount: 2
Fore
SplineSet
204.672851562 386.930664062 m 0,0,1
 180.715820312 350.260742188 180.715820312 350.260742188 180.715820312 279.7734375 c 0,2,3
 180.715820312 213.137695312 180.715820312 213.137695312 209.408203125 171.391601562 c 0,4,5
 236.483398438 132 236.483398438 132 296.173828125 132 c 0,6,7
 315.237304688 132 315.237304688 132 331.065429688 132.9765625 c 0,8,9
 342.264648438 133.666992188 342.264648438 133.666992188 355.521484375 135.486328125 c 1,10,-1
 355.521484375 421.55078125 l 1,11,12
 340.840820312 428.477539062 340.840820312 428.477539062 322.5078125 434 c 0,13,14
 315.326171875 429.672851562 315.326171875 429.672851562 307.874023438 426.788085938 c 128,-1,15
 300.422851562 423.903320312 300.422851562 423.903320312 292.635742188 422.451171875 c 128,-1,16
 284.84765625 421 284.84765625 421 276.750976562 421 c 0,17,18
 226.930664062 421 226.930664062 421 204.672851562 386.930664062 c 0,0,1
523 18.388671875 m 1,19,-1
 516.090820312 16.1982421875 l 2,20,21
 495.579101562 9.693359375 495.579101562 9.693359375 470.802734375 4.4873046875 c 128,-1,22
 446.02734375 -0.8486328125 446.02734375 -0.8486328125 416.877929688 -4.904296875 c 0,23,24
 355.189453125 -13 355.189453125 -13 295.094726562 -13 c 0,25,26
 149.900390625 -13 149.900390625 -13 78.953125 64.169921875 c 0,27,28
 44.3681640625 102.576171875 44.3681640625 102.576171875 27.1845703125 154.837890625 c 128,-1,29
 10 207.100585938 10 207.100585938 10 272.745117188 c 0,30,31
 10 406.158203125 10 406.158203125 67.859375 484.454101562 c 0,32,33
 97.26171875 524.2421875 97.26171875 524.2421875 141.708007812 544.26171875 c 0,34,35
 188.744140625 565 188.744140625 565 249.774414062 565 c 0,36,37
 260.607421875 565 260.607421875 565 271.383789062 564.249023438 c 128,-1,38
 282.162109375 563.498046875 282.162109375 563.498046875 292.87109375 561.998046875 c 128,-1,39
 303.581054688 560.498046875 303.581054688 560.498046875 314.219726562 558.25 c 0,40,41
 336.5234375 553.53515625 336.5234375 553.53515625 355.521484375 546.451171875 c 1,42,-1
 355.521484375 783 l 1,43,-1
 355.521484375 791.471679688 l 1,44,-1
 364.5390625 792.864257812 l 1,45,-1
 511.356445312 816.864257812 l 1,46,-1
 523 818.8046875 l 1,47,-1
 523 807 l 1,48,-1
 523 25.4765625 l 1,49,-1
 523 18.388671875 l 1,19,-1
EndSplineSet
Substitution2: "'case' Case-Sensitive Forms lookup 18 subtable" D
EndChar

StartChar: e
Encoding: 101 101 72
Width: 550
VWidth: 1177
Flags: W
LayerCount: 2
Fore
SplineSet
5.40625 206.337890625 m 128,-1,1
 0 237.126953125 0 237.126953125 0 272.18359375 c 0,2,3
 0 308.208007812 0 308.208007812 5.6591796875 340.086914062 c 128,-1,4
 11.318359375 371.965820312 11.318359375 371.965820312 22.7041015625 399.666015625 c 0,5,6
 45.453125 455.015625 45.453125 455.015625 83.380859375 492.094726562 c 0,7,8
 102.33203125 510.622070312 102.33203125 510.622070312 124.501953125 524.690429688 c 0,9,10
 147.88671875 538.758789062 147.88671875 538.758789062 174.276367188 548.28515625 c 0,11,12
 226.952148438 568 226.952148438 568 281.377929688 568 c 0,13,14
 416.584960938 568 416.584960938 568 484.497070312 494.237304688 c 0,15,16
 551 421.005859375 551 421.005859375 551 282.211914062 c 0,17,18
 551 277.620117188 551 277.620117188 550.943359375 272.866210938 c 128,-1,19
 550.887695312 268.112304688 550.887695312 268.112304688 550.775390625 263.203125 c 128,-1,20
 550.663085938 258.293945312 550.663085938 258.293945312 550.495117188 253.22265625 c 0,21,22
 550.319335938 247.932617188 550.319335938 247.932617188 549.978515625 243.453125 c 128,-1,23
 549.637695312 238.973632812 549.637695312 238.973632812 549.083984375 234.973632812 c 128,-1,24
 548.530273438 230.973632812 548.530273438 230.973632812 547.76171875 227.612304688 c 2,25,-1
 546.021484375 220 l 1,26,-1
 538 220 l 1,27,-1
 172.83203125 220 l 1,28,29
 177.23046875 182.349609375 177.23046875 182.349609375 215.901367188 159.630859375 c 0,30,31
 261.235351562 133 261.235351562 133 332.676757812 133 c 0,32,33
 378.43359375 133 378.43359375 133 419.416015625 142.22265625 c 0,34,35
 427.787109375 144.106445312 427.787109375 144.106445312 435.336914062 145.97265625 c 0,36,37
 442.6796875 147.837890625 442.6796875 147.837890625 449.498046875 149.67578125 c 128,-1,38
 456.31640625 151.514648438 456.31640625 151.514648438 462.635742188 153.331054688 c 128,-1,39
 468.956054688 155.1484375 468.956054688 155.1484375 474.751953125 156.935546875 c 128,-1,40
 480.548828125 158.723632812 480.548828125 158.723632812 485.837890625 160.487304688 c 2,41,-1
 496.984375 164.202148438 l 1,42,-1
 498.870117188 152.604492188 l 1,43,-1
 518.870117188 29.6044921875 l 1,44,-1
 520.225585938 21.271484375 l 1,45,-1
 512.237304688 18.5380859375 l 2,46,47
 473.6640625 5.3427734375 473.6640625 5.3427734375 430.541992188 -3.783203125 c 0,48,49
 407.220703125 -8.404296875 407.220703125 -8.404296875 381.161132812 -10.7021484375 c 128,-1,50
 355.100585938 -13 355.100585938 -13 326.264648438 -13 c 0,51,52
 248.650390625 -13 248.650390625 -13 187.69140625 6.0126953125 c 0,53,54
 126.266601562 24.490234375 126.266601562 24.490234375 84.8154296875 60.068359375 c 0,55,56
 43.568359375 95.8203125 43.568359375 95.8203125 21.703125 149.041015625 c 0,57,0
 10.8134765625 175.547851562 10.8134765625 175.547851562 5.40625 206.337890625 c 128,-1,1
173.807617188 330 m 1,58,-1
 387.891601562 330 l 1,59,60
 387.26953125 338.202148438 387.26953125 338.202148438 385.92578125 345.250976562 c 128,-1,61
 384.580078125 352.299804688 384.580078125 352.299804688 382.268554688 359.69140625 c 0,62,63
 379.341796875 369.049804688 379.341796875 369.049804688 374.743164062 377.426757812 c 128,-1,64
 370.146484375 385.803710938 370.146484375 385.803710938 363.825195312 393.311523438 c 0,65,66
 351.41015625 408.055664062 351.41015625 408.055664062 332.172851562 417.055664062 c 0,67,68
 322.786132812 421.447265625 322.786132812 421.447265625 310.624023438 423.723632812 c 128,-1,69
 298.4609375 426 298.4609375 426 283.515625 426 c 0,70,71
 269.541992188 426 269.541992188 426 257.668945312 423.938476562 c 128,-1,72
 245.796875 421.876953125 245.796875 421.876953125 235.977539062 417.84375 c 0,73,74
 216.418945312 409.80859375 216.418945312 409.80859375 203.616210938 395.16796875 c 0,75,76
 190.313476562 379.954101562 190.313476562 379.954101562 182.383789062 360.012695312 c 0,77,78
 176.5234375 345.276367188 176.5234375 345.276367188 173.807617188 330 c 1,58,-1
EndSplineSet
Substitution2: "'case' Case-Sensitive Forms lookup 18 subtable" E
EndChar

StartChar: f
Encoding: 102 102 73
Width: 550
VWidth: 1177
Flags: W
LayerCount: 2
Fore
SplineSet
97.125 0 m 1,0,-1
 97.125 10 l 1,1,-1
 97.125 413 l 1,2,-1
 -15 413 l 1,3,-1
 -25 413 l 1,4,-1
 -25 423 l 1,5,-1
 -25 544 l 1,6,-1
 -25 554 l 1,7,-1
 -15 554 l 1,8,-1
 97.125 554 l 1,9,-1
 97.125 575 l 2,10,11
 97.125 644.094726562 97.125 644.094726562 118.739257812 690.513671875 c 0,12,13
 140.506835938 737.260742188 140.506835938 737.260742188 177.606445312 765.296875 c 0,14,15
 214.440429688 793.1328125 214.440429688 793.1328125 261.264648438 804.673828125 c 0,16,17
 307.217773438 816 307.217773438 816 356.404296875 816 c 0,18,19
 406.155273438 816 406.155273438 816 457.127929688 807.866210938 c 0,20,21
 507.067382812 799.62890625 507.067382812 799.62890625 547.379882812 779.990234375 c 2,22,-1
 554.401367188 776.569335938 l 1,23,-1
 552.783203125 768.927734375 l 1,24,-1
 527.783203125 650.927734375 l 1,25,-1
 525.461914062 639.971679688 l 1,26,-1
 514.837890625 643.512695312 l 2,27,28
 488.174804688 652.400390625 488.174804688 652.400390625 447.51953125 662.8125 c 0,29,30
 406.0703125 673 406.0703125 673 369.155273438 673 c 0,31,32
 348.899414062 673 348.899414062 673 330.220703125 669.673828125 c 0,33,34
 313.44921875 666.688476562 313.44921875 666.688476562 301.299804688 656.526367188 c 0,35,36
 297.294921875 653.174804688 297.294921875 653.174804688 293.780273438 648.837890625 c 128,-1,37
 290.266601562 644.500976562 290.266601562 644.500976562 287.1171875 638.887695312 c 128,-1,38
 283.967773438 633.275390625 283.967773438 633.275390625 281.379882812 626.583007812 c 0,39,40
 273.51953125 606.23828125 273.51953125 606.23828125 273.51953125 573 c 2,41,-1
 273.51953125 554 l 1,42,-1
 500 554 l 1,43,-1
 510 554 l 1,44,-1
 510 544 l 1,45,-1
 510 423 l 1,46,-1
 510 413 l 1,47,-1
 500 413 l 1,48,-1
 273.51953125 413 l 1,49,-1
 273.51953125 10 l 1,50,-1
 273.51953125 0 l 1,51,-1
 262.893554688 0 l 1,52,-1
 107.750976562 0 l 1,53,-1
 97.125 0 l 1,0,-1
EndSplineSet
Substitution2: "'case' Case-Sensitive Forms lookup 18 subtable" F
EndChar

StartChar: g
Encoding: 103 103 74
Width: 550
VWidth: 1177
Flags: W
LayerCount: 2
Fore
SplineSet
212.774414062 392.532226562 m 128,-1,1
 181.657226562 357.532226562 181.657226562 357.532226562 181.657226562 284 c 0,2,3
 181.657226562 219.131835938 181.657226562 219.131835938 206.677734375 185.704101562 c 0,4,5
 230.408203125 154 230.408203125 154 281.89453125 154 c 0,6,7
 290.043945312 154 290.043945312 154 297.712890625 154.62890625 c 128,-1,8
 305.381835938 155.2578125 305.381835938 155.2578125 312.483398438 156.494140625 c 128,-1,9
 319.584960938 157.73046875 319.584960938 157.73046875 326.22265625 159.578125 c 0,10,11
 342.98828125 164.245117188 342.98828125 164.245117188 358.419921875 171.842773438 c 1,12,-1
 358.419921875 424.047851562 l 1,13,14
 346.567382812 426.342773438 346.567382812 426.342773438 336.607421875 427.02734375 c 0,15,16
 329.561523438 427.51171875 329.561523438 427.51171875 322.325195312 427.755859375 c 128,-1,17
 315.088867188 428 315.088867188 428 307.8046875 428 c 0,18,0
 243.891601562 427.533203125 243.891601562 427.533203125 212.774414062 392.532226562 c 128,-1,1
528 526.733398438 m 1,19,-1
 528 73.048828125 l 2,20,21
 528 6.216796875 528 6.216796875 511.001953125 -43.994140625 c 0,22,23
 494.004882812 -95.900390625 494.004882812 -95.900390625 459.543945312 -130.09765625 c 0,24,25
 442.208984375 -147.30078125 442.208984375 -147.30078125 419.790039062 -160.122070312 c 0,26,27
 396.54296875 -172.944335938 396.54296875 -172.944335938 367.116210938 -181.327148438 c 128,-1,28
 337.689453125 -189.708984375 337.689453125 -189.708984375 303.264648438 -193.854492188 c 128,-1,29
 268.841796875 -198 268.841796875 -198 229.08203125 -198 c 0,30,31
 171.858398438 -198 171.858398438 -198 120.341796875 -187.264648438 c 0,32,33
 72.3994140625 -176.666992188 72.3994140625 -176.666992188 27.9677734375 -162.529296875 c 2,34,-1
 19.208984375 -159.7421875 l 1,35,-1
 21.2490234375 -150.780273438 l 1,36,-1
 49.2490234375 -27.7802734375 l 1,37,-1
 51.8076171875 -16.5439453125 l 1,38,-1
 62.5712890625 -20.6591796875 l 2,39,40
 96.1982421875 -33.5166015625 96.1982421875 -33.5166015625 133.494140625 -44.404296875 c 0,41,42
 152.771484375 -49.650390625 152.771484375 -49.650390625 177.532226562 -52.3251953125 c 128,-1,43
 202.294921875 -55 202.294921875 -55 232.315429688 -55 c 0,44,45
 271.456054688 -55 271.456054688 -55 296.146484375 -47.052734375 c 0,46,47
 319.940429688 -39.3935546875 319.940429688 -39.3935546875 333.176757812 -25.796875 c 0,48,49
 346.569335938 -11.275390625 346.569335938 -11.275390625 352.38671875 6.30859375 c 0,50,51
 355.393554688 15.498046875 355.393554688 15.498046875 356.90625 25.5419921875 c 128,-1,52
 358.419921875 35.5859375 358.419921875 35.5859375 358.419921875 46.5146484375 c 2,53,-1
 358.419921875 53.85546875 l 1,54,55
 332.720703125 45.6806640625 332.720703125 45.6806640625 311.15625 41.435546875 c 0,56,57
 283.06640625 35.90625 283.06640625 35.90625 249.560546875 35.90625 c 0,58,59
 128.280273438 35.90625 128.280273438 35.90625 69.2802734375 104.997070312 c 0,60,61
 11 173.245117188 11 173.245117188 11 293.393554688 c 0,62,63
 11 429.848632812 11 429.848632812 89.8623046875 497.338867188 c 0,64,65
 129.126953125 530.94140625 129.126953125 530.94140625 186.020507812 547.662109375 c 0,66,67
 243.05859375 565 243.05859375 565 314.229492188 565 c 0,68,69
 339.165039062 565 339.165039062 565 365.09765625 563.16015625 c 128,-1,70
 391.029296875 561.319335938 391.029296875 561.319335938 417.211914062 557.643554688 c 0,71,72
 442.16796875 553.967773438 442.16796875 553.967773438 468.013671875 548.469726562 c 128,-1,73
 493.859375 543.151367188 493.859375 543.151367188 520.638671875 536.064453125 c 2,74,-1
 528 534.116210938 l 1,75,-1
 528 526.733398438 l 1,19,-1
EndSplineSet
Substitution2: "'case' Case-Sensitive Forms lookup 18 subtable" G
EndChar

